<svg height="480pt" viewBox="0 -96 480.05497 480" width="480pt" xmlns="http://www.w3.org/2000/svg"><path d="m6.738281 136.949219c-14.132812 26.191406-5.386719 58.859375 19.945313 74.484375l37.632812 25.003906v43.589844c-.003906 2.121094.839844 4.15625 2.339844 5.660156 1.5 1.5 3.535156 2.339844 5.660156 2.339844h336c2.121094 0 4.15625-.839844 5.65625-2.339844 1.5-1.503906 2.34375-3.539062 2.34375-5.660156v-43.597656l37.351563-24.878907c8.773437-5.640625 15.839843-13.570312 20.445312-22.929687 8-16.3125 7.917969-35.425782-.21875-51.671875-20.453125-38.769531-74.308593-84.628907-213.742187-88.609375l-12.140625-42.507813c-.984375-3.433593-4.125-5.8046872-7.695313-5.8046872h-32c-2.511718-.0039063-4.878906 1.1757812-6.390625 3.1796872-1.511719 2.003907-1.996093 4.601563-1.304687 7.015625l10.972656 38.40625c-132.882812 5.628906-184.84375 50.382813-204.855469 88.320313zm393.578125 135.078125h-320v-32h320zm-181.390625-256h15.359375l9.144532 32.03125c-1.050782-.003906-2.054688-.03125-3.113282-.03125-4.152344 0-8.199218.050781-12.214844.121094zm21.390625 48c146.3125 0 200.078125 43.71875 219.421875 80.390625 5.800781 11.789062 5.765625 25.613281-.09375 37.375-3.367187 6.726562-8.5 12.410156-14.84375 16.445312l-38.726562 25.789063h-62.8125l23.710937-35.5625c2.394532-3.675782 1.386719-8.59375-2.261718-11.027344-3.652344-2.433594-8.582032-1.472656-11.050782 2.152344l-29.625 44.4375h-167.4375l-29.625-44.4375c-1.574218-2.410156-4.320312-3.789063-7.191406-3.613282-2.871094.175782-5.425781 1.878907-6.691406 4.464844-1.269532 2.582032-1.050782 5.644532.570312 8.023438l23.707032 35.5625h-62.816407l-39.007812-25.921875c-18.492188-11.070313-24.953125-34.757813-14.648438-53.6875 19.34375-36.671875 73.109375-80.390625 219.421875-80.390625zm0 0"/></svg>