<?xml version="1.0" encoding="iso-8859-1"?>
<!-- Generator: Adobe Illustrator 19.0.0, SVG Export Plug-In . SVG Version: 6.00 Build 0)  -->
<svg version="1.1" id="Layer_1" xmlns="http://www.w3.org/2000/svg" xmlns:xlink="http://www.w3.org/1999/xlink" x="0px" y="0px"
	 viewBox="0 0 512 512" style="enable-background:new 0 0 512 512;" xml:space="preserve">
<g>
	<g>
		<g>
			<path d="M327.467,228.531c3.703,2.944,9.045,2.338,11.998-1.34l22.69-28.365l4.941,24.713c0.811,4.053,4.378,6.861,8.363,6.861
				c0.546,0,1.118-0.051,1.681-0.171c4.617-0.922,7.62-5.419,6.69-10.035l-6.895-34.5c9.156-3.9,15.599-12.988,15.599-23.561
				c0-14.114-11.486-25.6-25.6-25.6s-25.6,11.486-25.6,25.6c0,8.841,4.497,16.64,11.332,21.24l-26.53,33.169
				C323.191,220.22,323.789,225.587,327.467,228.531z M366.933,153.6c4.71,0,8.533,3.831,8.533,8.533
				c0,4.702-3.823,8.533-8.533,8.533s-8.533-3.831-8.533-8.533C358.4,157.431,362.223,153.6,366.933,153.6z"/>
			<path d="M477.867,102.4c-18.825,0-34.133,15.309-34.133,34.133c0,10.684,5.035,20.122,12.749,26.385L335.838,283.554
				l-68.036-166.315c12.996-4.83,22.332-17.246,22.332-31.906c0-18.825-15.309-34.133-34.133-34.133
				c-18.825,0-34.133,15.309-34.133,34.133c0,14.66,9.335,27.076,22.332,31.906l-68.036,166.315L55.518,162.918
				c7.714-6.263,12.749-15.701,12.749-26.385c0-18.825-15.309-34.133-34.133-34.133C15.309,102.4,0,117.709,0,136.533
				s15.309,34.133,34.133,34.133c0.41,0,0.794-0.111,1.195-0.119l33.041,214.75c0.64,4.164,4.224,7.236,8.431,7.236h324.267
				c4.719,0,8.533-3.823,8.533-8.533s-3.814-8.533-8.533-8.533H84.122L55.066,186.598L173.167,304.7
				c2.014,2.022,4.915,2.901,7.714,2.33c2.799-0.555,5.137-2.492,6.221-5.137L256,133.47l68.898,168.422
				c1.084,2.645,3.422,4.582,6.221,5.137c2.799,0.563,5.7-0.316,7.714-2.33l118.101-118.101l-30.165,196.105
				c-0.222,1.391,0.034,2.79,0.572,4.087l-0.58,56.943H85.333v-25.6c0-4.71-3.814-8.533-8.533-8.533s-8.533,3.823-8.533,8.533
				v34.133c0,4.71,3.814,8.533,8.533,8.533h358.4c4.676,0,8.482-3.763,8.533-8.448l0.708-68.267
				c0.008-0.691-0.102-1.374-0.307-2.048l32.538-211.49c0.401,0.009,0.785,0.119,1.195,0.119c18.825,0,34.133-15.309,34.133-34.133
				S496.691,102.4,477.867,102.4z M34.133,153.6c-9.412,0-17.067-7.654-17.067-17.067s7.654-17.067,17.067-17.067
				c9.404,0,17.067,7.654,17.067,17.067S43.537,153.6,34.133,153.6z M238.933,85.333c0-9.412,7.663-17.067,17.067-17.067
				c9.412,0,17.067,7.654,17.067,17.067c0,9.412-7.654,17.067-17.067,17.067C246.596,102.4,238.933,94.746,238.933,85.333z
				 M477.867,153.6c-9.412,0-17.067-7.654-17.067-17.067s7.654-17.067,17.067-17.067c9.404,0,17.067,7.654,17.067,17.067
				S487.27,153.6,477.867,153.6z"/>
			<path d="M135.066,185.694l-6.903,34.5c-0.922,4.617,2.082,9.114,6.699,10.035c0.563,0.12,1.118,0.171,1.681,0.171
				c3.985,0,7.552-2.807,8.354-6.861l4.949-24.713l22.69,28.365c2.944,3.678,8.303,4.284,11.998,1.34
				c3.678-2.944,4.275-8.311,1.331-11.989l-26.53-33.169c6.835-4.599,11.332-12.399,11.332-21.24c0-14.114-11.486-25.6-25.6-25.6
				s-25.6,11.486-25.6,25.6C119.467,172.706,125.909,181.794,135.066,185.694z M145.067,153.6c4.71,0,8.533,3.831,8.533,8.533
				c0,4.702-3.823,8.533-8.533,8.533c-4.71,0-8.533-3.831-8.533-8.533C136.533,157.431,140.356,153.6,145.067,153.6z"/>
		</g>
	</g>
</g>
<g>
</g>
<g>
</g>
<g>
</g>
<g>
</g>
<g>
</g>
<g>
</g>
<g>
</g>
<g>
</g>
<g>
</g>
<g>
</g>
<g>
</g>
<g>
</g>
<g>
</g>
<g>
</g>
<g>
</g>
</svg>
