<?xml version="1.0" encoding="utf-8"?>
<!-- Generator: Adobe Illustrator 16.0.3, SVG Export Plug-In . SVG Version: 6.00 Build 0)  -->
<!DOCTYPE svg PUBLIC "-//W3C//DTD SVG 1.1//EN" "http://www.w3.org/Graphics/SVG/1.1/DTD/svg11.dtd">
<svg version="1.1" id="Capa_1" xmlns="http://www.w3.org/2000/svg" xmlns:xlink="http://www.w3.org/1999/xlink" x="0px" y="0px"
	 width="500px" height="500px" viewBox="0 0 500 500" enable-background="new 0 0 500 500" xml:space="preserve">
<g>
	<g>
		<g>
			<path fill="#FFFFFF" d="M499.9,191.147c-0.052-0.574-0.166-1.142-0.342-1.691c-0.114-0.491-0.273-0.971-0.475-1.434
				c-0.233-0.452-0.513-0.88-0.833-1.276c-0.321-0.47-0.693-0.902-1.108-1.292c-0.134-0.116-0.191-0.275-0.333-0.392l-80.146-62.244
				V58.308c0-13.807-11.194-25.001-25.002-25.001H301.35L265.188,5.229c-8.933-6.967-21.46-6.967-30.394,0l-36.168,28.077h-90.313
				c-13.807,0-25.001,11.193-25.001,25.001v64.512L3.191,185.064c-0.142,0.117-0.2,0.275-0.333,0.392
				c-0.415,0.389-0.787,0.822-1.108,1.292c-0.32,0.396-0.6,0.823-0.833,1.276c-0.202,0.462-0.36,0.942-0.475,1.434
				c-0.174,0.542-0.288,1.101-0.342,1.667c0,0.175-0.1,0.325-0.1,0.5v283.371c0.012,5.301,1.727,10.457,4.892,14.708
				c0.05,0.075,0.059,0.167,0.116,0.233c0.059,0.066,0.184,0.143,0.267,0.234c4.682,6.16,11.963,9.792,19.701,9.825H475
				c7.768-0.023,15.08-3.673,19.768-9.866c0.066-0.083,0.167-0.108,0.225-0.191c0.059-0.084,0.066-0.158,0.117-0.234
				c3.165-4.252,4.88-9.408,4.892-14.708V191.647C500,191.473,499.909,191.322,499.9,191.147z M244.987,18.38
				c2.91-2.313,7.031-2.313,9.941,0l19.226,14.926h-48.335L244.987,18.38z M27.077,483.329l217.912-169.267
				c2.912-2.31,7.03-2.31,9.941,0l217.97,169.267H27.077z M483.333,470.336L265.188,300.91c-8.935-6.961-21.458-6.961-30.394,0
				L16.643,470.336V204.339l136.565,106.047c3.639,2.822,8.875,2.159,11.697-1.479s2.159-8.876-1.479-11.696L24.685,189.48
				l58.628-45.561v64.395c0,4.603,3.731,8.333,8.333,8.333c4.603,0,8.333-3.731,8.333-8.333V58.307c0-4.603,3.731-8.333,8.333-8.333
				H391.66c4.604,0,8.334,3.731,8.334,8.333v150.008c0,4.603,3.73,8.333,8.333,8.333s8.334-3.731,8.334-8.333v-64.395l58.628,45.561
				L336.307,297.402c-2.391,1.813-3.624,4.77-3.228,7.743s2.36,5.505,5.144,6.627c2.782,1.122,5.953,0.663,8.302-1.203
				l136.807-106.23v265.997H483.333z"/>
			<path fill="#FFFFFF" d="M349.992,199.981v-33.335c0-55.231-44.773-100.005-100.005-100.005s-100.005,44.774-100.005,100.005
				c0,55.231,44.773,100.005,100.005,100.005c4.603,0,8.333-3.731,8.333-8.333c0-4.604-3.73-8.334-8.333-8.334
				c-46.026,0-83.337-37.312-83.337-83.337c0-46.025,37.312-83.337,83.337-83.337c46.026,0,83.337,37.312,83.337,83.337v33.335
				c0,9.206-7.462,16.668-16.668,16.668c-9.205,0-16.667-7.462-16.667-16.668v-33.335c0-4.603-3.731-8.333-8.334-8.333
				s-8.333,3.731-8.333,8.333c0,18.41-14.925,33.335-33.335,33.335s-33.334-14.925-33.334-33.335
				c0-18.41,14.924-33.334,33.334-33.334c4.603,0,8.333-3.73,8.333-8.333c0-4.603-3.73-8.333-8.333-8.333
				c-22.379-0.05-42.066,14.776-48.2,36.299s2.78,44.5,21.824,56.254s43.579,9.424,60.069-5.707
				c1.814,17.624,17.133,30.728,34.825,29.792C336.198,232.346,350.048,217.699,349.992,199.981z"/>
		</g>
	</g>
</g>
</svg>
