<?xml version="1.0" encoding="utf-8"?>
<!-- Generator: Adobe Illustrator 22.0.1, SVG Export Plug-In . SVG Version: 6.00 Build 0)  -->
<svg version="1.1" id="Capa_1" xmlns="http://www.w3.org/2000/svg" xmlns:xlink="http://www.w3.org/1999/xlink" x="0px" y="0px"
	 viewBox="0 0 28.6 23.5" style="enable-background:new 0 0 28.6 23.5;" xml:space="preserve">
<style type="text/css">
	.st0{fill:none;stroke:#000000;stroke-width:0.5;stroke-miterlimit:10;}
</style>
<title>iconDoryan</title>
<path class="st0" d="M12.8,10c0,0,4.7,0.6,6.6-3.6c0-0.1,0-0.1,0-0.2c-0.1,0-0.1,0-0.2,0C17.8,7.1,16,7,14.7,6l0,0
	C13.8,5,12.3,5,11.3,6c-0.1,0.1-0.2,0.3-0.3,0.4c-0.7-1.1-2.2-1.5-3.3-0.8C7.5,5.7,7.4,5.8,7.3,6l0,0C6,7,4.2,7.1,2.8,6.3
	c-0.1,0-0.1,0-0.2,0c-0.1,0.1-0.1,0.1,0,0.2C4.5,10.7,9.2,10,9.2,10C9.9,10,10.6,9.6,11,9C11.4,9.6,12.1,10,12.8,10z"/>
<path class="st0" d="M12.8,10c0,0,4.7,0.6,6.6-3.6c0-0.1,0-0.1,0-0.2c-0.1,0-0.1,0-0.2,0C17.8,7.1,16,7,14.7,6l0,0
	C13.8,5,12.3,5,11.3,6c-0.1,0.1-0.2,0.3-0.3,0.4c-0.7-1.1-2.2-1.5-3.3-0.8C7.5,5.7,7.4,5.8,7.3,6l0,0C6,7,4.2,7.1,2.8,6.3
	c-0.1,0-0.1,0-0.2,0c-0.1,0.1-0.1,0.1,0,0.2C4.5,10.7,9.2,10,9.2,10C9.9,10,10.6,9.6,11,9C11.4,9.6,12.1,10,12.8,10z"/>
<path class="st0" d="M24.7,14l-3.5,1.4c-0.2,0.1-0.3,0.3-0.2,0.5l0.4,1.1c-0.5,0.1-3.3-3.8-4.6-4.5c-1.2-0.7-2.8-1.3-4.1-0.8
	c-0.2,0.1-0.2,0.3-0.2,0.4c0.1,0.1,0.2,0.2,0.4,0.2c1.1-0.3,2.4,0.4,3.3,1.1c1.7,1.2,3.5,7.3,8.3,5.4c1.1-0.5,1.7-1.8,1.2-2.9
	l-0.7-1.6C25.1,14.1,24.9,14,24.7,14z"/>
</svg>
