<svg xmlns="http://www.w3.org/2000/svg" viewBox="0 0 609.8 739.4"><defs><style>.cls-1{fill:#fff;}.cls-2{fill:#5db4e5;}.cls-3{fill:#346680;}.cls-4{fill:none;stroke:#193240;stroke-miterlimit:10;stroke-width:2px;}</style></defs><title>Artboard 1</title><g id="Layer_6" data-name="Layer 6"><polygon class="cls-1" points="266.86 55.4 369.2 168.49 414.28 131.99 498.83 273.99 444.63 472.36 395.12 501.19 324.28 659.33 293.21 675.51 289.59 604.76 259.96 644.51 197.09 506.84 180.69 534.15 116.19 303.26 147.63 258.27 147.63 236.6 187 210.76 266.86 55.4"/></g><g id="Layer_3" data-name="Layer 3"><polygon class="cls-2" points="147.63 258.27 147.63 297.3 136.06 274.83 147.63 258.27"/><polygon class="cls-2" points="167.68 223.44 187 210.76 170.93 242.02 167.68 223.44"/><polygon class="cls-2" points="266.86 55.4 313.8 307.42 489.7 307.42 498.83 273.99 414.28 131.99 369.09 168.26 266.86 55.4"/></g><g id="Layer_5" data-name="Layer 5"><polyline class="cls-3" points="313.8 307.42 259.96 644.51 289.59 604.76 293.21 675.51 324.28 659.33 395.12 501.19 444.63 472.36 489.7 307.42 313.8 307.42"/><polygon class="cls-3" points="197.09 506.84 219.17 468.02 219.17 555.18 197.09 506.84"/></g><g id="Layer_2" data-name="Layer 2"><polyline class="cls-4" points="397.48 199.74 266.86 55.4 170.93 242.02"/><polyline class="cls-4" points="395.12 501.19 324.28 659.33 293.21 675.51 284.54 517.32"/><polyline class="cls-4" points="289.59 604.76 259.96 644.51 197.09 506.84"/><polyline class="cls-4" points="219.17 468.02 180.69 534.15 116.19 303.26 147.63 258.27"/><polyline class="cls-4" points="180.69 534.15 116.19 303.26 147.63 258.27 147.63 236.6 187 210.76 147.63 236.6 147.63 297.3"/><polyline class="cls-4" points="266.86 55.4 369.2 168.49 414.28 131.99 498.83 273.99 444.63 472.36 359 522.22"/></g><g id="Layer_4" data-name="Layer 4"><line class="cls-4" x1="64.09" y1="307.41" x2="538.7" y2="307.41"/></g></svg>