<?xml version="1.0" encoding="utf-8"?>
<!-- Generator: Adobe Illustrator 22.0.1, SVG Export Plug-In . SVG Version: 6.00 Build 0)  -->
<svg version="1.1" xmlns="http://www.w3.org/2000/svg" xmlns:xlink="http://www.w3.org/1999/xlink" x="0px" y="0px"
	 viewBox="0 0 1920 1080" style="enable-background:new 0 0 1920 1080;" xml:space="preserve">
<style type="text/css">
	.st0{fill:#5CB5E6;}
	.st1{fill:#9ED7F2;}
	.st2{fill:#FFFFFF;}
	.st3{fill:#E7F6FD;}
	.st4{fill:#D6E8F2;}
	.st5{opacity:0.1;fill:#5B4A32;}
	.st6{fill:#44403D;}
	.st7{fill:#EAA94B;}
	.st8{fill:#FC572B;}
	.st9{fill:#423935;}
	.st10{fill:#2F5F7F;}
	.st11{fill:#333333;}
	.st12{fill:#FCC29B;}
	.st13{fill:#534741;}
	.st14{fill:#BD272D;}
	.st15{opacity:0.15;}
	.st16{fill:#6D3605;}
	.st17{fill:#DD9F76;}
	.st18{fill:#FF7E5F;}
	.st19{fill:#DCDCDC;stroke:#000000;stroke-width:0.2;stroke-miterlimit:10;}
	.st20{stroke:#000000;stroke-width:0.2;stroke-miterlimit:10;}
	.st21{fill:#5DB4E5;}
	.st22{fill:#346680;}
	.st23{fill:none;stroke:#193240;stroke-width:0.3;stroke-miterlimit:10;}
	.st24{fill:none;stroke:#193240;stroke-width:0.4;stroke-miterlimit:10;}
	.st25{opacity:0.1;fill:none;stroke:#000000;stroke-miterlimit:10;}
	.st26{opacity:0.1;fill:none;stroke:#000000;stroke-width:0.3;stroke-miterlimit:10;}
</style>
<g id="Fond">
	<rect class="st0" width="1920" height="1080"/>
	<g id="Nuage_derriere_parach">
		<path class="st1" d="M807.8,200.5c0-17.4-14.1-31.6-31.6-31.6c-3.1,0-6.1,0.5-8.9,1.3c0.3-2.2,0.5-4.5,0.5-6.9
			c0-27.4-22.2-49.6-49.6-49.6c-21.1,0-39,13.2-46.2,31.7c-5.8-1.4-11.8-2.1-17.9-2.1c-30.4,0-56.6,17.7-69,43.4
			c-13.7,2.2-25.5,10-33,21c-4.4-2.3-9.4-3.7-14.8-3.7c-17.4,0-31.6,14.1-31.6,31.6c0,17.4,14.1,31.6,31.6,31.6
			c5.3,0,10.4-1.3,14.8-3.7c8.9,13.1,23.9,21.7,41,21.7c5.9,0,11.6-1.1,16.8-3c12.5,8.8,27.7,14.1,44.1,14.1
			c18.8,0,36.1-6.8,49.4-18.1c8.9,8.6,21,13.9,34.4,13.9c27.4,0,49.6-22.2,49.6-49.6c0-4.1-0.6-8.1-1.5-12
			C798.7,226.4,807.8,214.5,807.8,200.5z"/>
		<path class="st2" d="M795.5,225.5c7.5-5.8,12.4-14.8,12.4-25c0-17.4-14.1-31.6-31.6-31.6c-3.1,0-6.1,0.5-8.9,1.3
			c0.3-2.2,0.5-4.5,0.5-6.9c0-27.4-22.2-49.6-49.6-49.6c-21.1,0-39,13.2-46.2,31.7c-5.8-1.4-11.8-2.1-17.9-2.1
			c-30.4,0-56.6,17.7-69,43.4c-13.7,2.2-25.5,10-33,21c-4.4-2.3-9.4-3.7-14.8-3.7c-13.9,0-25.7,9-29.9,21.4H795.5z"/>
		<path class="st3" d="M797,196.2c0,0-0.1,0-0.1,0c0-0.7,0.1-1.3,0.1-2c0-18.8-15.2-34-34-34c-14,0-26,8.4-31.2,20.5
			c-4-3.7-9.3-6-15.2-6c-2.6,0-5.1,0.5-7.4,1.3c-4.7-10.8-15.5-18.3-28.1-18.3c-12.2,0-22.7,7.2-27.7,17.5
			c-8.4-10.6-21.3-17.5-35.9-17.5c-23.4,0-42.7,17.6-45.3,40.4c-4.1-2-8.7-3.2-13.6-3.2c-11.6,0-21.7,6.4-26.9,15.9
			c-4.1-4.5-9.9-7.4-16.5-7.4c-12.2,0-22.1,9.9-22.1,22.1c0,12.2,9.9,22.1,22.1,22.1c6.5,0,12.4-2.9,16.5-7.4
			c5.2,9.5,15.3,15.9,26.9,15.9c9.4,0,17.9-4.3,23.5-11c1.7,15.3,14.7,27.2,30.4,27.2c11.5,0,21.6-6.4,26.8-15.8
			c8.3,11.5,21.8,19,37,19c12.4,0,23.6-5,31.9-13c8.2,12.1,22.1,20,37.8,20c24.2,0,43.9-18.8,45.5-42.6c1.8,0.4,3.6,0.7,5.5,0.7
			c12.2,0,22.1-9.9,22.1-22.1C819.2,206.1,809.3,196.2,797,196.2z"/>
		<path class="st4" d="M666.7,197c0.2,2-0.1,4-0.8,5.9c-0.7,1.9-1.8,3.7-3.2,5.2c-2.8,3.1-7,4.8-11.1,4.8c-4.2,0-8.3-1.8-11.1-4.8
			c-1.4-1.5-2.5-3.3-3.2-5.2c-0.6-1.9-1-4-0.8-5.9c0.3,3.9,2.1,7.6,4.9,10.2c2.8,2.6,6.5,4.1,10.2,4c3.7,0,7.4-1.5,10.2-4
			C664.6,204.7,666.4,201,666.7,197z"/>
		<path class="st4" d="M752.8,213c0.3,3.2-0.2,6.5-1.2,9.6c-1.1,3.1-2.9,5.9-5.1,8.4c-4.5,4.9-11.2,7.8-17.9,7.8
			c-6.7,0-13.4-2.8-17.9-7.8c-2.3-2.4-4-5.3-5.1-8.4c-1-3.1-1.5-6.4-1.2-9.6c0.6,6.4,3.4,12.3,7.9,16.4c4.5,4.1,10.4,6.5,16.4,6.5
			c6,0,12-2.4,16.4-6.5C749.4,225.3,752.3,219.3,752.8,213z"/>
		<path class="st4" d="M597.8,210.8c0.2,2.5-0.1,5-0.9,7.4c-0.9,2.4-2.2,4.6-4,6.5c-3.5,3.8-8.7,6-13.9,6c-5.2,0-10.4-2.2-13.9-6
			c-1.8-1.9-3.1-4.1-4-6.5c-0.8-2.4-1.2-4.9-0.9-7.4c0.4,4.9,2.6,9.5,6.1,12.8c3.5,3.2,8.1,5.1,12.8,5c4.7,0,9.3-1.8,12.8-5
			C595.2,220.3,597.4,215.7,597.8,210.8z"/>
	</g>
	<g id="Nuage">
		<path class="st1" d="M1723.1,560.2c-5.6-0.6-11.2-0.2-16.4,1c-11.8-19.1-31.8-32.7-55.8-35.4c-1.7-0.2-3.4-0.2-5.1-0.3
			c-8.7-41.9-43.4-75.3-88.2-80.3c-48.5-5.4-92.9,24.2-107.8,68.7c-0.8-0.1-1.5-0.3-2.3-0.4c-26.5-3-50.3,16.1-53.3,42.5
			c-0.7,6.2-0.1,12.3,1.4,17.9c-13.8,2.1-25,13.2-26.6,27.7c-2,17.4,10.6,33,27.9,35c4.3,0.5,8.4,0.1,12.3-1
			c4.6,17.6,19.6,31.4,38.8,33.5c22.8,2.6,43.5-12.2,49-33.8c11.4,6.3,24.1,10.5,37.8,12c15.5,1.7,30.5-0.2,44.3-5
			c11.9,18.2,31.5,31.1,54.8,33.7c24.9,2.8,48.3-6.9,64-24c4.4,2,9.2,3.3,14.3,3.9c26.5,3,50.3-16.1,53.3-42.5
			C1768.6,587,1749.6,563.2,1723.1,560.2z"/>
		<path class="st2" d="M1395.6,574l369.7,41.5c0.1-0.7,0.3-1.3,0.3-2c3-26.5-16.1-50.3-42.5-53.3c-5.6-0.6-11.2-0.2-16.4,1
			c-11.8-19.1-31.8-32.7-55.8-35.4c-1.7-0.2-3.4-0.2-5.1-0.3c-8.7-41.9-43.4-75.3-88.2-80.3c-48.5-5.4-92.9,24.2-107.8,68.7
			c-0.8-0.1-1.5-0.3-2.3-0.4c-26.5-3-50.3,16.1-53.3,42.5c-0.7,6.2-0.1,12.3,1.4,17.9C1395.6,574,1395.6,574,1395.6,574z"/>
		<path class="st3" d="M1512.7,578.2c-1.7,14.9-15.1,25.6-29.9,23.9c-14.9-1.7-25.5-15.1-23.9-29.9c1.7-14.9,15.1-25.5,29.9-23.9
			C1503.7,550,1514.4,563.3,1512.7,578.2z"/>
		<path class="st3" d="M1760.6,585.4c-6.2-0.7-12.1,0.5-17.2,3.2c-6-6.2-14-10.4-23.2-11.4c-6.2-0.7-12.2,0.2-17.6,2.2
			c-5.1-12.6-16.8-22.1-31.2-23.8c-3.1-0.3-6.1-0.3-9.1,0.1c-9.3-14.9-25.1-25.5-43.9-27.7c-13.9-1.6-27.2,1.8-38.3,8.7
			c-8.5-16.9-25.1-29.3-45.3-31.5c-28.2-3.2-54,14.5-61.9,40.7c-6.1-8.4-15.6-14.4-26.7-15.7c-14.5-1.6-27.9,5-35.7,16.2
			c-4.7-4.8-11-8-18.1-8.8c-16.6-1.9-31.5,10.1-33.4,26.6c-1.9,16.6,10.1,31.5,26.6,33.4c3.4,0.4,6.8,0.2,10-0.6
			c-0.1,0.5-0.2,1.1-0.3,1.7c-1.9,16.6,10.1,31.5,26.6,33.4c11.3,1.3,21.7-3.8,27.9-12.4c2.5,1.6,5.3,2.7,8.4,3
			c3.6,0.4,7.1-0.3,10.3-1.6c4,14.7,16.6,26.3,32.7,28.1c19.8,2.2,37.7-11,41.7-30.1c5.3-1.4,10.3-3.5,14.9-6.2
			c8.6,18.1,26,31.5,47.3,33.9c9.5,1.1,18.7-0.2,27.1-3.3c4.2,9.5,13.2,16.6,24.2,17.8c14.2,1.6,27.2-7,31.8-19.9
			c6,6.4,14.2,10.7,23.6,11.8c12.1,1.4,23.6-3.1,31.5-11.2c3.3,1.7,6.9,2.9,10.7,3.3c16.6,1.9,31.5-10.1,33.4-26.6
			C1789.1,602.2,1777.2,587.3,1760.6,585.4z M1474.7,588.2c0,0-0.1-0.1-0.1-0.1c0.3-0.5,0.6-0.9,0.8-1.4c0.1,0.1,0.1,0.3,0.2,0.4
			C1475.3,587.4,1475,587.8,1474.7,588.2z"/>
		<path class="st4" d="M1655.2,579.4c0,3.3-0.9,6.5-2.3,9.6c-1.5,3-3.6,5.7-6.2,7.9c-5.1,4.5-12.2,6.6-19.1,5.8
			c-6.8-0.8-13.3-4.4-17.3-9.9c-2-2.7-3.5-5.8-4.3-9.1c-0.7-3.3-0.8-6.6-0.2-9.8c-0.2,6.5,2,12.8,6.1,17.6c4.1,4.7,9.8,7.8,15.9,8.4
			c6.1,0.7,12.4-1,17.4-4.7C1650.4,591.5,1654,585.8,1655.2,579.4z"/>
		<path class="st4" d="M1539.7,563c-0.1,4.5-1.3,9-3.2,13.2c-2.1,4.1-5,7.9-8.5,10.9c-7.1,6.2-16.9,9.1-26.3,8
			c-9.4-1.1-18.4-6.1-23.9-13.7c-2.8-3.8-4.8-8.1-5.9-12.5c-1-4.5-1.1-9.2-0.2-13.6c-0.2,9,2.8,17.7,8.4,24.2
			c5.6,6.5,13.5,10.8,22,11.7c8.4,1,17.1-1.4,24-6.5C1533.1,579.7,1538,571.8,1539.7,563z"/>
	</g>
	<line class="st0" x1="389.4" y1="668.4" x2="393.4" y2="669"/>
</g>
<g id="Perso">
	<g>
		<path class="st5" d="M133.1,391.8c2.9-34.6,12.6-67.1,27.6-96.4c42.7-89.7,130.9-147.4,240.7-144.1c0,0-0.2,0.1-0.5,0.3
			c5.1,0.1,10.3,0.3,15.5,0.7c2.3,0.2,4.5,0.4,6.8,0.6C564.7,167,668.8,289.8,656.9,430.2l-1.2,2.5c0,0-0.1-0.2-0.2-0.5
			c-0.1-0.2-0.2-0.5-0.3-0.9c-0.2-0.6-0.5-1.3-0.8-2.1c-5-12.1-24.9-50.9-76.8-53.7c-15.7-0.8-34.3,1.6-56.3,9.1
			c0,0-2.7-3.5-7.6-8.3c-14.9-13.1-49.6-36.4-92.7-16.6c-4.2,2.2-8.5,4.8-12.9,8c0,0-57.5-61.2-131.9-3.4c0,0-1.9-1.2-5.4-2.9
			c-95.2-31.8-136.3,30.4-136.3,30.4c0-0.3,0.1-0.6,0.1-0.9c-0.3,0.3-0.5,0.6-0.7,0.9L133.1,391.8z"/>
		<g>
			<g>
				<g>
					
						<rect x="382.4" y="533.8" transform="matrix(0.7134 -0.7008 0.7008 0.7134 -218.9697 532.9238)" class="st6" width="319.3" height="0.8"/>
				</g>
				<g>
					
						<rect x="246.6" y="338.2" transform="matrix(0.7568 -0.6536 0.6536 0.7568 -274.0367 285.743)" class="st6" width="0.8" height="345.9"/>
				</g>
				<g>
					
						<rect x="308.7" y="500.2" transform="matrix(0.4015 -0.9159 0.9159 0.4015 -179.3553 726.8004)" class="st6" width="315.3" height="0.8"/>
				</g>
				<g>
					
						<rect x="323.4" y="311.9" transform="matrix(0.9459 -0.3244 0.3244 0.9459 -139.0495 131.157)" class="st6" width="0.8" height="341.4"/>
				</g>
				<g>
					
						<rect x="244.6" y="461.1" transform="matrix(5.267347e-02 -0.9986 0.9986 5.267347e-02 -79.9383 838.7563)" class="st6" width="314.9" height="0.8"/>
				</g>
			</g>
			<g>
				<g>
					<path class="st7" d="M133.7,381.5C145.8,238.8,272,131.1,417,141.9c144.9,10.8,252.6,135.3,240.5,278l-1.2,2.5
						c0,0-26.1-85-134.4-48.2c0,0-48.4-63.5-113.2-16.9c0,0-57.5-61.2-131.9-3.4c0,0-78.9-49.4-142.4,27.4"/>
				</g>
				<g>
					<path class="st7" d="M417,141.9c144.9,10.8,252.6,135.3,240.5,278l-1.2,2.5c0,0-26.1-85-134.4-48.2c0,0,1.7-54.9-16.5-101.9
						C469.9,180.8,417,141.9,417,141.9z"/>
				</g>
				<g>
					<path class="st8" d="M401.9,140.9c-145.3-4.4-253,98.4-266.9,240.4l0,0c0,0,42.3-64,140.4-29c0,0,3.6-45.8,26.7-90.7
						C346.8,174.4,401.9,140.9,401.9,140.9z"/>
				</g>
				<path class="st8" d="M522.1,373.7c0,0-49.5-59-114-17l1.5-214.7l7.8,0.4C417.4,142.4,524,226.5,522.1,373.7z"/>
			</g>
		</g>
	</g>
	<path class="st9" d="M436.3,712.9c-0.5,8.7-8,15.4-16.8,14.9l-60-3.6c-8.7-0.5-15.4-8.1-14.9-16.8l3.3-54.1
		c0.5-8.7,8-15.4,16.8-14.9l60,3.6c8.7,0.5,15.4,8.1,14.9,16.8L436.3,712.9z"/>
	<g>
		<g>
			<path class="st10" d="M333.3,748.9L333.3,748.9c-0.9,17.3,1,34.9,11.9,35.5l76.1,0.5c10.9,0.6,20.5-13,21.4-30.3l0,0"/>
			<path class="st10" d="M335.8,756c0,0-50,33.6-57,40.3c-6.6,6.3-30.7,68.8-34.7,81.2l22.4,0.5c0,0,25.1-44.1,33.8-60.7
				c2.4-4.6,76.9-47.1,76.9-47.1"/>
			<path class="st10" d="M388.5,778.9c0,0-31.2,50-35.8,58.2c-4.6,8.2-3.8,90.9-3.8,90.9l21.3-4.8l14.5-77.6l49.7-67.7"/>
		</g>
		<g>
			<path class="st11" d="M261.1,900l-28.6-7.4c-8.2-2.1-13.5-8.8-11.9-15l0,0c1.6-6.2,9.5-9.4,17.7-7.3l28.6,7.4"/>
			<path class="st11" d="M371.2,945.6l-29.5,1.8c-8.4,0.5-15.6-4.2-15.9-10.6l0,0c-0.4-6.3,6.1-11.9,14.5-12.4l29.5-1.8"/>
		</g>
	</g>
	<g>
		<path class="st2" d="M442.4,755.1l3.6-85.9c0.5-10-6.3-18.4-15.2-18.9l-75.9-4c-8.9-0.5-16.6,7.2-17.1,17.2l-4.2,86.3"/>
		<g>
			<path class="st12" d="M433.9,756.6c0,0-5.4,2.8-12.8,5.1c-8.5,2.7-29.3,10.1-33.2,5.2c-4-4.9,3.7-11,11.4-11
				c7.8,0,14.8-2.1,15.2-4.9c0.4-2.8-7-4.9-3.9-9.1c2.9-3.8,2.7-0.6,9,2.9c6.2,3.5,11.9,4.3,11.9,4.3L433.9,756.6z"/>
			<path class="st2" d="M428.3,650.2c22.4,1.8,54.5,36.8,53.4,52.8c-3,44.9-47.5,59.3-47.5,59.3l-4.1-19.6c0,0,40.8-35,33-38.5
				c-28.3-12.8-29.3-20.2-29.3-20.2"/>
		</g>
	</g>
	<path class="st2" d="M343.3,649.2c-21.2,7.5-57.2,31-61.8,46.3c-16.4,54.9,86.3,67.9,86.3,67.9l-8.2-26.4c0,0-64.4-24.1-48.4-30.2
		c21.3-8.2,35.4-23.6,35.4-23.6"/>
	<g>
		<path class="st13" d="M354,714.8c-0.1,8.4-5.2,17.2-10.9,16.9l-2.5,0.1c-5.6-0.4-7.5-1.8-7.1-7l4.3-73.9c0.3-5.2,5.2-9.2,10.8-8.8
			l0,0c5.6,0.4,9.9,4.9,9.5,10.2L354,714.8z"/>
		<path class="st13" d="M424.5,720.7c-1.1,8.4,2.8,17.8,8.4,18.2l2.4,0.4c5.6,0.4,7.6-0.8,8-6l6-73.9c0.4-5.2-3.8-9.8-9.5-10.2l0,0
			c-5.6-0.4-10.5,3.6-10.9,8.8L424.5,720.7z"/>
		
			<rect x="382" y="666.1" transform="matrix(4.876114e-02 -0.9988 0.9988 4.876114e-02 -341.1205 1061.0494)" class="st13" width="9" height="87.1"/>
	</g>
	<g>
		<polygon class="st14" points="380.4,659.2 403.8,659.1 393.2,669.6 388.7,669 		"/>
		<g>
			<g>
				<g>
					<g class="st15">
						<polygon points="405.8,649.3 416.4,650.7 410.7,671 392,660 						"/>
					</g>
					<g>
						<polygon class="st2" points="405.8,648.4 416.4,649.7 410.7,670.1 392,659.1 						"/>
					</g>
				</g>
			</g>
			<g>
				<g class="st15">
					<polyline points="378.3,647.8 367.7,648 371.2,668.9 392.2,659.9 					"/>
				</g>
				<g>
					<polyline class="st2" points="378.3,646.9 367.7,647.1 371.2,668 392.2,659 					"/>
				</g>
			</g>
		</g>
	</g>
	<g>
		<path class="st12" d="M436.6,587.7c-0.3-0.1-0.5-0.1-0.8-0.1c-2.3-17.9-15-33-32.8-36.6c-22-4.5-43.7,10.3-49.5,33.2
			c-4.3,0.3-7.9,3.8-8.2,8.3l-0.4,6.3c-0.3,4.6,3.1,8.6,7.6,9.3c3,14.2,12.6,26.2,26,31.2l-0.4,7.8l13.8,12.1l13.6-10.7l0.5-8.9
			c12.2-4.3,22.4-14.4,27.1-27.7c4.4,0.3,8.4-2.7,9.3-7.2l1.3-6.3C444.7,593.4,441.5,588.6,436.6,587.7z"/>
		<path class="st16" d="M410.4,561.3c0,0-34.7,37.1-78.6,15.3c0,0,16.3-3.5,17.9-11.3c0,0-4.3,4.3-11.4,2.5c0,0,11.1-7.9,15.7-17.2
			c4.6-9.3,16.9-16.3,30.6-16.9c0,0-17.1-2.8-20.9-0.8c0,0,25.5-18.6,45-10.6c19.4,8,25.6,14.7,29.3,23c0,0,13.8,5.5,15.9,12.1
			c0,0-5.6-2.5-9.3-1.2c0,0,20.2,13.2,6.7,37.4c-1.1,1.9-8.3,7.5-8.3,7.5s3.1-13.5-9-12.8c-2.8,0.2-5.1,1.9-8.4,7.9
			C425.8,596,427.8,569.5,410.4,561.3z"/>
		<g>
			<path class="st17" d="M386.4,591.1c0,0-0.1,0.4-0.3,1.1c-0.2,0.7-0.5,1.6-1,2.7c-0.5,1.1-1.1,2.4-1.9,3.7c-0.4,0.6-0.8,1.3-1.3,2
				c-0.5,0.6-1.1,1.3-1.7,1.9c-0.6,0.6-1.6,1.1-1.9,1.4c0,0-0.1,0.1,0,0c0-0.1,0-0.1,0-0.2c0,0,0.1,0.2,0.3,0.4
				c0.4,0.4,1,0.8,1.5,1.1c0.5,0.3,1.1,0.6,1.6,0.9c2.1,1.1,3.5,1.9,3.5,1.9l0,0.1c0,0-1.5-0.4-3.7-1.3c-1.1-0.5-2.4-1-3.6-1.9
				c-0.3-0.2-0.6-0.5-0.7-0.9c-0.2-0.4,0.1-0.9,0.4-1.2c0.6-0.5,1.3-0.9,1.9-1.4c1.2-1,2.1-2.3,3-3.5c0.8-1.2,1.5-2.4,2.1-3.4
				c1.2-2.1,1.8-3.5,1.8-3.5L386.4,591.1z"/>
			<path class="st18" d="M373.2,612.5c2.6,1.4,4.5,3,12.9,2.9c5.5,0,16-5.8,18.1-0.5c2.3,5.7-3.3,13-19,12.5
				c-12.7-0.4-20.7-9.5-19.7-13.4C366.6,610.1,371.6,611.7,373.2,612.5z"/>
			<g>
				<path class="st11" d="M405.3,590.1c0.4-2-0.9-3.9-2.9-4.3c-2-0.4-3.9,0.9-4.3,2.9c-0.4,2,0.9,3.9,2.9,4.3
					C403,593.4,404.9,592.1,405.3,590.1z"/>
				<path class="st11" d="M374.9,589.4c0.4-2-0.9-3.9-2.9-4.3c-2-0.4-3.9,0.9-4.3,2.9c-0.4,2,0.9,3.9,2.9,4.3
					C372.5,592.7,374.5,591.4,374.9,589.4z"/>
			</g>
		</g>
	</g>
	<g id="PC">
		<polygon class="st19" points="406.6,797.2 425.8,773.9 425.8,771.2 296.3,771.2 282.3,793.7 		"/>
		<rect x="293.3" y="788.2" width="13" height="5.5"/>
		<rect x="382.6" y="788.8" width="13" height="5.5"/>
		<path class="st19" d="M411.8,782.4c0,5-4.2,9.1-9.4,9.1h-113c-5.2,0-9.4-4.1-9.4-9.1v-72.6c0-5,4.2-9.1,9.4-9.1h113
			c5.2,0,9.4,4.1,9.4,9.1V782.4z"/>
		<polygon class="st19" points="282.3,793.7 282.3,797.2 406.6,797.2 406.6,794.3 		"/>
		<line class="st20" x1="406.6" y1="794.3" x2="425.8" y2="771.2"/>
		<g id="Layer_3">
			<polygon class="st2" points="342.5,728.1 348.4,734.7 351,732.5 356,740.8 352.8,752.3 349.9,754 345.8,763.2 344,764.2 
				343.8,760 342.1,762.3 338.4,754.3 337.4,755.9 333.7,742.5 335.5,739.9 335.5,738.6 337.8,737.1 			"/>
			<polygon class="st21" points="335.5,739.9 335.5,742.1 334.8,740.8 			"/>
			<polygon class="st21" points="336.7,737.8 337.8,737.1 336.9,738.9 			"/>
			<polygon class="st21" points="342.5,728.1 345.2,742.7 355.4,742.7 356,740.8 351,732.5 348.4,734.6 			"/>
			<polyline class="st22" points="345.2,742.7 342.1,762.3 343.8,760 344,764.2 345.8,763.2 349.9,754 352.8,752.3 355.4,742.7 
				345.2,742.7 			"/>
			<polygon class="st22" points="338.4,754.3 339.7,752.1 339.7,757.2 			"/>
			<polyline class="st23" points="350.1,736.5 342.5,728.1 336.9,738.9 			"/>
			<polyline class="st23" points="349.9,754 345.8,763.2 344,764.2 343.5,754.9 			"/>
			<polyline class="st23" points="343.8,760 342.1,762.3 338.4,754.3 			"/>
			<polyline class="st23" points="339.7,752.1 337.4,755.9 333.7,742.5 335.5,739.9 			"/>
			<polyline class="st23" points="337.4,755.9 333.7,742.5 335.5,739.9 335.5,738.6 337.8,737.1 335.5,738.6 335.5,742.1 			"/>
			<polyline class="st23" points="342.5,728.1 348.4,734.7 351,732.5 356,740.8 352.8,752.3 347.8,755.2 			"/>
			<line class="st24" x1="330.7" y1="742.7" x2="358.3" y2="742.7"/>
		</g>
		<path class="st12" d="M413,753l-11.4,2.6c0,0-4.4,4.2,4.4,2.9l7.4-1.8l-13.9,3.1c0,0-2.9,3.6,0.3,3.2c0.9-0.1,2.4-0.4,4.1-0.7
			c4.3-0.8,9.8-1.9,9.8-1.9l-10.2,1.9c0,0-1.6,0.5-1.5,1.3c0,0.8,0.5,1.1,1.3,1.1c0.8,0,10.7-1.5,10.7-1.5l-8.4,1.3
			c0,0-0.4,0.2-0.3,0.8c0.1,0.6,0.5,0.6,0.9,0.6c0.3,0,6-1.1,6-1.1"/>
		<path class="st2" d="M433.5,739.9l10.1-9.2C443.6,730.6,445,748.9,433.5,739.9z"/>
		<line class="st25" x1="436.9" y1="736.8" x2="442.2" y2="758.9"/>
		<polyline class="st26" points="434.3,739.1 430.2,742.7 431.5,749.1 		"/>
	</g>
</g>
<g id="Echarpe">
	<g>
		<path class="st14" d="M389.4,668c0,0-27.9,25.4-55.8,7.3c-27.9-18.1-61.1,9.2-61.1,9.2l1.1,13.3l16.9,1.4c0,0,11.3-13.2,30.3-12.3
			c13.3,0.7,28.9,13.4,56.9-1.4c13.8-7.3,15.7-17,15.7-17L389.4,668z"/>
	</g>
</g>
</svg>
