<?xml version="1.0" encoding="utf-8"?>
<!-- Generator: Adobe Illustrator 22.0.1, SVG Export Plug-In . SVG Version: 6.00 Build 0)  -->
<svg version="1.1" id="Calque_1" xmlns="http://www.w3.org/2000/svg" xmlns:xlink="http://www.w3.org/1999/xlink" x="0px" y="0px"
	 viewBox="0 0 1920 1080" preserveAspectRatio="none" xml:space="preserve">
<style type="text/css">
	.st0{fill:#5CB5E6;}
	.st1{fill:#9ED7F2;}
	.st2{fill:#FFFFFF;}
	.st3{fill:#E7F6FD;}
	.st4{fill:#D6E8F2;}
	.st5{fill:#BEE1F5;}
	.st6{fill:#00425B;}
	.st7{fill:#76CBCD;}
	.st8{fill:#F05A22;}
	<!-- Animation -->
    @keyframes nuageD {
		0%{
			transform: translate(0%,0%);
		}
		25% {
			transform: translate(1.5%,0.5%);
		}
		50% {
			transform: translate(3%,1%);
		}
		75% {
			transform: translate(4.5%,0.5%);
		}
		100% {
			transform: translate(6%,0%);
		}
    }
    @keyframes nuageG {
		0%{
			transform: translate(0%,0%);
		}
		25% {
			transform: translate(-1.5%,0.5%);
		}
		50% {
			transform: translate(-3%,1%);
		}
		75% {
			transform: translate(-4.5%,0.5%);
		}
		100% {
			transform: translate(-6%,0%);
		}
    }
	@keyframes bateau {
		0%{
			transform: translateX(0)  rotate(0deg);
		}
		25%{
			transform:  translateX(37vw) rotate(-18deg);
						transform-origin: 0% 45%;
		}
		75%{
			transform:  translateX(112vw) rotate(0deg);
		}
		100% {
			transform:  translateX(150vw) rotate(0deg);
		}
	}
	#Nuage_droite{
		position: relative;
        animation: nuageD 2.5s infinite alternate linear;
    }
	#Nuage_gauche{
		position: relative;
        animation: nuageG 2s infinite alternate linear;
    }
	#Bateau{
		position: relative;
        animation: bateau 5s infinite linear;
	}
</style>
<g id="Fond">
	<rect class="st0" width="1920" height="1080"/>
</g>
<g id="Nuage_droite">
	<g>
		<path class="st1" d="M1456.9,395.6c-3,1.7-6.4,2.7-10,2.7c-3.1,0-6.1-0.8-8.7-2.1c-5.2,9.2-15.1,15.4-26.4,15.3
			c-16.7-0.1-30.1-13.7-30-30.3c0-0.6,0.1-1.1,0.1-1.7c-3.1,1-6.4,1.6-9.9,1.6c-5.2,0-10.1-1.4-14.4-3.7c-1,3-1.5,6.2-1.5,9.5
			c-0.1,17.5,14,31.7,31.4,31.8c4.3,0,8.4-0.8,12.1-2.3c6.5,17,22.8,29.1,42.1,29.2c18.4,0.1,34.3-10.8,41.5-26.6
			C1471.1,415.9,1461.3,407.1,1456.9,395.6z"/>
		<path class="st1" d="M1702,402c-9.4-0.1-18-3.5-24.6-9.2c-3.2,13.3-15.2,23.2-29.5,23.1c-11.1-0.1-20.8-6.2-25.9-15.2
			c-8,3.9-17.1,6.2-26.6,6.1c-21.5-0.1-40.2-11.6-50.6-28.7c-4.3,3.2-9.1,5.8-14.2,7.7c-1.2,11.8-7.8,21.9-17.2,28.1
			c4,0.5,8.1,0.8,12.3,0.8c15.6,0.1,30.3-3.4,43.5-9.6c13.8,16.8,34.6,27.6,58,27.7c25,0.2,47.3-11.9,61.1-30.6
			c4.6,1.5,9.5,2.3,14.6,2.4c14,0.1,26.7-5.8,35.5-15.3c-2.2-0.4-4.3-1-6.4-1.8C1725.1,396.4,1714.2,402.1,1702,402z"/>
		<path class="st2" d="M1425.2,307.8c11.2,0.1,21.3,5,28.2,12.8c5.2-26.9,28.9-47.2,57.3-47c20.3,0.1,38.1,10.7,48.3,26.6
			c10.2-8,23.1-12.8,37.1-12.7c18.9,0.1,35.7,9.1,46.6,22.9c2.9-0.7,5.9-1.1,9-1.1c14.6,0.1,27.2,8.3,33.6,20.3
			c5.2-2.6,11.1-4.1,17.3-4c9.2,0.1,17.7,3.4,24.3,8.9c4.7-3.1,10.3-4.9,16.4-5c-8.6-12.7-23.1-21-39.5-21.1c-5.7,0-11.1,1-16.2,2.7
			c-13.7-17.7-35.1-29.2-59.2-29.3c-1.7,0-3.4,0.1-5.1,0.2c-13.1-40.7-51-70.2-96.1-70.5c-48.8-0.3-89.8,33.8-99.9,79.6
			c-0.8,0-1.5-0.1-2.3-0.1c-20.6-0.1-38.2,12.7-45.2,30.8c4.4,1.1,8.4,3.2,11.8,6C1397.9,315.7,1410.6,307.7,1425.2,307.8z"/>
		<path class="st3" d="M1459.6,362.2l0.1,0.1c0.2-0.4,0.5-0.8,0.7-1.2c-0.1-0.1-0.1-0.2-0.2-0.4
			C1460,361.2,1459.8,361.7,1459.6,362.2z"/>
		<path class="st3" d="M1357.6,377.3c4.3,2.4,9.2,3.7,14.4,3.7c3.5,0,6.8-0.6,9.9-1.6c0,0.6-0.1,1.1-0.1,1.7
			c-0.1,16.7,13.3,30.2,30,30.3c11.3,0.1,21.2-6.1,26.4-15.3c2.6,1.3,5.6,2.1,8.7,2.1c3.7,0,7-1,10-2.7
			c4.4,11.5,14.3,20.3,26.4,23.3c2.9,0.7,5.9,1.1,9,1.1c7.8,0.1,15-2.2,21.1-6.2c9.4-6.1,16-16.3,17.2-28.1
			c5.1-1.9,9.9-4.5,14.2-7.7c10.4,17.1,29.1,28.6,50.6,28.7c9.6,0.1,18.6-2.2,26.6-6.1c5.2,9,14.8,15.1,25.9,15.2
			c14.3,0.1,26.3-9.8,29.5-23.1c6.6,5.7,15.2,9.2,24.6,9.2c12.2,0.1,23.1-5.6,30.2-14.4c2,0.8,4.1,1.4,6.4,1.8
			c1.5,0.3,3.1,0.4,4.7,0.4c16.7,0.1,30.2-13.3,30.4-30c0.1-16.7-13.3-30.2-30-30.3c-0.1,0-0.3,0-0.4,0c-6,0-11.7,1.9-16.4,5
			c-6.6-5.5-15-8.8-24.3-8.9c-6.2,0-12.1,1.4-17.3,4c-6.4-12-19-20.2-33.6-20.3c-3.1,0-6.1,0.4-9,1.1
			c-10.9-13.8-27.6-22.7-46.6-22.9c-14-0.1-26.9,4.7-37.1,12.7c-10.3-15.9-28-26.4-48.3-26.6c-28.4-0.2-52.1,20.1-57.3,47
			c-6.9-7.8-17-12.7-28.2-12.8c-14.5-0.1-27.2,7.9-33.8,19.8c-3.4-2.8-7.4-4.8-11.8-6c-2.3-0.6-4.7-0.9-7.2-0.9
			c-16.7-0.1-30.3,13.3-30.4,30C1342,362.1,1348.3,372.1,1357.6,377.3z M1459.7,362.3l-0.1-0.1c0.2-0.5,0.5-1,0.7-1.5
			c0.1,0.1,0.2,0.2,0.2,0.4C1460.2,361.5,1459.9,361.9,1459.7,362.3z M1588.6,334.3c0.5,6.5,3.4,12.5,7.9,16.8
			c4.5,4.2,10.6,6.7,16.7,6.7c6.1,0.1,12.2-2.3,16.8-6.5c4.6-4.2,7.5-10.2,8.1-16.7c0.3,3.2-0.2,6.6-1.3,9.7c-1.2,3.1-3,6-5.3,8.5
			c-4.6,5-11.5,7.8-18.3,7.8c-6.9,0-13.7-3-18.2-8c-2.3-2.5-4.1-5.4-5.2-8.6C1588.8,340.9,1588.3,337.5,1588.6,334.3z M1521.7,330.4
			c0.4,4.5-0.3,9.1-1.8,13.4c-1.6,4.3-4.1,8.3-7.3,11.7c-6.4,6.9-15.8,10.8-25.3,10.7c-9.5-0.1-18.9-4.1-25.2-11.1
			c-3.2-3.5-5.6-7.5-7.2-11.8c-1.4-4.4-2.1-9-1.6-13.5c0.7,8.9,4.7,17.3,10.9,23.2c6.3,5.9,14.6,9.3,23.1,9.3
			c8.5,0.1,16.9-3.2,23.2-9C1516.8,347.7,1520.8,339.4,1521.7,330.4z"/>
		<path class="st4" d="M1595,352.6c4.6,5,11.4,8,18.2,8c6.9,0,13.7-2.8,18.3-7.8c2.3-2.5,4.1-5.4,5.3-8.5c1.1-3.2,1.6-6.5,1.3-9.7
			c-0.6,6.5-3.5,12.5-8.1,16.7s-10.7,6.6-16.8,6.5c-6.1,0-12.2-2.5-16.7-6.7c-4.5-4.3-7.4-10.3-7.9-16.8c-0.3,3.2,0.1,6.6,1.2,9.8
			C1591,347.2,1592.7,350.1,1595,352.6z"/>
		<path class="st4" d="M1487.3,362.5c-8.5,0-16.8-3.4-23.1-9.3c-6.3-5.9-10.2-14.2-10.9-23.2c-0.5,4.5,0.2,9.1,1.6,13.5
			c1.6,4.3,4,8.4,7.2,11.8c6.3,7,15.7,11,25.2,11.1s18.9-3.9,25.3-10.7c3.2-3.4,5.7-7.4,7.3-11.7c1.5-4.4,2.2-9,1.8-13.4
			c-0.9,8.9-4.9,17.3-11.2,23C1504.1,359.3,1495.7,362.6,1487.3,362.5z"/>
	</g>
</g>
<g id="Nuage_gauche">
	<path class="st1" d="M472.2,507.7c-8.3,11.1-21.6,18.4-36.6,18.4c-15.7,0-29.5-7.9-37.7-20c-8.2,8-19.4,13-31.8,13
		c-15.2,0-28.7-7.5-37-18.9c-5.2,9.4-15.3,15.8-26.8,15.8c-15.8,0-28.7-11.9-30.4-27.2c-5.6,6.7-14.1,11-23.5,11
		c-11.6,0-21.6-6.4-26.9-15.9c-4,4.5-9.9,7.4-16.5,7.4c-2.7,0-5.2-0.5-7.6-1.3c4.3,12.3,16,21.1,29.8,21.1c5.3,0,10.4-1.3,14.8-3.7
		c8.9,13.1,23.9,21.6,40.9,21.6c5.9,0,11.6-1.1,16.8-3c12.5,8.8,27.7,14,44.1,14c18.8,0,36-6.8,49.4-18.1c8.9,8.6,21,13.9,34.3,13.9
		C447.2,535.8,464.2,524.3,472.2,507.7z"/>
	<path class="st1" d="M226.2,447.9c-0.4,0-0.9,0-1.3,0.1C225.3,447.9,225.8,447.9,226.2,447.9L226.2,447.9z"/>
	<path class="st1" d="M219.9,448.7c0.7-0.2,1.3-0.3,2-0.4C221.2,448.5,220.5,448.6,219.9,448.7z"/>
	<path class="st1" d="M222.2,448.3c0.7-0.1,1.5-0.2,2.2-0.3C223.6,448.1,222.9,448.2,222.2,448.3z"/>
	<path class="st1" d="M217,449.6c-0.4,0.1-0.7,0.2-1.1,0.4l0,0C216.3,449.8,216.7,449.7,217,449.6z"/>
	<path class="st1" d="M217.4,449.4c0.7-0.2,1.4-0.4,2.1-0.6C218.8,449,218.1,449.2,217.4,449.4z"/>
	<path class="st2" d="M263.5,433.9c-3.3,1.4-6.4,3.1-9.3,5.2c2.7,0.5,5.3,1.4,7.7,2.6C262.2,439,262.8,436.4,263.5,433.9z"/>
	<path class="st2" d="M486.5,440h0.1c3.9,0,7.6,1,10.7,2.8c-0.6-12.5-8.5-23.2-19.6-27.7c5.5,6,8.8,14.1,8.8,22.9
		C486.6,438.6,486.5,439.3,486.5,440z"/>
	<path class="st2" d="M343.1,418.9c4.9-10.3,15.4-17.5,27.6-17.5c12.5,0,23.3,7.5,28,18.3c2.3-0.8,4.8-1.3,7.4-1.3
		c5.9,0,11.2,2.3,15.2,6c5.2-12.1,17.2-20.5,31.2-20.5c1.6,0,3.2,0.1,4.8,0.3c-1.5-26-23.1-46.6-49.4-46.6
		c-21.1,0-39,13.2-46.2,31.7c-5.7-1.4-11.7-2.1-17.9-2.1c-17.1,0-32.8,5.6-45.5,15c2.9-0.6,5.9-0.9,9-0.9
		C321.8,401.4,334.8,408.2,343.1,418.9z"/>
	<path class="st2" d="M221.5,454.4c1.3-2.4,2.9-4.5,4.7-6.5c-0.4,0-0.9,0-1.3,0.1c-0.2,0-0.3,0-0.5,0c-0.7,0.1-1.5,0.2-2.2,0.3
		c-0.1,0-0.2,0-0.3,0.1c-0.7,0.1-1.3,0.2-2,0.4c-0.1,0-0.2,0-0.3,0.1c-0.7,0.2-1.4,0.4-2.1,0.6c-0.1,0-0.2,0.1-0.4,0.1
		c-0.4,0.1-0.7,0.3-1,0.4C218,451.1,219.9,452.6,221.5,454.4z"/>
	<path class="st3" d="M221.5,483.8c5.2,9.5,15.3,15.9,26.9,15.9c9.4,0,17.9-4.3,23.5-11c1.7,15.3,14.7,27.2,30.4,27.2
		c11.5,0,21.6-6.4,26.8-15.8c8.3,11.5,21.7,18.9,37,18.9c12.4,0,23.6-4.9,31.8-13c8.2,12,22,20,37.7,20c15,0,28.2-7.2,36.6-18.4
		c5.1-6.8,8.3-15.2,8.9-24.2c1.8,0.4,3.6,0.7,5.5,0.7c12.2,0,22.1-9.9,22.1-22.1c0-8.3-4.6-15.5-11.4-19.3
		c-3.2-1.8-6.8-2.8-10.7-2.8h-0.1c0-0.7,0.1-1.3,0.1-2c0-8.8-3.3-16.8-8.8-22.9c-5.2-5.7-12.3-9.7-20.4-10.8
		c-1.6-0.2-3.2-0.3-4.8-0.3c-14,0-26,8.4-31.2,20.5c-4-3.7-9.3-6-15.2-6c-2.6,0-5.1,0.5-7.4,1.3c-4.7-10.8-15.5-18.3-28-18.3
		c-12.2,0-22.7,7.2-27.6,17.5c-8.4-10.6-21.3-17.5-35.9-17.5c-3.1,0-6.1,0.3-9,0.9c-16.6,3.3-30,15.6-34.7,31.6
		c-0.8,2.5-1.3,5.1-1.6,7.8c-2.4-1.2-5-2.1-7.7-2.6c-1.9-0.4-3.9-0.6-5.9-0.6c-8.7,0-16.5,3.6-22.1,9.4l0,0
		c-1.8,1.9-3.4,4.1-4.7,6.5c-1.6-1.7-3.4-3.2-5.5-4.4l0,0c-3.2-1.9-7-2.9-11-2.9c-12.2,0-22.1,9.9-22.1,22.1
		c0,9.5,6.1,17.7,14.5,20.8c2.4,0.9,4.9,1.3,7.6,1.3C211.5,491.2,217.4,488.4,221.5,483.8z M393.8,456.8c0.6,6.4,3.4,12.3,7.9,16.4
		s10.4,6.5,16.4,6.5s12-2.3,16.4-6.5c4.5-4.1,7.3-10.1,7.9-16.4c0.3,3.2-0.2,6.5-1.2,9.6c-1.1,3.1-2.9,5.9-5.1,8.4
		c-4.5,4.9-11.2,7.7-17.9,7.7c-6.7,0-13.4-2.8-17.9-7.7c-2.3-2.4-4-5.3-5.1-8.4C394,463.2,393.5,460,393.8,456.8z M326.2,440.9
		c0.3,3.9,2.1,7.6,4.9,10.2s6.5,4.1,10.2,4c3.7,0,7.4-1.5,10.2-4c2.8-2.6,4.5-6.2,4.9-10.2c0.2,2-0.1,4-0.8,5.9
		c-0.7,1.9-1.8,3.7-3.2,5.2c-2.8,3.1-6.9,4.8-11.1,4.8s-8.3-1.8-11.1-4.8c-1.4-1.5-2.5-3.3-3.2-5.2
		C326.3,444.9,326,442.8,326.2,440.9z M268.6,472.3c4.7,0,9.3-1.8,12.8-5s5.7-7.8,6.1-12.8c0.2,2.5-0.1,5-0.9,7.4
		c-0.9,2.4-2.2,4.6-4,6.5c-3.5,3.8-8.7,6-13.9,6c-5.2,0-10.4-2.2-13.9-6c-1.8-1.9-3.1-4.1-4-6.5c-0.8-2.4-1.2-4.9-0.9-7.4
		c0.4,4.9,2.6,9.5,6.1,12.8C259.3,470.5,263.9,472.4,268.6,472.3z"/>
	<path class="st4" d="M330.1,452c2.8,3.1,6.9,4.8,11.1,4.8s8.3-1.8,11.1-4.8c1.4-1.5,2.5-3.3,3.2-5.2c0.6-1.9,1-3.9,0.8-5.9
		c-0.3,3.9-2.1,7.6-4.9,10.2s-6.5,4.1-10.2,4c-3.7,0-7.4-1.5-10.2-4c-2.8-2.6-4.5-6.2-4.9-10.2c-0.2,2,0.1,4,0.8,5.9
		C327.6,448.7,328.7,450.5,330.1,452z"/>
	<path class="st4" d="M400.2,474.7c4.5,4.9,11.2,7.7,17.9,7.7c6.7,0,13.4-2.8,17.9-7.7c2.3-2.4,4-5.3,5.1-8.4c1-3.1,1.5-6.4,1.2-9.6
		c-0.6,6.4-3.4,12.3-7.9,16.4s-10.4,6.5-16.4,6.5s-12-2.3-16.4-6.5c-4.5-4.1-7.3-10.1-7.9-16.4c-0.3,3.2,0.2,6.5,1.2,9.6
		C396.1,469.4,397.9,472.3,400.2,474.7z"/>
	<path class="st4" d="M250.7,462c0.9,2.4,2.2,4.6,4,6.5c3.5,3.8,8.7,6,13.9,6s10.4-2.2,13.9-6c1.8-1.9,3.1-4.1,4-6.5
		c0.8-2.4,1.2-4.9,0.9-7.4c-0.4,4.9-2.6,9.5-6.1,12.8c-3.5,3.2-8.1,5.1-12.8,5c-4.7,0-9.3-1.8-12.8-5c-3.5-3.2-5.7-7.8-6.1-12.8
		C249.5,457,249.9,459.6,250.7,462z"/>
</g>
<g id="Bateau">
		<path class="st6" d="M-100.6,1041.6h-14.1c-3.8,0-6.9,3-6.9,6.9v5.9h26.8L-100.6,1041.6z"/>
		<path class="st7" d="M-25.5,1046.5c-2.7-2.8-19.4-15.8-19.4-15.8l-37.6,18.6l56.9,2.4L-25.5,1046.5z"/>
		<path class="st6" d="M-4,1048.2c-0.7,2.5-1.9,6-3.7,9.9c-0.8,1.7-1.7,3.4-2.8,5.1c-0.2,0.3-0.4,0.6-0.6,0.9
			c-0.8,1.2-1.6,2.4-2.5,3.6h-119l-0.5-3.6l-0.1-0.9l-0.7-5l0.2-0.2l4.9-4.4l4-3.6h37.3l26.6-3.8l57.6-1.7
			C-3.3,1045.1-3.5,1046.3-4,1048.2z"/>
		<path class="st7" d="M-4,1048.2h-57.6l-25.5,5.5h-41.8l4-3.6h37.3l25.5-5.5h58.7C-3.3,1045.1-3.5,1046.3-4,1048.2z"/>
		<path class="st8" d="M-132.6,1067.7l2,14.7h89.4c12.7,0,21.6-6.9,27.6-14.7H-132.6z"/>
		<path class="st6" d="M-97.1,1070.6H-141l1.2,2.8c0.9,2.2,3.1,3.6,5.5,3.6h39.9L-97.1,1070.6z"/>
</g>
<g id="Iceberg">
	<path class="st2" d="M1328.4,566.7c2,1.3,3,1.8,3.7,2.1C1330.9,568,1329.7,567.3,1328.4,566.7z"/>
	<path class="st2" d="M1480.1,792.7c0.7,2.1,1.8,5.4,3.2,10.1C1482.5,799.8,1481.4,796.4,1480.1,792.7z"/>
	<path class="st2" d="M1498.9,852.2c0,0.1,0.1,0.2,0.1,0.4c-5.3-13.8-9.7-26.2-12.5-36.3l0,0
		C1489.2,829.5,1496.9,847.1,1498.9,852.2z"/>
	<path class="st2" d="M1469.6,769.2c1.4,2.8,8.2,17.7,10,22.2C1477.1,784.8,1473.7,777.3,1469.6,769.2z"/>
	<path class="st2" d="M1542.7,958.7c-5.9-14.3-12-28.9-18-43.2c0,0,0,0,0,0.1C1526.3,919.3,1541,954.6,1542.7,958.7z"/>
	<path class="st2" d="M1572.7,1039.9c-6.4-22-17.5-50.7-29.8-80.6c1.3,3.2,17.1,43.1,17.8,45.2
		C1561.5,1006.4,1570.9,1034,1572.7,1039.9z"/>
	<path class="st2" d="M1451.6,736.6c2,3.5,15.7,28,17.8,32.1C1464.4,758.8,1458.3,748,1451.6,736.6z"/>
	<path class="st2" d="M1307.9,564.3c1.5,0,2.9-0.1,4.4-0.2C1310.8,564.1,1309.4,564.2,1307.9,564.3z"/>
	<path class="st2" d="M1337.8,574.4c5.5,6.6,18.3,23,25.2,32.2C1351.9,591.8,1342.9,580.4,1337.8,574.4z"/>
	<path class="st2" d="M1364.9,609c6.1,8.2,33.4,46.1,37.7,52.3C1389.2,642.1,1376,624,1364.9,609z"/>
	<path class="st2" d="M1402.8,661.6c3.5,5,11.4,16.7,14.5,21.2C1412.4,675.6,1407.6,668.5,1402.8,661.6z"/>
	<path class="st2" d="M1188.3,583.3c2.3,1,4.5,1.8,6.4,2C1192.6,584.9,1190.5,584.3,1188.3,583.3z"/>
	<path class="st2" d="M1418.2,684.2c2.7,4.1,30.7,48,33.2,52C1441.4,719.5,1430,701.7,1418.2,684.2z"/>
	<path class="st2" d="M540,883.4c-1.5,9.3-0.6,17.6-0.1,25.8C539.7,900.2,539.2,891.4,540,883.4z"/>
	<path class="st2" d="M1053.7,406c2.6,3.8,19.9,29.9,24.6,37.1c-18.9-29-31.3-47.4-41.8-61c0,0,0,0.1,0.1,0.1
		C1036.5,382.2,1051.1,402.2,1053.7,406z"/>
	<path class="st2" d="M982,330.6c0,0,22.6,18.5,24.4,20c1.2,1.1,9.7,8.2,18.6,17.9c-6.1-6.7-12.2-12.4-19.5-18.6
		c-20.7-17.6-57.1-45.7-77.7-61.4c6.2,4.8,12.5,9.6,14.8,11.4C947.8,303.8,982,330.6,982,330.6z"/>
	<path class="st2" d="M1019.1,865.9c-6-67.4-50.9-112.6-50.9-112.6s-110.9-81-109.4-145.5c1.5-63.7,52.8-325.1,54-330.8
		c-0.1-0.1-0.2-0.2-0.2-0.2s-64,53.9-85,62.9s-33,38-55,109.9s-98.9,291.7-125.9,334.7c-23.8,37.8-75.4,50.9-96.3,75.3
		c0,0,21.3,36.1,17.3,52.1s-31.3,25.8-31.3,25.8s0.1-0.3,0.4-0.9c-2,5.2-5.2,10.6-10,16.5c-26,32-79,106.9-81,120.9
		c-0.2,1.2-0.3,3.2-0.3,6h473c7.3-11.5,28.4-43.4,57.2-75.8C1011.6,963.8,1025.1,933.3,1019.1,865.9z"/>
	<path class="st2" d="M1573,1040.8c1.2,4.2,4.2,16.8,4.7,22.1c0.4,3.7,0.4,7.4,0.3,11.1c-0.1,1.9-0.4,4-0.9,6h0.6
		c0.3-3.7,0.5-6.9,0.6-9.3C1578.5,1063.5,1576.5,1053.2,1573,1040.8z"/>
	<path class="st2" d="M1287.6,567.7c-6.6,1.5-13.3,3.2-20,4.9l0,0C1271.3,571.7,1281.6,569.1,1287.6,567.7z"/>
	<path class="st2" d="M1175.1,575.3c-0.7-0.5-1.3-1.1-2-1.6C1173.8,574.3,1174.5,574.9,1175.1,575.3
		C1175,575.2,1175,575.3,1175.1,575.3z"/>
	<path class="st2" d="M1124.9,514.7c0.1,0.1,0.1,0.2,0.2,0.3c-2.3-3.4-4.6-7-7.1-10.7c-15.9-24.5-28.8-44.5-39.6-61.1
		c4.6,7,18.9,29.1,23,35.4C1105.5,484.9,1119.9,507.3,1124.9,514.7z"/>
	<path class="st2" d="M1241,578.4L1241,578.4c-2.1,0.3-4.1,0.6-6,0.7c-6,0.5-11.4,2.1-16.5,3.6l0,0
		C1230.3,579.8,1233.5,579.7,1241,578.4z"/>
	<path class="st2" d="M1149.2,548.3c-0.4-0.5-0.8-1-1.2-1.6c0.4,0.5,0.7,0.9,1,1.2C1149,548.1,1149.1,548.2,1149.2,548.3z"/>
	<path class="st2" d="M1290.7,567c0.3-0.1,0.6-0.1,0.9-0.2C1291.3,566.9,1291,566.9,1290.7,567z"/>
	<path class="st5" d="M1577.7,1062.9c-0.5-5.3-3.6-17.9-4.7-22.1c0-0.1,0-0.2-0.1-0.2c0-0.2-0.1-0.4-0.2-0.7
		c-1.8-5.9-11.2-33.4-12-35.5s-16.5-41.9-17.8-45.2c0-0.1-0.1-0.1-0.1-0.2c0-0.1-0.1-0.2-0.1-0.3c-1.7-4.1-16.4-39.4-18-43.2
		c0,0,0,0,0-0.1c-1.8-4.3-22.9-56-25.7-62.9c-0.1-0.1-0.1-0.3-0.1-0.4c-2-5.1-9.6-22.7-12.4-35.8l0,0c-1.1-5.4-2.2-9.8-3.2-13.5
		c-1.3-4.7-2.4-8-3.2-10.1c-0.1-0.2-0.1-0.4-0.2-0.6c-0.1-0.2-0.2-0.4-0.3-0.7c-1.8-4.5-8.6-19.4-10-22.2v-0.1
		c0-0.1-0.1-0.2-0.2-0.4c-2.2-4.1-15.8-28.6-17.8-32.1c0-0.1-0.1-0.1-0.1-0.2c0,0-0.1-0.1-0.1-0.2c-2.4-4-30.4-47.9-33.2-52
		c0-0.1-0.1-0.1-0.1-0.2c-0.2-0.3-0.5-0.7-0.9-1.3c-3-4.5-11-16.2-14.5-21.2l0,0c0-0.1-0.1-0.2-0.2-0.2
		c-4.4-6.2-31.6-44.1-37.7-52.3l0,0c-0.6-0.7-1.2-1.6-1.9-2.5c-6.9-9.1-19.8-25.5-25.2-32.2c0,0,0,0,0-0.1c-4-4.9-4.1-4.8-5.6-5.5
		c-0.7-0.3-1.8-0.8-3.7-2.1l0,0c-4.8-3.1-10.5-2.9-16.1-2.6c-1.5,0.1-3,0.2-4.4,0.2l0,0c-6.5,0.2-11.7,1.5-16.2,2.5
		c-0.3,0.1-0.6,0.1-0.9,0.2l0,0c-0.8,0.2-1.9,0.4-3.1,0.7c-6.1,1.4-16.4,4-20,4.9l0,0c-4.4,1.1-19.2,4.5-26.6,5.8l0,0
		c-7.5,1.3-10.6,1.4-22.5,4.3l0,0c-11.9,3-17.8,3.3-23.8,2.6l0,0c-1.9-0.2-4.2-1-6.4-2c-4.6-2.1-9.6-5.5-13.2-8l-0.1-0.1
		c-0.5-0.4-1.2-0.9-1.9-1.5c-6.5-5.7-20-20.7-23.8-25.4c-0.1-0.1-0.2-0.2-0.3-0.3c-0.3-0.3-0.6-0.8-1-1.2
		c-4.9-6.4-18-24.7-22.9-31.8c-0.1-0.1-0.1-0.2-0.2-0.3c-5.1-7.4-19.4-29.8-23.5-36.1c-4.1-6.3-18.4-28.4-23-35.4l0,0
		c0,0,0-0.1-0.1-0.1c-4.7-7.2-22-33.3-24.6-37.1c-2.6-3.8-17.2-23.8-17.2-23.8s0-0.1-0.1-0.1c-3.5-4.8-7.5-9.4-11.4-13.6
		c-9-9.6-17.4-16.8-18.6-17.9c-1.8-1.5-24.4-20-24.4-20s-34.2-26.8-39.3-30.8c-2.3-1.8-8.6-6.6-14.8-11.4
		c-7.6-5.9-15.1-11.6-15.1-11.6s0,0,0,0.1c-1.1,5.7-52.5,267.1-54,330.8c-1.5,64.4,109.4,145.5,109.4,145.5s44.9,45.2,50.9,112.6
		s-7.5,97.9-43.5,138.4c-28.8,32.3-49.9,64.2-57.2,75.8h658.7c0.5-2,0.8-4.1,0.9-6C1578.1,1070.3,1578,1066.6,1577.7,1062.9z"/>
	<path class="st5" d="M567.7,911.7c4-16-17.3-52.1-17.3-52.1l0,0c-6.7,6.1-9.4,14.4-10.3,23.8c-0.8,8-0.4,16.9-0.1,25.8l0,0
		c0.5,15.9-2.2,24.8-3.2,27.5c-0.2,0.6-0.4,0.9-0.4,0.9S563.7,927.6,567.7,911.7z"/>
</g>
</svg>
