<?xml version="1.0" encoding="utf-8"?>
<!-- Generator: Adobe Illustrator 22.0.1, SVG Export Plug-In . SVG Version: 6.00 Build 0)  -->
<svg version="1.1" id="Calque_1" xmlns="http://www.w3.org/2000/svg" xmlns:xlink="http://www.w3.org/1999/xlink" x="0px" y="0px"
	 viewBox="0 0 1920 1080" preserveAspectRatio="none" xml:space="preserve">
<style type="text/css">
	.st0{fill:#4582A3;}
	.st1{fill:#FFFFFF;}
	.st2{fill:#BEE1F5;}
	.st3{fill:#EAEFF2;}
	.st4{fill:#99B2BF;}
	.st5{fill:#52E7FF;}


	@keyframes bulled{
		0% {
			top: 20vh;
		}
		100% {
			top: -55vh;
		}
	}
	@keyframes bulles1d{
		0% {
			left: 0vw;
		}
		20%{
			left: -6vw;
		}
		40%{
			left: -3vw;
		}
		60%{
			left: -9vw;
		}
		80%{
			left: -6vw;
		}
		100%{
			left: -12vw;
		}
	}
	@keyframes bulles2d{
		0% {
			left: -3vw;
		}
		20%{
			left: 0vw;
		}
		40%{
			left: -6vw;
		}
		60%{
			left: -3vw;
		}
		80%{
			left: -9vw;
		}
		100%{
			left: -6vw;
		}
	}
	@keyframes bulles3d{
		0% {
			left: -4vw;
		}
		20%{
			left: -2vw;
		}
		40%{
			left: -7vw;
		}
		60%{
			left: -5vw;
		}
		80%{
			left: -7vw;
		}
		100%{
			left: -5vw;
		}
	}
	#Bubulle_1_d{
		position: relative;
        animation: bulled 3s linear infinite, bulles1d 3s infinite cubic-bezier(0.25,0.1,0.25,1);
	}
	#Bubulle_2_d{
		position: relative;
        animation: bulled 4s linear infinite, bulles2d 4s infinite cubic-bezier(0.25,0.1,0.25,1);	
	}
	#Bubulle_3_d{
		position: relative;
        animation: bulled 2s linear infinite, bulles3d 2s infinite cubic-bezier(0.25,0.1,0.25,1);	
	}

	@keyframes bulleg{
		0% {
			top: 50vh;
		}
		100% {
			top: -100vh;
		}
	}
	@keyframes bulles1g{
		0% {
			left: 0vw;
		}
		20%{
			left: -6vw;
		}
		40%{
			left: -3vw;
		}
		60%{
			left: -9vw;
		}
		80%{
			left: -6vw;
		}
		100%{
			left: -12vw;
		}
	}
	@keyframes bulles2g{
		0% {
			left: -3vw;
		}
		20%{
			left: 0vw;
		}
		40%{
			left: -6vw;
		}
		60%{
			left: -3vw;
		}
		80%{
			left: -9vw;
		}
		100%{
			left: -6vw;
		}
	}
	@keyframes bulles3g{
		0% {
			left: -4vw;
		}
		20%{
			left: -2vw;
		}
		40%{
			left: -7vw;
		}
		60%{
			left: -5vw;
		}
		80%{
			left: -7vw;
		}
		100%{
			left: -5vw;
		}
	}
	#Bubulle_1_g{
		position: relative;
        animation: bulleg 3s linear infinite, bulles1g 3s infinite cubic-bezier(0.25,0.1,0.25,1);
	}
	#Bubulle_2_g{
		position: relative;
        animation: bulleg 4s linear infinite, bulles2g 4s infinite cubic-bezier(0.25,0.1,0.25,1);	
	}
	#Bubulle_3_g{
		position: relative;
        animation: bulleg 2s linear infinite, bulles3g 2s infinite cubic-bezier(0.25,0.1,0.25,1);	
	}
</style>
<g id="Fond_1_">
	<path class="st0" d="M1576.8,11.9c0,0.2,0,0.3,0,0.5c0,0,0,0,0,0c-0.4,4.6-0.9,9.3-1.4,13.9c-0.9,8-3.1,27.3-3.3,29
		c0,0.4-0.2,1.9-0.5,4c0,0,0,0.1,0,0.1c-0.3,2.4-0.7,6.3-1.3,10.8c-0.8,6.6-1.6,12.9-1.6,13.3c-0.1,0.7-3.4,27-3.4,27
		c-0.4,2.9-1.1,8.3-1.9,14.8l-1.7,13.5l-1.1,8.7c-0.6,4.2-1.1,8.5-1.7,12.8l-0.7,5.4c0,0-0.2,1.3-0.5,3.5
		c-1.3,9.6-2.6,19.3-3.9,28.9c-0.2,1.6-0.4,2.8-0.5,3.5c-0.1,0.6-0.2,1.6-0.4,2.9c-1.3,9.6-2.6,19.1-3.9,28.4
		c-0.1,0.8-0.2,1.3-0.2,1.3l-0.1,0.7c-2.1,15.2-4.2,29.9-6.2,43.5l0,0.2c0,0.1,0,0.1,0,0.2c-5.3,36.9-9.9,65.9-12.3,77.7
		c-0.1,0.3-0.1,0.6-0.2,0.9c-0.9,4.9-1.8,9.5-2.3,12.1c-0.2,1.3-0.6,3.4-1.1,6c-0.1,0.5-0.2,1.1-0.3,1.8c-1.2,6.7-2.5,14.2-4,22.1
		c-0.1,0.3-0.1,0.6-0.1,0.8c0,0,0,0,0,0.1c-0.5,2.8-1.1,5.7-1.6,8.7c-1.4,7.8-3.5,19-5.1,25.5c-2.9,13.5-6.1,27.5-9.8,41.1
		c-0.2,0.7-0.4,1.5-0.6,2.2c0,0,0,0.1,0,0.1c-0.4,1.6-0.8,3.1-1.3,4.7c-0.5,1.7-1,3.5-1.6,5.5c-4.8,16.3-10.4,31.7-16.7,44.7
		c0,0.1-0.1,0.2-0.1,0.2c-3.8,7.8-7.9,14.7-12.2,20.4c-0.3,0.4-0.5,0.7-0.7,1c-1.8,2.5-1.2,1.7-2.5,3.1c-0.4,0.5-0.8,1-1.3,1.4
		c-0.2,0.2-0.3,0.4-0.5,0.6c-3.6,4.2-20.7,15.8-25.4,19.6c-0.4,0.3-0.8,0.7-1.2,1c-4.7,3.9-11.7,10.3-17.2,15.5
		c-0.1,0.1-0.2,0.2-0.3,0.3c-6.1,5.9-19,20.3-25.3,27.6c0,0,0,0,0,0c-0.2,0.3-0.5,0.6-0.7,0.8c-6.2,7.2-13.5,16.5-13.5,16.5
		l-7.1,9.4c0,0,0,0,0,0.1c0,0.7,0.1,5.3,0.3,13.1c0.2,7.8,0.3,16.7,0.4,19.2c0.1,4.1,0.5,26.8,0.7,37.9c0.1,3.2,0.1,6.5,0.2,9.9
		c0.2,11.5,0.7,35.6,1,50.2c0.9,47.1,1.9,99.7,2.6,144.5l0,0.2l0,0.3c0,0.4,0,0.8,0,1.2c0,0.5,0,1.1,0,1.7
		c0.2,9.5,0.3,18.6,0.4,27.2c0,0.5,0,1.5,0,2.9c0.1,5.3,0.2,10.5,0.2,15.4c0.1,8.1,0.1,16-0.1,23.7c0,2.6-0.1,5-0.2,6.9
		c0,0.1,0,0.2,0,0.3c-0.5,15.4-1.5,29.9-3.1,43.5c-0.1,0.6-0.1,1.1-0.2,1.5c0,0.1,0,0.2,0,0.4c-0.1,0.7-0.2,1.4-0.2,2.1
		c0,0.1,0,0.2,0,0.3c-0.9,7.3-1.9,14.4-3.1,21.2c-0.3,1.6-0.5,2.8-0.8,4.8c0,0,0,0.1,0,0.1c-0.1,0.3-0.1,0.5-0.2,0.8
		c0,0.3-0.1,0.5-0.2,0.8H1920V0h-342.3c-0.1,1-0.2,2.1-0.3,3.3C1577.4,5,1577.2,7.7,1576.8,11.9z"/>
	<path class="st0" d="M630,1072.3C630,1072.3,630,1072.3,630,1072.3l-6.8-7.5c-28.6-29.7-148.5-156-164.4-200.3c0,0,0,0,0,0
		c0,0-0.4-0.6-0.7-2c-0.8-2.2-1.2-4.1-1.2-5.7c0-1.7,0.1-4.2,0.2-7.6c0,0,0,0,0,0c0,0,0,0,0,0c0.5-10.4,1.7-28.4,3.3-51.9l2.1-31.7
		c0,0,0,0,0,0l3.4-54.2c0,0,0,0,0-0.1c0.1-1.3,2.8-49.9,3-54.8c0-0.2,0-0.4,0-0.6c0.2-4.2,2.6-56.4,2.7-58.4c0,0,0-0.1,0-0.1
		l2.3-78.1l0.6-48.4c0,0,0-0.1,0-0.1l-0.6-57.3c0-0.1,0-0.1,0-0.2c-0.1-2.3-2-49.3-2.8-61.9c0-0.5-0.1-1.1-0.1-1.6
		c-0.6-7.8-4-43.3-5.6-59.6c-0.3-2.7-0.5-5.4-0.8-8c0-0.1,0-0.2,0-0.2l0-0.1c-2-20.4-3.8-40.2-5.4-59.2l0-0.2c0,0,0,0,0-0.1
		c-3.4-38.9-6.1-74.5-8.2-105.4c0-0.1,0-0.3,0-0.4c0-0.1,0-0.2,0-0.3c-1.6-23.9-2.9-45-3.8-62.6c-0.2-3.9-0.4-6.2-0.4-6.2
		s-1.9-36.9-1.4-44.6c0-1,0-2,0-2.8H0v1080h632.1C630.9,1075.5,630.1,1072.5,630,1072.3z"/>
</g>
<g id="Bubulle_1_d">
	<g id="bubulle_1_d">
		<path class="st5" d="M1555.4,965.8c0,0,0-0.3,0-0.9c0-0.3,0.1-0.7,0.1-1.1c0-0.4,0.2-0.9,0.3-1.5c0.3-1.1,0.9-2.3,1.8-3.6
			c0.9-1.3,2.2-2.5,3.9-3.5c1.6-1,3.7-1.8,5.9-2c0.6,0,1.1-0.1,1.7-0.1c0.6,0,1.1,0,1.7,0.1c1.2,0.1,2.3,0.4,3.5,0.8
			c1.1,0.5,2.3,1,3.3,1.8c1,0.8,2,1.6,2.8,2.7c0.8,1,1.4,2.2,1.9,3.4c0.4,1.3,0.7,2.6,0.7,3.9c0,1.2-0.3,2.7-0.7,3.9
			c-0.4,1.3-1.1,2.4-1.9,3.4c-0.8,1-1.7,1.9-2.8,2.7c-1,0.7-2.2,1.3-3.3,1.8c-2.3,0.8-4.7,1.1-6.9,0.8c-2.2-0.3-4.2-1-5.9-2
			c-1.6-1-3-2.3-3.9-3.5c-0.9-1.3-1.5-2.5-1.8-3.6c-0.1-0.5-0.3-1-0.3-1.5c-0.1-0.4-0.1-0.8-0.1-1.1
			C1555.5,966.2,1555.4,965.8,1555.4,965.8z M1555.4,965.8c0,0,0,0.3,0.1,0.9c0,0.3,0.1,0.7,0.2,1.1c0.1,0.4,0.2,0.9,0.4,1.4
			c0.4,1.1,0.9,2.3,1.9,3.5c0.9,1.2,2.2,2.5,3.9,3.4c1.7,0.9,3.7,1.6,5.8,1.8c2.2,0.2,4.5-0.1,6.6-1c2.2-0.9,4.2-2.4,5.6-4.3
			c0.7-1,1.3-2.1,1.7-3.2c0.4-1.2,0.6-2.3,0.6-3.6c0-1.2-0.2-2.4-0.6-3.6c-0.4-1.2-1-2.2-1.7-3.2c-1.5-1.9-3.5-3.4-5.6-4.3
			c-1.1-0.4-2.2-0.8-3.3-0.9c-0.5-0.1-1.1-0.1-1.7-0.2c-0.5,0-1.1,0-1.6,0c-2.2,0.2-4.2,0.8-5.8,1.8c-1.7,0.9-3,2.2-3.9,3.4
			c-0.9,1.2-1.5,2.5-1.9,3.5c-0.2,0.5-0.3,1-0.4,1.4c-0.1,0.4-0.1,0.8-0.2,1.1C1555.5,965.5,1555.4,965.8,1555.4,965.8z"/>
	</g>
</g>
<g id="Bubulle_2_d">
	<g id="bubulle_3_d">
		<path class="st5" d="M1494.3,1029.3c0,0,0-0.4,0.1-1.2c0-0.4,0.1-0.9,0.2-1.4c0.1-0.6,0.3-1.2,0.4-1.9c0.4-1.4,1.1-3,2.4-4.7
			c1.2-1.6,2.9-3.2,5-4.5c2.1-1.3,4.7-2.2,7.6-2.6c0.7-0.1,1.4-0.1,2.2-0.1c0.7,0,1.5,0,2.2,0.1c1.5,0.1,3,0.6,4.5,1.1
			c1.5,0.6,2.9,1.3,4.2,2.3c1.3,1,2.5,2.1,3.5,3.4c1,1.3,1.8,2.8,2.4,4.4c0.5,1.6,0.8,3.3,0.9,5c0,1.7-0.3,3.4-0.9,5
			c-0.6,1.6-1.4,3.1-2.4,4.4c-1,1.3-2.2,2.5-3.5,3.5c-1.3,1-2.8,1.7-4.2,2.3c-3,1.1-6.1,1.4-8.9,1.1c-2.9-0.3-5.5-1.3-7.6-2.6
			c-2.1-1.3-3.8-2.9-5-4.5c-1.2-1.6-1.9-3.3-2.4-4.7c-0.2-0.7-0.4-1.3-0.4-1.9c-0.1-0.6-0.2-1-0.2-1.4
			C1494.3,1029.7,1494.3,1029.3,1494.3,1029.3z M1494.3,1029.3c0,0,0,0.4,0.1,1.2c0,0.4,0.1,0.9,0.2,1.4c0.1,0.6,0.3,1.2,0.5,1.9
			c0.5,1.4,1.2,3,2.4,4.6c1.2,1.6,2.9,3.2,5,4.4c2.1,1.2,4.7,2.1,7.5,2.3c2.8,0.2,5.8-0.2,8.6-1.3c2.8-1.2,5.4-3.1,7.3-5.6
			c0.9-1.3,1.7-2.7,2.2-4.2c0.5-1.5,0.7-3.1,0.8-4.7c0-1.6-0.3-3.2-0.8-4.7c-0.5-1.5-1.3-2.9-2.2-4.2c-1.9-2.5-4.5-4.4-7.3-5.6
			c-1.4-0.5-2.9-1-4.3-1.1c-0.7-0.1-1.5-0.1-2.2-0.2c-0.7,0-1.4,0-2.1,0.1c-2.8,0.3-5.4,1.1-7.5,2.3c-2.2,1.2-3.8,2.8-5,4.4
			c-1.2,1.6-1.9,3.2-2.4,4.6c-0.2,0.7-0.4,1.3-0.5,1.9c-0.1,0.6-0.2,1-0.2,1.4C1494.3,1028.9,1494.3,1029.3,1494.3,1029.3z"/>
	</g>
</g>
<g id="Bubulle_3_d">
	<g id="bubulle_2_d">
		<path class="st5" d="M1502.6,916.3c0,0,0-0.2,0-0.6c0-0.4,0.1-1,0.3-1.7c0.2-0.7,0.6-1.6,1.2-2.5c0.6-0.9,1.5-1.7,2.6-2.4
			c1.1-0.7,2.5-1.2,4-1.4c0.4,0,0.8-0.1,1.2-0.1c0.4,0,0.8,0,1.2,0.1c0.8,0.1,1.6,0.3,2.4,0.5c0.8,0.3,1.6,0.7,2.3,1.2
			c0.7,0.5,1.4,1.1,1.9,1.8c0.6,0.7,1,1.5,1.3,2.4c0.3,0.9,0.5,1.8,0.5,2.8c0,0.8-0.2,1.8-0.5,2.7c-0.3,0.9-0.8,1.7-1.3,2.4
			c-0.6,0.7-1.2,1.3-1.9,1.8c-0.7,0.5-1.5,0.9-2.3,1.2c-1.6,0.6-3.3,0.7-4.8,0.5c-1.5-0.2-2.9-0.7-4-1.4c-1.1-0.7-2-1.6-2.6-2.4
			c-0.6-0.9-1-1.7-1.2-2.5c-0.2-0.7-0.3-1.3-0.3-1.7C1502.6,916.5,1502.6,916.3,1502.6,916.3z M1502.6,916.3c0,0,0,0.2,0,0.6
			c0,0.4,0.1,1,0.3,1.7c0.2,0.7,0.6,1.6,1.3,2.4c0.6,0.8,1.5,1.7,2.7,2.3c1.1,0.6,2.5,1.1,3.9,1.2c1.5,0.1,3-0.1,4.5-0.7
			c1.4-0.6,2.8-1.6,3.8-2.9c0.5-0.7,0.9-1.4,1.1-2.2c0.3-0.8,0.4-1.5,0.4-2.4c0-0.8-0.1-1.6-0.4-2.4c-0.3-0.8-0.7-1.5-1.1-2.2
			c-1-1.3-2.3-2.3-3.8-2.9c-0.7-0.3-1.5-0.5-2.2-0.6c-0.4-0.1-0.8-0.1-1.1-0.1c-0.4,0-0.7,0-1.1,0c-1.5,0.1-2.8,0.5-4,1.2
			c-1.1,0.6-2,1.4-2.7,2.3c-0.7,0.8-1,1.7-1.3,2.4c-0.2,0.7-0.3,1.3-0.3,1.7C1502.6,916.1,1502.6,916.3,1502.6,916.3z"/>
	</g>
</g>
<g id="Bubulle_1_g">
	<g>
		<path class="st5" d="M231.9,648.1c0,0,0-0.4-0.1-1.1c0-0.4-0.1-0.8-0.2-1.4c0-0.3-0.1-0.6-0.1-0.9c-0.1-0.3-0.2-0.6-0.3-0.9
			c-0.4-1.3-1-2.9-2.1-4.5c-1.1-1.6-2.6-3.2-4.5-4.5c-2-1.3-4.4-2.2-7.1-2.5c-0.7,0-1.4-0.1-2-0.1c-0.7,0.1-1.4,0.1-2.1,0.2
			c-1.4,0.2-2.8,0.7-4.1,1.2c-1.3,0.6-2.6,1.4-3.7,2.4c-1.1,1-2.1,2.1-3,3.4c-0.8,1.3-1.5,2.7-1.9,4.1c-0.4,1.5-0.6,3-0.6,4.5
			c0,1.6,0.2,3.1,0.6,4.5c0.5,1.5,1.1,2.9,1.9,4.1c0.9,1.3,1.8,2.4,3,3.4c1.1,0.9,2.4,1.8,3.7,2.4c2.6,1.2,5.5,1.6,8.2,1.4
			c2.7-0.3,5.1-1.2,7.1-2.5c2-1.3,3.5-2.9,4.5-4.5c1.1-1.6,1.7-3.2,2.1-4.5c0.1-0.3,0.2-0.7,0.3-0.9c0.1-0.3,0.1-0.6,0.1-0.9
			c0.1-0.5,0.2-1,0.2-1.4C231.9,648.5,231.9,648.1,231.9,648.1z M231.9,648.1c0,0,0,0.4-0.1,1.1c0,0.4-0.1,0.8-0.1,1.4
			c0,0.3-0.1,0.6-0.1,0.9c-0.1,0.3-0.2,0.6-0.2,1c-0.4,1.3-1,2.9-2,4.6c-1.1,1.6-2.5,3.3-4.5,4.6c-2,1.4-4.4,2.4-7.2,2.7
			c-2.7,0.3-5.7,0-8.5-1.2c-1.4-0.6-2.7-1.4-4-2.4c-1.2-1-2.3-2.2-3.2-3.5c-0.9-1.3-1.6-2.8-2.1-4.4c-0.5-1.6-0.7-3.2-0.7-4.8
			c0-1.6,0.3-3.3,0.7-4.8c0.5-1.5,1.2-3,2.1-4.4c0.9-1.3,2-2.5,3.2-3.5c1.2-1,2.5-1.8,4-2.4c1.4-0.6,2.8-1,4.3-1.2
			c0.7-0.1,1.4-0.1,2.1-0.1c0.7,0,1.4,0.1,2.1,0.1c2.7,0.4,5.2,1.4,7.2,2.7c2,1.4,3.5,3,4.5,4.6c1.1,1.6,1.7,3.2,2,4.6
			c0.1,0.3,0.2,0.7,0.2,1c0.1,0.3,0.1,0.6,0.1,0.9c0.1,0.5,0.1,1,0.1,1.4C231.9,647.7,231.9,648.1,231.9,648.1z"/>
	</g>
</g>
<g id="Bubulle_2_g">
	<g>
		<path class="st5" d="M224.3,535.1c0,0,0-0.2,0-0.6c0-0.2,0-0.4-0.1-0.7c0-0.3-0.1-0.6-0.2-1c-0.2-0.7-0.5-1.5-1.1-2.4
			c-0.6-0.8-1.4-1.7-2.4-2.3c-1-0.7-2.3-1.1-3.7-1.2c-0.3,0-0.7,0-1.1,0c-0.4,0-0.8,0-1.1,0.1c-0.7,0.1-1.4,0.4-2.1,0.7
			c-1.4,0.7-2.6,1.7-3.4,3c-0.4,0.7-0.7,1.4-1,2.1c-0.2,0.7-0.3,1.6-0.3,2.3c0,0.9,0.1,1.6,0.3,2.4c0.2,0.7,0.6,1.5,1,2.1
			c0.8,1.3,2,2.4,3.4,3c1.4,0.6,2.8,0.9,4.3,0.8c1.4-0.1,2.7-0.6,3.7-1.2c1.1-0.7,1.8-1.5,2.4-2.3c0.6-0.8,0.9-1.7,1.1-2.4
			c0.1-0.4,0.2-0.7,0.2-1c0-0.3,0.1-0.5,0.1-0.7C224.2,535.3,224.3,535.1,224.3,535.1z M224.3,535.1c0,0,0,0.2,0,0.6
			c0,0.2,0,0.4-0.1,0.7c0,0.3-0.1,0.6-0.2,1c-0.2,0.7-0.5,1.5-1.1,2.4c-0.5,0.9-1.3,1.7-2.4,2.5c-1,0.7-2.3,1.3-3.8,1.5
			c-1.4,0.2-3.1,0-4.6-0.6c-0.8-0.3-1.5-0.7-2.1-1.3c-0.7-0.5-1.2-1.2-1.7-1.9c-0.5-0.7-0.9-1.5-1.1-2.4c-0.3-0.8-0.4-1.8-0.4-2.6
			c0-1.8,0.5-3.5,1.5-5c0.5-0.7,1.1-1.3,1.7-1.9c0.7-0.5,1.4-1,2.1-1.3c0.8-0.3,1.5-0.5,2.3-0.6c0.4-0.1,0.8-0.1,1.1-0.1
			c0.4,0,0.8,0,1.1,0.1c1.5,0.2,2.8,0.8,3.8,1.5c1,0.7,1.8,1.6,2.4,2.5c0.6,0.9,0.9,1.7,1.1,2.4c0.1,0.4,0.2,0.7,0.2,1
			c0,0.3,0.1,0.5,0.1,0.7C224.2,534.9,224.3,535.1,224.3,535.1z"/>
	</g>
</g>
<g id="Bubulle_3_g">
	<g>
		<path class="st5" d="M175.8,584.6c0,0,0-0.3-0.1-0.9c0-0.3-0.1-0.6-0.1-1c0-0.4-0.2-0.9-0.3-1.4c-0.3-1-0.8-2.3-1.6-3.5
			c-0.8-1.2-2-2.5-3.5-3.5c-1.5-1-3.4-1.7-5.5-1.9c-0.5,0-1-0.1-1.6,0c-0.5,0-1.1,0.1-1.6,0.2c-1.1,0.1-2.1,0.5-3.1,1
			c-2,0.9-3.8,2.5-5.1,4.4c-0.6,1-1.1,2-1.5,3.2c-0.3,1.1-0.5,2.3-0.5,3.5c0,1.3,0.2,2.4,0.5,3.5c0.4,1.1,0.8,2.2,1.5,3.2
			c1.3,1.9,3.1,3.5,5.1,4.4c2,0.9,4.2,1.3,6.3,1.1c2-0.2,3.9-0.9,5.5-1.9c1.5-1,2.7-2.2,3.5-3.5c0.8-1.2,1.3-2.5,1.6-3.5
			c0.1-0.5,0.3-1,0.3-1.4c0.1-0.4,0.1-0.8,0.1-1C175.7,584.9,175.8,584.6,175.8,584.6z M175.8,584.6c0,0,0,0.3,0,0.9
			c0,0.3,0,0.6-0.1,1c0,0.4-0.1,0.9-0.3,1.4c-0.3,1-0.7,2.3-1.6,3.5c-0.8,1.3-2,2.5-3.5,3.6c-1.5,1.1-3.4,1.9-5.6,2.1
			c-2.1,0.3-4.4,0-6.6-0.9c-1.1-0.4-2.1-1.1-3.1-1.8c-0.9-0.8-1.8-1.7-2.5-2.7c-0.7-1-1.2-2.2-1.6-3.4c-0.4-1.2-0.6-2.5-0.6-3.7
			c0-1.3,0.2-2.6,0.6-3.8c0.4-1.2,0.9-2.3,1.6-3.4c0.7-1,1.5-2,2.5-2.7c1-0.7,2-1.4,3.1-1.8c1.1-0.4,2.2-0.8,3.3-0.9
			c0.6-0.1,1.1-0.1,1.6-0.1c0.6,0,1.1,0.1,1.6,0.1c2.1,0.3,4,1.1,5.5,2.1c1.5,1.1,2.7,2.3,3.5,3.6c0.8,1.3,1.3,2.5,1.6,3.5
			c0.1,0.5,0.2,1,0.3,1.4c0.1,0.4,0.1,0.8,0.1,1C175.7,584.3,175.8,584.6,175.8,584.6z"/>
	</g>
</g>
<g id="Iceberg">
	<g>
		<path class="st1" d="M1511,453.9c-0.5,2.3-1,4.5-1.6,6.8c-0.5,2-1,4-1.5,6c-0.9,3.4-1.5,6.2-2.2,8.7c3.7-13.6,6.9-27.6,9.8-41.1
			c0,0.1-0.1,0.3-0.1,0.4C1514.2,439.7,1512.7,446.5,1511,453.9z"/>
		<path class="st1" d="M1486.2,531.1c-0.2,0.5-0.4,0.9-0.7,1.4c6.3-13,11.9-28.4,16.7-44.7c-0.7,2.3-1.6,5-2.6,8.2
			C1495.1,509.5,1489.8,523.2,1486.2,531.1z"/>
		<path class="st1" d="M1377.4,650.4c0,1.4,0.1,6.8,0.3,12.9c-0.2-7.8-0.3-12.4-0.3-13.1C1377.4,650.2,1377.4,650.2,1377.4,650.4
			L1377.4,650.4z"/>
		<path class="st1" d="M1379,730.3c-0.1-3.4-0.1-6.7-0.2-9.9c0,2,0.1,3.6,0.1,4.7C1378.9,726.2,1378.9,728,1379,730.3z"/>
		<path class="st1" d="M1380,782.5c0.2,11.3,0.4,21.4,0.4,21.8c0,0.6,0.7,35.4,0.9,47.1c0,0.4,0,0.6,0,0.7c0,0.3,0,1.4,0.1,2.9
			c0,0.1,0,0.2,0,0.2l0,0c0.1,3.9,0.2,10.5,0.3,14.3c0.1,5,0.2,12.8,0.3,15.4l0.4,25.1c0,1.5,0,2.8,0.1,3.4c0,1,0.1,3.4,0.1,6
			l0.1,5.6c-0.7-44.8-1.7-97.4-2.6-144.5c0,0.6,0,1.3,0,1.9C1380,782.4,1380,782.4,1380,782.5z"/>
		<polygon class="st1" points="458.8,864.5 458.8,864.5 458.8,864.5 		"/>
		<path class="st1" d="M474.6,470.8C474.6,470.8,474.6,470.8,474.6,470.8L474.6,470.8L474.6,470.8z"/>
		<path class="st1" d="M462.6,765.5C462.6,765.5,462.6,765.5,462.6,765.5L462.6,765.5L462.6,765.5z"/>
		<path class="st1" d="M445.5,2.5c0.4,0,0.8,0,1.2,0c1.2,0,2.3,0,3.5,0c1.9,0,3.8,0,5.7,0c2.6,0,5.2,0,7.8,0c3.3,0,6.5,0,9.8,0
			c3.9,0,7.8,0,11.8,0c4.5,0,9.1,0,13.6,0c5.1,0,10.2,0,15.4,0c5.7,0,11.4,0,17,0c6.2,0,12.4,0,18.6,0c6.7,0,13.4,0,20.1,0
			c7.2,0,14.3,0,21.5,0c7.6,0,15.2,0,22.8,0c8,0,16,0,24,0c8.4,0,16.8,0,25.2,0c8.7,0,17.5,0,26.2,0c9.1,0,18.1,0,27.2,0
			c9.3,0,18.7,0,28,0c9.6,0,19.2,0,28.8,0c9.8,0,19.7,0,29.5,0c10,0,20.1,0,30.1,0c10.2,0,20.4,0,30.6,0c10.3,0,20.7,0,31,0
			c7.1,0,14.3,0,21.4,0l0.1-0.1l0.4,0c0.4-0.6,0.9-1.4,1.5-2.4h-473c0,0.9,0,1.8,0,2.8C445.4,2.7,445.5,2.6,445.5,2.5z"/>
		<path class="st1" d="M469.1,655.9c0,0.2,0,0.4,0,0.6c0-0.2,0-0.3,0-0.3C469.1,656.1,469.1,656,469.1,655.9z"/>
		<path class="st1" d="M471.7,597.4c0,0,0,0.1,0,0.1C471.7,597.5,471.7,597.4,471.7,597.4L471.7,597.4z"/>
		<path class="st1" d="M474,413.3c0,0.1,0,0.1,0,0.2L474,413.3C474,413.4,474,413.3,474,413.3z"/>
		<path class="st1" d="M466,711.3C466,711.3,466,711.3,466,711.3L466,711.3C466,711.3,466,711.3,466,711.3z"/>
		<path class="st1" d="M1539.8,297.4C1539.8,297.4,1539.8,297.4,1539.8,297.4C1539.8,297.4,1539.8,297.4,1539.8,297.4
			c-0.2,1.3-0.4,2.6-0.6,3.9c0,0.1,0,0.2-0.1,0.4c-1.6,10.7-5,32.6-6,38.6c-0.1,0.5-0.2,1-0.3,1.5c0,0.3-0.1,0.5-0.1,0.8
			c-0.1,0.4-0.2,0.9-0.3,1.4c-0.7,3.8-1.6,8.7-2.4,13.3c0.1-0.3,0.1-0.6,0.2-0.9c2.4-11.8,7-40.8,12.3-77.7
			c-0.6,4.1-1.2,8.1-1.8,12.2C1540.5,293,1540.1,295.2,1539.8,297.4z"/>
		<path class="st1" d="M460.5,797.3c-1.6,23.5-2.8,41.5-3.3,51.9c0.7-11.5,3.3-51.7,3.3-51.7L460.5,797.3z"/>
		<path class="st1" d="M471.1,349.8c0,0.5,0.1,1.1,0.1,1.6C471.2,350.8,471.2,350.3,471.1,349.8
			C471.1,349.9,471.1,349.8,471.1,349.8z"/>
		<path class="st1" d="M457.1,849.3c-0.2,3.3-0.2,5.9-0.2,7.6c0,1.6,0.4,3.5,1.2,5.7C457.4,860.4,456.7,856.2,457.1,849.3z"/>
		<path class="st1" d="M1520.6,408.7c0.6-2.9,1.1-5.8,1.6-8.7c-0.2,1.2-0.5,2.5-0.7,3.7C1521.2,405.2,1520.9,406.9,1520.6,408.7z"/>
		<path class="st1" d="M1556.4,179c-0.9,6.7-1.9,14.4-2.5,19c1.3-9.6,2.6-19.2,3.9-28.9c-0.1,0.5-0.1,0.9-0.2,1.5
			C1557.3,172.5,1556.9,175.5,1556.4,179z"/>
		<path class="st1" d="M630,1072.3C630,1072.3,630,1072.3,630,1072.3C630,1072.3,630,1072.3,630,1072.3L630,1072.3z"/>
		<path class="st1" d="M1383,1006.8c-0.2,3.9-0.5,9.5-0.6,11.3c0,0.2,0,0.4,0,0.7c-0.4,6.8-1,14-1.4,19.9c0,0.2,0,0.3,0,0.4
			c0,0.2,0,0.4,0,0.6c-0.3,3.5-0.6,6.5-0.8,8.5c1.5-13.6,2.6-28.2,3.1-43.5C1383.1,1005.2,1383,1005.9,1383,1006.8
			C1383,1006.7,1383,1006.7,1383,1006.8z"/>
		<path class="st1" d="M1548.8,234.8l-6.2,43.5C1544.6,264.7,1546.7,250,1548.8,234.8z"/>
		<path class="st1" d="M1553,204.3c-1,7.2-3.3,23.7-3.9,28.4C1550.4,223.5,1551.7,214,1553,204.3z"/>
		<path class="st1" d="M1526.4,377.1c-1.2,6.6-3.3,18.4-4,22.1C1523.8,391.2,1525.2,383.8,1526.4,377.1z"/>
		<path class="st1" d="M1485.4,532.7c-3.5,7.1-9.5,16.5-12.2,20.4C1477.6,547.4,1481.6,540.4,1485.4,532.7z"/>
		<path class="st1" d="M1382.6,925.8c0,0.2,0,0.5,0,0.8c0-0.4,0-0.8,0-1.2L1382.6,925.8C1382.6,925.8,1382.6,925.8,1382.6,925.8z"/>
		<path class="st1" d="M1577.4,0.6c0,0,0.1,0.6,0,2.7c0.1-1.1,0.2-2.2,0.3-3.3h-0.6c-0.1,0.2-0.1,0.4-0.2,0.6L1577.4,0.6z"/>
		<path class="st1" d="M1378.8,1057.4c-0.5,3.6-1.1,7.6-1.7,11.5c-0.3,2-0.5,3.4-0.7,4.6c1.2-6.8,2.2-13.9,3.1-21.2
			C1379.3,1054,1379.1,1055.6,1378.8,1057.4C1378.8,1057.4,1378.8,1057.4,1378.8,1057.4z"/>
		<path class="st1" d="M1379.6,1052c0.1-0.7,0.2-1.4,0.2-2.1c0,0.1,0,0.2,0,0.4C1379.7,1050.9,1379.6,1051.4,1379.6,1052z"/>
		<path class="st1" d="M465.6,290.2c-0.4-4.3-0.7-7.3-0.8-8C465.1,284.8,465.3,287.5,465.6,290.2z"/>
		<path class="st1" d="M1560.6,147.5l-1.7,12.8C1559.5,156,1560,151.7,1560.6,147.5z"/>
		<path class="st1" d="M459.4,222.4c-0.2-3.1-7.6-96.7-8.2-105.4C453.2,147.9,456,183.5,459.4,222.4z"/>
		<path class="st1" d="M464.8,281.9l-5.4-59.2C461,241.7,462.8,261.4,464.8,281.9z"/>
		<path class="st1" d="M451.1,116.3c-0.4-6.1-2.9-46.9-3.8-62.6C448.2,71.4,449.4,92.4,451.1,116.3z"/>
		<path class="st1" d="M1383,949.4c0,0.6,0,1.1,0,1.5c0,0.3,0,0.7,0,1.2l0,3.1c0,0,0,0.1,0,0.3c-0.1-8.6-0.3-17.7-0.4-27.2
			c0,2.7,0.1,6,0.1,8.8L1383,949.4z"/>
		<path class="st1" d="M1383.2,962.3c0,1.3,0.1,7.2,0.1,8.9c0,0,0,0,0,0c0,3.4,0.1,7,0.1,10.7c0,0,0,0.1,0,0.1c0,0,0,0.1,0,0.2
			c0,3.9,0,7.8,0,11.4c0,0.1,0,0.1,0,0.2c0,0,0,0.1,0,0.2c0,1.2,0,2.4,0,3.5c0.2-7.7,0.2-15.6,0.1-23.7c-0.1-4.9-0.1-10-0.2-15.4
			c0,1,0,2.3,0,3.7C1383.2,962.1,1383.2,962.2,1383.2,962.3z"/>
		<path class="st2" d="M1576.9,0.6c0.1-0.2,0.1-0.4,0.2-0.6H918.4c-0.6,0.9-1.1,1.7-1.5,2.4L1576.9,0.6z"/>
		<path class="st3" d="M1505.1,477.6c0,0,0-0.1,0-0.1c-0.4,1.6-0.8,3.2-1.3,4.8C1504.3,480.8,1504.8,479.2,1505.1,477.6z"/>
		<path class="st3" d="M1469.9,557.2c-0.3,0.3-0.7,0.8-1.3,1.4C1469.1,558.2,1469.5,557.7,1469.9,557.2z"/>
		<path class="st3" d="M1375.5,1078.4c0,0.3-0.1,0.5-0.2,0.8C1375.4,1079,1375.5,1078.7,1375.5,1078.4z"/>
		<path class="st3" d="M1568.7,83.5c0-0.4,0.8-6.7,1.6-13.3c-1.6,13.3-4,32.8-5,40.2C1565.3,110.5,1568.6,84.3,1568.7,83.5z"/>
		<path class="st3" d="M1572.1,55.3c0.2-1.8,2.4-21,3.3-29c0.5-4.6,0.9-9.3,1.4-13.9c0,0,0,0,0,0c-0.9,9.8-4.1,37.6-5.2,47
			C1571.9,57.2,1572,55.7,1572.1,55.3z"/>
		<path class="st3" d="M1424,595.7c0.1-0.1,0.2-0.2,0.3-0.3c0,0,0,0-0.1,0.1C1424.2,595.5,1424.1,595.6,1424,595.7z"/>
		<path class="st3" d="M1398.7,623.3c-0.2,0.3-0.5,0.6-0.7,0.8C1398.2,623.8,1398.5,623.6,1398.7,623.3z"/>
		<path class="st3" d="M1441.5,579.9c0.4-0.3,0.8-0.7,1.2-1c0,0,0,0,0,0C1442.3,579.2,1441.9,579.5,1441.5,579.9z"/>
		<path class="st3" d="M1532.9,341.7c-0.1,0.7-0.2,1.4-0.4,2.2c0.1-0.6,0.2-1.1,0.3-1.4C1532.8,342.2,1532.9,342,1532.9,341.7z"/>
		<path class="st3" d="M1521.5,403.6c0,0.1,0,0.1,0,0.2c0.2-1.2,0.5-2.5,0.7-3.7c0,0,0,0,0-0.1c0-0.2,0.1-0.5,0.1-0.8
			c0.7-3.8,2.8-15.6,4-22.1c0.1-0.7,0.2-1.3,0.3-1.8C1525.1,384.1,1522.5,398.1,1521.5,403.6z"/>
		<path class="st3" d="M1539.8,297.4c-0.2,1-0.4,2.5-0.6,4.2c0-0.1,0-0.2,0.1-0.4C1539.4,300,1539.6,298.7,1539.8,297.4z"/>
		<path class="st3" d="M1379.8,1050.3C1379.8,1050.3,1379.8,1050.3,1379.8,1050.3c0-0.1,0-0.2,0-0.3c0-0.1,0-0.2,0-0.4
			c0.1-0.4,0.1-0.9,0.2-1.5c0.2-2,0.5-5,0.8-8.5C1380.6,1042,1380,1047.9,1379.8,1050.3z"/>
		<path class="st3" d="M1377.1,1069L1377.1,1069c0.6-3.9,1.2-8,1.7-11.5C1378.4,1059.9,1377.8,1064.2,1377.1,1069z"/>
		<path class="st3" d="M840.6,501.8c-84-272.5,75.1-498.3,75.1-498.3l0.8-1c-7.1,0-14.3,0-21.4,0c-10.3,0-20.7,0-31,0
			c-10.2,0-20.4,0-30.6,0c-10,0-20.1,0-30.1,0c-9.8,0-19.7,0-29.5,0c-9.6,0-19.2,0-28.8,0c-9.3,0-18.7,0-28,0c-9.1,0-18.1,0-27.2,0
			c-8.7,0-17.5,0-26.2,0c-8.4,0-16.8,0-25.2,0c-8,0-16,0-24,0c-7.6,0-15.2,0-22.8,0c-7.2,0-14.3,0-21.5,0c-6.7,0-13.4,0-20.1,0
			c-6.2,0-12.4,0-18.6,0c-5.7,0-11.4,0-17,0c-5.1,0-10.2,0-15.4,0c-4.5,0-9.1,0-13.6,0c-3.9,0-7.8,0-11.8,0c-3.3,0-6.5,0-9.8,0
			c-2.6,0-5.2,0-7.8,0c-1.9,0-3.8,0-5.7,0c-1.2,0-2.3,0-3.5,0c-0.4,0-0.8,0-1.2,0c0,0.1,0,0.2,0,0.3c-0.5,7.7,1.4,44.6,1.4,44.6
			s0.1,2.4,0.4,6.2c1,15.8,3.4,56.5,3.8,62.6c0,0.1,0,0.2,0,0.3c0,0.1,0,0.2,0,0.4c0.6,8.7,8,102.3,8.2,105.4c0,0.1,0,0.1,0,0.1
			l0,0.2l5.4,59.2l0,0.1c0,0,0,0.1,0,0.2c0.1,0.7,0.4,3.7,0.8,8c1.6,16.3,5,51.8,5.6,59.6c0,0,0,0.1,0,0.1c0,0.4,0.1,0.9,0.1,1.5
			c0.8,12.6,2.7,59.5,2.8,61.9c0,0.1,0,0.1,0,0.1l0,0.1l0.6,57.3l0,0l0,0.1l-0.6,48.4l-2.3,78.1l0,0c0,0,0,0,0,0.1
			c-0.1,2-2.5,54.2-2.7,58.4c0,0.1,0,0.2,0,0.2c0,0.1,0,0.2,0,0.3c-0.3,4.9-3,53.5-3,54.8c0,0,0,0,0,0l0,0l-3.4,54.2l0,0l0,0
			l-2.1,31.7l0,0.3c0,0-2.7,40.1-3.3,51.7c0,0,0,0,0,0c0,0,0,0,0,0c-0.4,7,0.3,11.1,0.9,13.3c0.4,1.4,0.7,2,0.7,2l0,0
			c0,0,116.9,15.6,145.9,67.6c29,52,29.4,100.8,27,119.9c-2.4,19.1-2.4,19.1-2.4,19.1s-2.2-2.3-6.1-6.3l6.8,7.5l0,0c0,0,0,0,0,0
			c0,0.1,0.8,3.1,2,7.7h380.9c-0.4-3.9-0.7-7.9-1.1-12C997.2,902.2,924.5,774.3,840.6,501.8z"/>
		<path class="st3" d="M1377.4,650.4L1377.4,650.4C1377.4,650.3,1377.4,650.4,1377.4,650.4z"/>
		<path class="st3" d="M1557.5,170.5C1557.5,170.5,1557.5,170.5,1557.5,170.5c0.1-0.4,0.1-0.9,0.2-1.4c0.3-2.1,0.5-3.5,0.5-3.5
			l0.7-5.4l1.7-12.8l1.1-8.7l1.7-13.5C1561.3,141.5,1558.4,164.3,1557.5,170.5z"/>
		<path class="st3" d="M1551.5,215c-0.8,5.5-5.2,37.1-6.3,45.3c-1.2,8.3-4.3,29.5-5.4,37.1c0.3-2.2,0.6-4.4,1-6.5
			c0.6-4.1,1.2-8.1,1.8-12.2c0-0.1,0-0.1,0-0.2l0-0.2l6.2-43.5l0.1-0.7c0,0,0.1-0.5,0.2-1.3c0.7-4.7,2.9-21.2,3.9-28.4
			c0.2-1.3,0.3-2.3,0.4-2.9c0.1-0.6,0.3-1.9,0.5-3.5c0.6-4.6,1.6-12.2,2.5-19C1554.7,191.5,1552.1,210.7,1551.5,215z"/>
		<path class="st3" d="M1509.4,460.6c0.6-2.2,1.1-4.5,1.6-6.8C1510.5,456.1,1509.9,458.4,1509.4,460.6z"/>
		<path class="st3" d="M1382.8,938.2c0.1,3.4,0.1,8.3,0.2,11.2l-0.2-12.3C1382.8,937.5,1382.8,937.8,1382.8,938.2z"/>
		<path class="st3" d="M1382.6,925.7l0-0.4l0-0.3l0-0.2l-0.1-5.6C1382.5,921.7,1382.6,924.2,1382.6,925.7z"/>
		<path class="st3" d="M1383,952c0,2.9,0.1,8.3,0.1,10c0-1.4,0-2.6,0-3.7c0-1.4,0-2.4,0-2.9c0-0.2,0-0.3,0-0.3L1383,952z"/>
		<path class="st3" d="M1381.9,885.5c0,1.7,0.2,13.4,0.3,14.8c0,0.9,0.1,6.1,0.2,9.7l-0.4-25.1
			C1381.9,885.1,1381.9,885.4,1381.9,885.5z"/>
		<path class="st3" d="M1380,782.5c0.3,17.1,0.8,40,0.8,40c0,1.9,0.3,15.9,0.3,17c0,1,0.2,9.2,0.2,11.8c-0.2-11.7-0.9-46.5-0.9-47.1
			C1380.4,803.9,1380.2,793.8,1380,782.5z"/>
		<path class="st3" d="M1381.4,855c0,0.1,0,0.2,0,0.3l0,0C1381.4,855.2,1381.4,855.1,1381.4,855z"/>
		<path class="st3" d="M1383,1006.7c0-0.7,0.1-1.4,0.1-2.1c0-0.1,0-0.2,0-0.3c0.1-1.9,0.1-4.3,0.2-6.9c0-1.1,0-2.3,0-3.5
			C1383.3,995.7,1383.2,1002.9,1383,1006.7z"/>
		<path class="st3" d="M1383.3,982.2c0,1.6,0,9.5,0,11.4C1383.4,990,1383.4,986.1,1383.3,982.2z"/>
		<path class="st3" d="M1383.3,982c0-3.7,0-7.3-0.1-10.7C1383.2,973,1383.3,980.5,1383.3,982z"/>
		<path class="st3" d="M1381.6,1028.8c-0.1,1.5-0.6,7.5-0.7,9.8c0.5-5.9,1-13.1,1.4-19.9C1382.1,1021.2,1381.7,1027.4,1381.6,1028.8
			z"/>
		<path class="st4" d="M1375.5,1078.4c0,0,0-0.1,0-0.1c0.4-1.9,0.6-3.2,0.8-4.8c0.2-1.2,0.4-2.6,0.7-4.6v0c0.7-4.7,1.3-9,1.7-11.5
			c0,0,0,0,0,0c0.3-1.8,0.5-3.4,0.7-5.1c0-0.1,0-0.2,0-0.3c0.1-0.6,0.1-1.1,0.2-1.7c0,0,0,0,0,0c0.3-2.4,0.8-8.3,1-10.7
			c0-0.2,0-0.4,0-0.6c0-0.1,0-0.3,0-0.4c0.2-2.2,0.6-8.2,0.7-9.8c0.1-1.5,0.5-7.6,0.7-10.1c0-0.3,0-0.5,0-0.7
			c0.1-1.8,0.5-7.4,0.6-11.3c0,0,0-0.1,0-0.1c0.2-3.8,0.3-11,0.3-12.8c0-0.1,0-0.1,0-0.2c0,0,0-0.1,0-0.2c0-1.8,0-9.7,0-11.4
			c0-0.1,0-0.1,0-0.2c0,0,0-0.1,0-0.1c0-1.5-0.1-9-0.1-10.7c0,0,0,0,0,0c0-1.7-0.1-7.6-0.1-8.9c0-0.1,0-0.2,0-0.3
			c0-1.7-0.1-7.1-0.1-10c0-0.5,0-0.9,0-1.2c0-0.4,0-0.9,0-1.5c0-2.9-0.1-7.8-0.2-11.2c0-0.3,0-0.7,0-1.1c0-2.9-0.1-6.2-0.1-8.8
			c0-0.6,0-1.2,0-1.7c0-0.3,0-0.5,0-0.8c0,0,0,0,0-0.1c0-1.5-0.1-4-0.1-6.4c0-2.5-0.1-4.9-0.1-6c0-0.6,0-1.9-0.1-3.4
			c-0.1-3.6-0.2-8.8-0.2-9.7c0-1.3-0.2-13.1-0.3-14.8c0-0.1,0-0.3,0-0.6c0-2.6-0.2-10.4-0.3-15.4c-0.1-3.8-0.2-10.4-0.3-14.3
			c0-0.1,0-0.2,0-0.3c0-1.5,0-2.6-0.1-2.9c0-0.1,0-0.4,0-0.7c-0.1-2.6-0.2-10.8-0.2-11.8c0-1.2-0.3-15.2-0.3-17c0,0-0.5-23-0.8-40
			c0,0,0-0.1,0-0.1c0-0.6,0-1.2,0-1.9c-0.3-14.6-0.7-38.7-1-50.2c0-2.3-0.1-4.1-0.1-5.2c0-1.1-0.1-2.7-0.1-4.7
			c-0.2-11.1-0.7-33.7-0.7-37.9c-0.1-2.6-0.2-11.4-0.4-19.2c-0.1-6-0.2-11.4-0.3-12.9c0,0,0-0.1,0-0.1c0-0.1,0-0.1,0-0.2
			c0-0.1,0-0.1,0-0.1l7.1-9.4c0,0,7.3-9.3,13.5-16.5c0.2-0.3,0.5-0.6,0.7-0.8c0,0,0,0,0,0c6.3-7.3,19.2-21.7,25.3-27.6
			c0.1-0.1,0.2-0.2,0.2-0.2c0,0,0,0,0.1-0.1c5.5-5.3,12.5-11.6,17.2-15.5c0.4-0.3,0.8-0.7,1.2-1c0,0,0,0,0,0
			c4.7-3.8,21.8-15.4,25.4-19.6c0.2-0.2,0.4-0.4,0.5-0.6c0.6-0.6,1-1.1,1.3-1.4c1.3-1.4,0.7-0.6,2.5-3.1c0.2-0.3,0.4-0.6,0.7-1
			c2.7-3.9,8.8-13.3,12.2-20.4c0-0.1,0.1-0.2,0.1-0.2c0.2-0.5,0.5-0.9,0.7-1.4c3.6-7.9,8.9-21.5,13.4-35.1c1-3.2,1.9-5.8,2.6-8.2
			c0.6-2,1.1-3.8,1.6-5.5c0.5-1.6,0.9-3.2,1.3-4.8c0.2-0.7,0.4-1.4,0.6-2.2c0.7-2.5,1.3-5.3,2.2-8.7c0.5-2,1-4,1.5-6
			c0.5-2.3,1.1-4.6,1.6-6.8c1.7-7.3,3.2-14.2,4.4-19.2c0-0.1,0.1-0.3,0.1-0.4c1.5-6.4,3.6-17.6,5.1-25.5c0.3-1.9,0.7-3.6,0.9-4.9
			c0-0.1,0-0.1,0-0.2c1-5.5,3.6-19.6,5.2-28.4c0.5-2.6,0.9-4.7,1.1-6c0.5-2.5,1.4-7.1,2.3-12.1c0.9-4.6,1.8-9.4,2.4-13.3
			c0.1-0.8,0.3-1.5,0.4-2.2c0.1-0.5,0.2-1,0.3-1.5c1-6.1,4.4-27.9,6-38.6c0.3-1.7,0.5-3.1,0.6-4.2c0,0,0,0,0,0c0,0,0,0,0,0
			c1.1-7.5,4.2-28.8,5.4-37.1c1.2-8.3,5.6-39.8,6.3-45.3c0.6-4.3,3.2-23.5,4.9-36c0.5-3.5,0.9-6.5,1.1-8.4c0,0,0-0.1,0-0.1
			c0.8-6.2,3.8-29,5.9-45.2c0.8-6.5,1.5-11.9,1.9-14.8c0.9-7.5,3.3-26.9,5-40.2c0.6-4.6,1-8.4,1.3-10.8c0,0,0-0.1,0-0.1
			c1.1-9.4,4.2-37.2,5.2-47c0-0.2,0-0.3,0-0.5c0.4-4.2,0.6-6.9,0.6-8.6c0.1-2.1,0-2.7,0-2.7l-0.5,0l-660,1.7l-0.4,0l-0.1,0.1l-0.8,1
			c0,0-159,225.8-75.1,498.3c84,272.5,156.7,400.4,171.3,566.2c0.4,4.1,0.7,8.1,1.1,12h362.3c0.1-0.3,0.1-0.5,0.2-0.8
			C1375.4,1078.9,1375.5,1078.7,1375.5,1078.4z"/>
		<path class="st4" d="M631.7,1052c2.4-19.1,2-67.9-27-119.9c-29-52-145.9-67.6-145.9-67.6c0,0,0,0,0,0
			c15.9,44.3,135.8,170.6,164.4,200.3c3.9,4.1,6.1,6.3,6.1,6.3S629.3,1071.1,631.7,1052z"/>
	</g>
</g>
</svg>
