<?xml version="1.0" encoding="utf-8"?>
<!-- Generator: Adobe Illustrator 22.0.1, SVG Export Plug-In . SVG Version: 6.00 Build 0)  -->
<svg version="1.1" id="Calque_1" xmlns="http://www.w3.org/2000/svg" xmlns:xlink="http://www.w3.org/1999/xlink" x="0px" y="0px"
	 viewBox="0 0 1920 1080" preserveAspectRatio="none" xml:space="preserve">
<style type="text/css">
	.st0{fill:none;}
	.st1{fill:#5CB5E6;}
	.st2{fill:#42210B;}
	.st3{fill:#F2ABA5;}
	.st4{fill:#1A3240;}
	.st5{fill:#8C6239;}
	.st6{opacity:0.5;}
	.st7{fill:#BF4F6C;}
	.st8{fill:#E86788;}
	.st9{fill:#603813;}
	.st10{fill:#39B54A;}
	.st11{fill:#009245;}
	.st12{fill:#006837;}
	.st13{fill:url(#SVGID_1_);}
	.st14{fill:url(#SVGID_2_);}
	.st15{fill:#E56548;}
	.st16{fill:#FFFFFF;}
	.st17{fill:url(#SVGID_3_);}
	.st18{fill:url(#SVGID_4_);}
	.st19{fill:#C64934;}
	.st20{fill:url(#SVGID_5_);}
	.st21{fill:url(#SVGID_6_);}
	.st22{fill:url(#SVGID_7_);}
	.st23{fill:url(#SVGID_8_);}
	.st24{fill:url(#SVGID_9_);}
	.st25{fill:url(#SVGID_10_);}
	.st26{fill:url(#SVGID_11_);}
	.st27{fill:#FFFF5A;}
	.st28{fill:url(#SVGID_12_);}
	.st29{opacity:0.8;fill:#1A3240;}

	@keyframes poissonJD {
		0%{
			left: 20vw;
		}
		50%{
			left: -75vw;
		}
		100%{
			left: -200vw;

		}
	}
	
	@keyframes poissonJD2{
		0%{
			top:0vh;
			transform:rotate(-20deg) scale(1);
					transform-origin: 100% 40%;
		}
		50%{
			top:70vw;
			transform:rotate(25deg) scale(0.6);
				transform-origin: 100% 40%;
		}
		
		100%{
			top:30vw;
				transform:rotate(30deg) scale(1);
				transform-origin: 50% 70%;
		}
	}

	#Poisson_jaune{
		position: relative;
        animation: poissonJD 4s linear infinite, poissonJD2 4s infinite ease-in-out;
	}


	@keyframes algued{
		25%{
			transform: rotate(0deg)
		}
		35%{
			transform: rotate(-8deg)
		}
		45%{
			transform: rotate(1deg)
		}
		60%{
			transform: rotate(0deg)
		}
	}
	#Algue_1d_d{
		position: relative;
		animation: algued 4s linear infinite;
		transform-origin: 78% 100%;
	}

	@keyframes nemoD{
		0%{
			left: -100vw;
		}
		50%{
			left: -20vw;
			transform: scale(0.7) rotate(-20deg);
		}
		100%{
			left: 40vw;
			transform: scale(1) rotate(-70deg);
		}
	}

	#Nemo{
		position: relative;
		animation: nemoD 5.5s linear infinite;
	}

	@keyframes algue1d{
		
	}

	#Algue_1d_g{

	}
	#Algue_2d_g{

	}
</style>
<g id="fond">
	<g>
		<polygon class="st0" points="1891.2,1080 1431,1080 0,1080 0,1080.5 1920,1080.5 1920,1080 		"/>
		<path class="st1" d="M1625.8,472c3.3-8.4,6.9-16.9,10.9-25.5c0.4-0.8,0.8-1.6,1.1-2.4c-3.4,5.3-7.3,10.8-12,16.6
			C1625.9,460.7,1626.1,465,1625.8,472z"/>
		<path class="st1" d="M1652.4,413.4c7.2-15.1,14.1-29.2,20.6-42.2c-5,4.5-10.7,9.1-17.1,13.6
			C1655.9,384.9,1657.9,395.6,1652.4,413.4z"/>
		<path class="st1" d="M1351.2,826.8c-2.4,3.2-6.8,6.6-13.3,10c-2.3,1.2-3.8,2.7-4.6,4.4c11.8-5.9,19.7-9.7,19.7-9.7l0-0.3
			c-0.2-0.1-0.3-0.1-0.3-0.1L1351.2,826.8z"/>
		<path class="st1" d="M634.4,277.3L634.4,277.3c-1.1,2.5-2.6,5.2-4.2,8c0.4-0.6,0.7-1.2,1.1-1.8
			C632.3,281.7,633.4,279.5,634.4,277.3z"/>
		<path class="st1" d="M621.5,298.3c-0.4,0.5-0.7,0.9-1.1,1.4C620.9,299.2,621.2,298.7,621.5,298.3
			C621.5,298.3,621.5,298.3,621.5,298.3z"/>
		<path class="st1" d="M1170.6,820c0.1,0,0.1,0.1,0.2,0.1C1170.7,820.1,1170.6,820,1170.6,820z"/>
		<path class="st1" d="M179.6,280.3c12,21,63,173.9,87,188.9c4.9,3.1,15.8,13,30.6,27c21.5-56.6,56.9-52.5,56.9-52.5
			c18.6-36.6,44.7-30.2,44.8-30.2l0,0v0l0,0l0,0c0,0-0.2,19.5-34.1,50.8c0,0-2.2,28.2-41.1,57.2c14.8,14.2,31.5,30.1,49,46.5
			c5.8-19.7,15.4-30.9,15.4-30.9c-2-47.5,33.4-87.4,33.4-87.4c2-71,86.3-136.4,86.3-136.4v1.2c0.4-1,0.6-1.5,0.6-1.5
			s30.4,119-42.6,147.7c0,0,11.5,74.6-23.3,100.7c0,0,10.1,32.6-6.5,63.4c29.6,25.1,58.3,47.2,82.1,60.5
			c5.9-5.4,11.8-10.8,17.7-16.2c19-17,37-33,56-50c6.1-5.5,11.5-11,17-17.1c12.3-13.4,22.1-28.9,31-44.9c15-27,26-55,27.6-85
			c0.4,10,0,17.3,0,0c-0.6,12-1.6,25-2.6,37c-2,14-6,27-10,40c-11,29-27,54-47,78c-13,16-27,29-41,42c-3,3-6,7-9,10
			c-6.1,5.6-12.2,10.9-18.3,16.2c11.4,4.4,21.7,8.6,31.1,12.7c4.2-3.5,8.6-7.1,13.2-10.8c120-98.1,131-106.1,131-147.1
			c0,0,7.3,36.7-16,63.3c-23.3,26.7-52,50-88.7,78c-13.3,10.1-21.7,16.7-28,21.7c46,21,69.8,39.4,95.5,65c33,33,114,51,147,54
			c33,3,99.4,28.5,135.2,44.2c35.8,15.8,131.9,33.8,191.9,33.8c14.9,0,29.4,0.1,43.5,0.7c-3.8-3.7-7.6-5.9-7.6-5.9
			c-29.9-23.1-62.3,6.4-72.4-3.9c-1.6-1.7-5.4-5.8-4.9-11.3c0.3-3.3,2-7,6.5-11.1c11.1-10.2,33.2,3.6,39.3-6.3
			c0.2-0.4,0.4-0.7,0.6-1.2c0.3-0.6,0.5-1.3,0.7-2.1c3.2-15.3-36-25.3-30.5-40.5c0.2-0.5,0.4-1,0.7-1.6
			c9.3-16.9,37.2,24.9,43.9,19.7c0.1-0.1,0.3-0.2,0.4-0.4c0,0,0,0,0,0c5.7-7.2-13.2-18.3-5.9-26.9c0.1-0.1,0.2-0.2,0.3-0.3
			c0.1-0.2,0.3-0.3,0.4-0.5c9.2-8.7,21.1,3.7,23.4,29.7c2.3,25.9,5.5,22.9,21.4,42.6c15.9,19.7,32.9,8,13.7-8.5
			c-19.1-16.5-17.2-35.7-25.3-62.8c-8.1-27.2-43.5-4.4-41.8-22.8c0.2-2.7,0.9-5,1.8-6.8c5.4-10.5,21.4-7.2,39.5-2.4
			c8.4,2.2,14.8,12.1,20.4,23.2c8.1,16.1,14.5,34.6,22.4,35.9c0.4,0.1,0.9,0.1,1.3,0.1c1.5-0.1,2.6-0.6,3.3-1.2
			c5.7-5.1-5.9-24-2.9-33.1c0.4-1.4,1.2-2.6,2.5-3.4c10.4-7.3,15.8,9.6,18.4,30.7c1.8,15,3.3,28.9,10.4,33.6
			c6.4-4,13.2-7.9,19.9-11.7c0.2-12.5-9.3-30-14.9-34.3c-0.9-0.7-1.5-1.5-1.9-2.4c-2.9-6.5,9.6-15.4,19.4-6.4
			c13.1,12.3,5.6,20.6,9.9,25.2c0.3,0.4,0.7,0.6,1,0.9c3.8,2.7,6.5-3.3,12.1-14.2c3.5-6.8,11.5-12.5,18.8-14.9
			c2.5-0.8,4.9-1.2,7-1.2l-19.5-53.4c0,0,0,0,0-2.1c-5.9-20.7,3-53.3,11.9-81.6c1.2-3.9,3.4-7.8,6.3-11.5c0.2-0.6,0.4-0.9,0.4-0.9
			l0.4,0c25.7-32.3,103.2-57.5,103.2-57.5s14.3-8.2,36.3-20.7c-7.8-28-15-56.4-21.1-86.4c-3-13-3.9-26-6.9-39
			c-18.7-114-2.4-226,34.9-331.9c-0.8,3.7-1.8,7.1-2.6,9.6c-2,9.2-2.8,19.1-4.1,28.1c-1.7,12.3-4.1,24.9-5.1,37.2
			c-0.8,9.7-0.9,19.5-1.6,29.3c-0.7,10-1.3,20-1.8,30c-1,20-1.7,40-1.8,60c-0.2,39.8,1.8,79.7,7.1,119.2c4.3,31.6,10.8,63,19.8,93.6
			c2.1,7.3,4.4,14.5,6.8,21.7c7.1-9,13.4-13.6,13.4-13.6c-34.2-82.5,42.5-109.2,42.5-109.2c19.2-89.2,59.2-78.3,59.2-78.3
			c26.5-77.1,73.4-71.7,73.4-71.7c13.4-26.4,30-34.9,41.6-37.4c-13.4-82-2.8-119.3-3.9-128.4c0,0,6.2,50.5,20.6,112.6
			c12.9-16.3,25.8-29.8,40-43.2c0,0-15.6,21-37,56c12.5,51.3,30.3,108.4,54.4,150.6c3.1,5.4,6.1,10.9,9,16.5
			c21.7-54.7,78-98.4,78-98.4v1.2c0.4-1,0.6-1.5,0.6-1.5s21.4,84-15,127.9c20.6,0.7,32.4,1.9,34.1,2.1V-0.5H0v235.9
			C3.1,235.9,167.7,259.5,179.6,280.3z M1247.2,285.3c-0.3-0.1-0.5-0.2-0.8-0.3c-0.6-0.2-1.1-0.5-1.7-0.8c0,0-0.1,0-0.1-0.1
			c-1.2-0.5-1.9-1-1.9-1s8.7-12.1,14.7-18.5l0,0c0,0,1.1-1.1,1.8-1.8l8.1,1.3l1.1-5.4c0.8-0.3,1.6-0.5,2.5-0.8
			c0.7-0.2,1.8-0.5,3-0.8c-0.3-0.7-4-8,3-7.1c7.3,1,7.1,3.5,14.6-0.1c7.5-3.6,9.3,1.3,10.1,2.1c0.8,0.8,4.5-1,9.3-1.4
			c4.8-0.4,6.5,4.3,5.7,6.1l3.6,0.7c0,0,0,0-0.1,0.1c1.6,0.4,3.3,0.7,5,1.2c0,0,0.4-0.1,1-0.4c1.2-0.5,3-1.5,4.2-2.5
			c0.3-0.3,0.6-0.6,0.9-0.9c0,0,0-0.1,0.1-0.1c1.3-2.2,1.2-4.6,1.4-7c0,0,0-0.1,0-0.1c0-0.9,0.1-1.9,0.2-3c0-0.1,0-0.2,0-0.2
			c0.1-1,0.2-1.9,0.4-2.9c0.2-1.3,0.4-2.4,0.6-3.2c0,0,0,0,0,0c0.1-0.6,0.3-1.1,0.5-1.7c0.3-0.8,0.7-1.5,1.1-2.1
			c0.4-0.7,0.9-1.4,1.6-2.1c0,0,0,0,0,0c0,0,0.1-0.1,0.1-0.1c0.2-0.3,0.5-0.5,0.7-0.8c0,0,0,0,0,0c0,0,0,0,0,0
			c0.1,0,0.1-0.1,0.1-0.2c0.5-0.5,0.9-1,1.5-1.4c0.2-0.2,0.5-0.3,0.7-0.4c0.9-0.6,1.8-1.1,2.9-1.2c0,0,0,0,0,0
			c1.3-0.4,2.7-0.5,4.1-0.5c0.2,0,0.3,0,0.5,0c0.2,0,0.3,0,0.5,0c0.2,0,0.4,0,0.6,0c0.4,0,0.7,0,1.1,0.1c0.2,0,0.3,0,0.5,0
			c0,0,0.1,0,0.1,0c0.1,0,0.2,0,0.2,0c0.7,0.1,1.3,0.1,2,0.2c0.5,0.1,0.9,0.1,1.4,0.2c0.2,0,0.5,0.1,0.7,0.1c0.5,0.1,1,0.1,1.5,0.2
			c0.4,0.1,0.8,0.1,1.2,0.2c0.1,0,0.2,0,0.2,0c1.9,0.3,3.9,0.5,5.8,0.8c0.3,0,0.6,0.1,0.9,0.1c0.3,0,0.6,0,0.9,0.1
			c0.4,0,0.7,0.1,1.1,0.1c0.7,0,1.4,0.1,2.1,0.1c0.5,0,1,0,1.4,0c2.2-0.2,3.3-0.6,4.1-0.9c1.2-0.5,2.3-1.1,3.6-1.4
			c0.5-0.1,1,0,1.5,0c0.6-0.1,1.2,0.1,1.8,0.1c1,0.1,1.9,0.5,2.8,0.9c0.3,0.1,0.6,0.3,0.8,0.4c0.1,0.1,0.2,0.1,0.3,0.2
			c0.1,0.1,0.3,0.2,0.4,0.3c0.8,0.5,1.6,1.1,2.2,1.9c0.2,0.3,0.5,0.5,0.7,0.8c0.5,0.6,0.8,1.3,1.3,2c0.1,0.1,0.2,0.3,0.2,0.4
			c0.6,1,1.1,2.2,1.5,3.5c0,0,0.7,4.5,5.1,3.2l2.6-1c-0.5,3.3-5.3,3.6-7.3,3.6s-7.8,1.8-5.5,5.5c2.3,3.6-2.7,7.6-2.7,7.6
			s-1.2,2.4-14.8,7.3c-13.5,4.9-3-12.6-18.6-2.4c-15.5,10.2-20.7,6.5-20.7,6.5c-12.5,21.2-29.2,28.1-44.7,28.9l0.6,1.1
			c0.7,1.2,1.8,2.8,2.8,3.7c1.6,1.4,4.1,2.8,4.1,4.7c0,1.8-2,3.9-4.9,3.9c-2.8,0-1.4-2.2-5.1-2.6c-3.6-0.4,0.8,5.7-4.4,3.3
			c-4.4-2-3.8-10.7-3.5-13.4l0.1-1l0,0c-0.5-0.1-1-0.1-1.5-0.2c0,0.1,0,0.2,0,0.3c0,0,0,0,0,0.1c0.1,0.5-0.2,1.9-0.3,2.3
			c-0.3,1.3-0.6,2.8-0.6,3.8c0,1.3-2.6,1.8-4.5,3.8c-1.8,2-3.9,0.6-4.9,0c-1.1-0.6-0.8-2.2-2.4-2c-1.6,0.2-4.1,1.8-5.9,0
			c-1.8-1.8-1.4-2.6,0-3.6c1-0.7,4.9-3.9,7-5.7c0,0,0,0,0,0c0.1-0.2,0.2-0.3,0.4-0.4c0.1-0.1,0.4-0.3,0.4-0.3l0-0.3
			c-8.7-2.4-15.3-5.6-17.9-7l0,0c0,0,0,0-0.1,0c-0.7-0.4-1.1-0.6-1.1-0.6s0.2,0,0.4-0.1c0.1,0,0.2-0.1,0.2-0.1
			c0.5-0.1,1-0.2,1.5-0.4c0.5-0.1,1.1-0.2,1.6-0.4c0.1,0,0.3-0.1,0.4-0.1c0.1,0,0.1,0,0.2-0.1c0.1,0,0.1,0,0.2-0.1
			c0.1,0,0.1-0.1,0.2-0.1C1247.7,285.6,1247.6,285.4,1247.2,285.3z M964.7,587c15.8,2.5,29.9,10.5,41.5,19.2c6.9,0.9,14,2,21.3,3.3
			c4.2,0.1,8.5-0.4,12.6-1.2c3.5-0.7,7-1.7,10.2-3.3c2.3-1.2,4.3-4.1,7.1-4.3c0,0,44.6-56.9,62.6-60.6c0,0,11.7,21.3-15,71
			c0,0,23.7,32,23.7,60.3c0,0-41.3-8-63.7-31.7c-0.6,0.3-1.2,0.5-2,0.6c-5.8,1.1-11.9,0.4-17.5,2.8c-3.6,1.6-6.6,4.2-8.8,7.5
			c0.4,14.1-8.1,32.1-8.1,32.1c-22,43.7-90,51-102.7,53c-12.7,2-67.1-3.1-67.1-3.1l0,0c-8.9-0.5-17.9-1.2-26.8-2.2
			c-4.6-0.5-10.5-2.2-15.2-1.4c-8.5,1.5-20.5,10-20.5,10l3.5-14c-2,0-12-3-12-3s10-5.5,16-13c6-7.5,15-41,17.5-47
			c0.3-0.6,1-1.9,2.2-3.7c0.5-12.3,4.4-33.8,25-45.6C878.6,595.4,946,584,964.7,587z M581.9,266.4c6-3.7,29-26,45.3-26l14.4-4
			c1.7-2.7,12.5-19.1,28.1-19.6c17-0.6,33.2,8.7,41.9,15.8c5.1,4.1,8.4,8.7,10.3,11.9c2.2,1.1,4.4,2.3,6.5,3.5
			c7.6-0.5,27.8-0.8,40.6,7.2c16,10,15,17.8,15,20.9c0,2.3,0.4,5.2-0.8,7.6c0.6,0.4,1.3,0.9,1.9,1.3l1.2,1.4c-0.5-1-0.8-1.5-0.8-1.5
			s25.6,5.6,41.2-1.2l0.5-0.3c0,0,20.8-15.5,26.1-13.5c5.3,2,22.8,22.2,19.3,35.4c-3.5,13.1-21,28.9-26.5,29.6
			c-5.5,0.8-24.6-10.8-24.6-10.8l-0.3-0.2c-8.7-4.4-29.7-2.9-34.6-2.5c-1.8,6.9-6.9,21.2-27.2,21.6c-18,0.4-30.6-8.6-33.6-11
			c-0.7,0.1-1.3,0.1-2,0.2c-0.8,1-17.3,0-17.3,0c-4,0.1-8,0.1-12-0.2c-0.1,0.3-0.3,0.7-0.4,1c-3.3,6.8-12.3,10.8-19.9,9.7
			c-4.9-0.7-9.7-1.1-14.4-2.8c-7.1-2.4-13.4-6.8-17.8-12.9c-0.4-0.5-3.5-4.8-5.7-7.9c-5.6-2-8.9-3.4-8.9-3.4l-14-9.7
			c-0.5-0.4-1.1-0.8-1.6-1.2c-5.6-4.1-11.4-8-16.7-12.5c-2.3-1.9-4.1-4.1-6.1-6.2c-2.2-2.2-4.1-4.8-5.5-7.5c-0.8-1.6-3.4-2.2-3.8-4
			c-0.4-1.6,1.5-3.3,2.7-3.9l1.3,0.4C580.8,270.1,578.5,268.5,581.9,266.4z"/>
		<path class="st1" d="M1171.2,820.3c0.2,0.1,0.3,0.2,0.5,0.3C1171.5,820.5,1171.4,820.4,1171.2,820.3z"/>
		<path class="st1" d="M632.9,252.6c1.4,3.5,2.7,7.2,3.5,10.6c-0.3-2.1-0.8-4.4-1.6-6.3C634.3,255.8,633.6,254.3,632.9,252.6z"/>
		<path class="st1" d="M1777.6,443c5.9-0.4,11.7-0.7,17.3-1c-26.5-69.1-42.2-125-51.2-169.6c-2.1,3.4-4.6,7.1-7.6,11
			c-20,35.9-41.7,79.8-59.6,127.6c-14.1,37.6-24.3,65.1-31.8,86.8c4.5-2.4,8.8-4.7,12.9-6.8C1733.9,451,1687.4,449,1777.6,443z"/>
		<path class="st2" d="M59.3,683.1C59.3,683.1,59.3,683.1,59.3,683.1c-0.3,0.7-0.5,1.4-0.6,2.1c0,0,0,0,0,0
			C58.8,684.5,59,683.8,59.3,683.1z"/>
		<polygon class="st2" points="60.1,681.6 60.1,681.6 60.1,681.6 60.1,681.6 		"/>
		<path class="st2" d="M296.8,584.4c0,0,3.3,63.3-38,86.7c0,0,16.9,32.2-3.6,62.6c-8.1,2.2-12.5,4.7-14.3,6.9c0,0,0,0,0,0
			c-0.1,0.6-4.5,6-4.8,6.5c-1.1,1.4-2.4,1.9,9.5,4.8c1.6,1.9,6,2.7,8,6.5c2.1-2.8,4.9-4.6,8.9-5.5c12.5-2.8,13.2,5.6,13.2,5.6
			s0.1-0.1,0.2-0.3c3.2-6.7,19.8-27.7,18.7-40.6c-0.5-5.9-4-16.7-4-26.3c0-11.2,0.4-22.5,1.3-30.2c1.6-3.6,3.8-6.5,6.7-8.1
			c14.6-8.3,31.3,28.5,36.1,39.6c0.9,2,2.2,3.7,4,5.2c1.9-0.1,3.8-0.2,5.6,0.1c1.9,0.2,3.8,0.9,5.4,2c-7.1-33.5,21.6-77,21.6-77
			c-4.8-21.9-2.6-40.4,1.5-54.5c-17.5-16.4-34.2-32.3-49-46.5c-1,0.7-1.9,1.4-2.9,2.1C320.8,523.7,325.5,549,296.8,584.4z"/>
		<path class="st2" d="M1246.8,966.3c0.7-0.9,1.2-1.9,1.4-2.9c1.8-12.4-8.7-27.9-34.4-15c-9.3,4.7-17.7,7-25.2,7.7
			c14.7,3.9,33,8.4,54.4,13C1244.6,968.3,1245.9,967.4,1246.8,966.3z"/>
		<path class="st2" d="M276,814.6c-0.5,1.3,5.4,11.5,5.9,12.6c0.2,0.4,0.4,0.6,0.6,0.9c-0.2,0-0.4-0.1-0.5-0.1c0,1.6,0.4,3,1.5,4.1
			c1,1,2.5,1.5,4,1.7c3.7,0.5,7.5-0.8,10.9-2.4c12.7-5.9,23.3-16.1,29.8-28.6c0.6-1.3,2.1-2.6,3.2-3.4c1.5-1.1-0.4-3.3,0.4-4.6
			c0.4-0.9,0.8-1.7,1.3-2.6c1.1-1.7,10.6-5.1,11.6-6.7c0.5-1.6,0-4.6-1.2-5.7c0.4-0.3,2.5-2.1,2.9-2.3c0-0.1,0-1,0-1.2
			c-0.1-0.2,6.2-6.4-1.6-1.3c0.1-0.1-1.6,2.3-1.5,2.3c-0.5-2.2-7.5-2.8-7.7-5c-4.8,5.4-15.8,4.5-19.6,8.6
			C309,788.6,282.2,804.1,276,814.6z"/>
		<path class="st2" d="M416.9,721.7c0,0,10.1,25.9,3.6,53.5c9.2-9.2,19.8-16.7,28.9-26c12.7-13,27.3-25.1,40.7-37.8
			c9.3-8.8,18.6-17.5,28-26.2c-23.7-13.3-52.5-35.3-82.1-60.5c-2.7,5.1-6.2,10.1-10.6,15C425.5,639.7,446.2,684.7,416.9,721.7z"/>
		<polygon class="st2" points="1430.5,1079.1 0,1079.5 0,1080 1431,1080 		"/>
		<path class="st2" d="M113.4,946.8c-0.4-0.9-0.9-1.8-1.4-2.7c-12.7-24.2-42.3-49.6-44.1-64.6c-0.1-1-4.5-3.4-4.3-4.3
			c4.2-14.6,4.9-34.3-6.2-41.9c-11.1-7.6-20.1-29.9-16.6-35.5c3.5-5.6-5.1-14.7,0.8-26.5c5.9-11.8-12.9-37.9-8.8-49
			c21.1-56.3,45.2,322.3-8.2-32.5c-0.6-3.7,0,0,1.4-2c0.3-1,0,3.4,0.8,2.8c0.8-0.7,1.2-2.8,2.5-3c13.8-2.1,16.7-2.3,16,12.3
			c-0.7,14.6,1.6,24,9.3,33.8c7.6,9.7,4.7,33.8,11,52.5c6.2,18.5,28.3,116.5,70.5,32.3c-2.2-4.4,8.6-8.5,9.8-15.3
			c1.1-6.5-17.8-11.3-19.8-14.5c-4.2-6.9-14.6-21.5-14.6-21.5S96,750.4,96,739.3S85.4,727.6,85.5,713c0.1-10.1-25.2-27.8-13.5-27.8
			c9.6,0-2-0.9-0.3-3.6c0.5-1.5,8-0.2,9.5-1.3c13.2-9.7-5.1-15.9,13-2.8c12.9,9.4,13.5,12.9,17.1,15.5c0.4,0.3,4.8,3.1,5.3,3.2
			c1.3,0.2,5.5-1.1,8-2.7c2.2-1.4,5.1-5.3,6.1-6.9c1.4-3.5,0.5-6.1,1.9-8.1c0.2-0.7-0.9,0.3-0.4-0.2c0.6-0.7-2.3-0.6-1.1-0.8
			c1.6-0.3,1.5,0,4.8,0.8c5.9,1.4,8.8-0.2,6.3,4.4c-2.9,6.7-12.4,15.8-16.1,22.5c-0.6,1.3-0.8,2.6-0.7,3.6c0.1,0.3-3.7-1.1-3.5-0.9
			c1.1,2.1,0.1,7.9,1.2,10.1c3,6.3,7.6,19.3,21.6,17.8c18.8-2.1,4,4,5.4,10.2c1.2,5.3,1.3,11.9,2.2,13.2c0.1,0.2,5.1,10.3,5.1,10.3
			s26-20.2,32.8-32.8c0.9-2,5.7-9.8,5.7-11.8c0-9.6-9.1-37.4-9.3-57.8c0-4.3,1.5-5.5,2.1-8.6c0.4-2.2-0.4-0.8,0.4-2.2
			c1-2.4,0.5-2.4,2.5-2.7c7.3-1.1,8.4-1.6,14.8,5c3.7-3.9,8-7.6,8-7.6c-27.3-66,34-87.3,34-87.3c15.3-71.3,47.3-62.7,47.3-62.7
			c0.6-1.7,1.2-3.3,1.7-4.8c-14.9-14.1-25.7-24-30.6-27c-24-15-75-167.9-87-188.9C167.7,259.5,3.1,235.9,0,235.5v759.3
			c3.4-1.5,45.1-19.7,116.7-41.3C115.6,951.5,114.6,949.3,113.4,946.8z"/>
		<path class="st2" d="M288.2,858.4c2.3,12,2.3,28.9-4,45.5c0,0,5,0.8,10.7,6c9.6-1.8,19.4-3.6,29.4-5.4c3.1-16.2,11.2-24,11.2-24
			c-5.1-15.1-6.5-31.2-5.7-42.7c-9.5,7.4-23.1,12.7-34.9,15.5C292.6,853.9,290.2,857.4,288.2,858.4z"/>
		<path class="st2" d="M1146.6,933.3c1.1-2.8,4.2-4.6,10-4c16.5,1.7,31.7,21.1,43.2,5.2c0.6-0.9,1.1-1.8,1.6-2.6
			c4.2-8.5-0.9-16.2-6-21.2c-14.1-0.6-28.6-0.7-43.5-0.7c-60,0-156.1-18-191.9-33.8c-35.8-15.8-102.2-41.2-135.2-44.2
			c-33-3-114-21-147-54c-25.7-25.6-49.5-44-95.5-65c-11.1,8.9-15.4,13.2-27.4,24.3c-18.7,17.3-40,34-47,48.7
			c-6.1,12.7-8.4,5.7-25.8,97.8c186.5-16.6,414.8-9.3,662.5,59.2c0,0,1.8,0.6,5.2,1.7C1146.7,941,1145.3,936.5,1146.6,933.3z"/>
		<path class="st2" d="M570.7,707.9c-9.4-4.1-19.8-8.3-31.1-12.7c-5.9,5.2-11.8,10.3-17.7,15.8c-36,32-74,59-104,95
			c-3.3,4.6-6.4,9.3-9.4,14.1c4.7,13.6,7.5,37.6-12.9,66.7c0,0,0.9,2.3,2,6.5c21.7-2.9,44-5.5,67.1-7.8c0.1-0.8,0.2-1.6,0.3-2.4
			C472.6,799.3,464.6,795.4,570.7,707.9z"/>
		<path class="st3" d="M325,692.4c0,0,0.1,0.1,0.1,0.1C325.1,692.5,325,692.4,325,692.4z"/>
		<path class="st4" d="M201.8,829.5c-35.3-41.3-2.6-81.9-2.6-81.9c-21.7-46.6-3-76,8.5-88.2c-6.4-6.5-12.3-12.1-19.6-11
			c-2,0.3-3.4,1.8-4.3,4.3c-0.4,1.1-0.8,2.3-1,3.7c-0.6,3.1-0.8,7-0.8,11.3c0.2,20.4,6.2,51,6.2,60.6c0,2.5-0.8,5-2.2,7.6
			c-6.8,12.6-26.8,25.1-26.8,25.1s-0.1-0.1-0.2-0.4c-0.8-1.3-3.6-6.1-4.8-11.4c-1.4-6.3,14.6-22.2-4.2-20.1
			c-13.9,1.5-18.3-3.8-21.3-10.1c-1-2.2-1.9-4.4-3-6.6c-0.1-0.3-0.2-0.6-0.3-0.9c-0.2-1,0.1-2.3,0.7-3.6
			c2.7-6.3,12.2-15.5,16.1-22.5c2.5-4.6,2.6-8.3-3.3-9.7c-3.3-0.8-5.6-1-7.2-0.7c-1.2,0.2-2.1,0.7-2.7,1.4c-0.4,0.5-0.8,1.2-1,1.9
			c-0.8,2.4-0.9,5.6-2.7,8.8c-0.9,1.6-2.3,3.2-4.5,4.6c-2.5,1.6-4.1,2.1-5.4,1.9c-0.5-0.1-0.9-0.3-1.3-0.5c-3.6-2.6-4-13.5-17-22.9
			c-18.1-13.2-22.2-5.6-35.4,4.2c-1.5,1.1-2.5,2.4-3,3.9c-0.8,2.2-0.4,4.8,0.6,7.6c0,0,0,0,0,0c0.1,0.2,0.1,0.3,0.2,0.5
			c0.1-0.7,0.3-1.3,0.6-2c0,0,0,0,0,0c0.4-1.1,1-2.1,1.8-3c-0.7,0.9-1.3,1.9-1.8,3c0,0,0,0,0,0c-0.3,0.6-0.5,1.3-0.6,2c0,0,0,0,0,0
			c0.1,0.2,0.2,0.4,0.3,0.7c4.5,10.9,17.9,24.6,17.8,34.6c-0.1,14.6,10.5,17.4,10.5,28.5c0,11.1,24.3,18.1,24.3,18.1
			s10.4,14.6,14.6,21.5c1.9,3.2,0.9,9.4-0.2,15.9c-1.2,7.5-2.5,15.5,0.9,19.7c-0.2,0-0.3,0-0.5,0.1c-0.4,0.1-0.8,0.1-1.2,0.2
			c-46.3,5.6-51.2-18.7-57.3-37.2c-6.3-18.7-0.7-43.7-8.3-53.5c-7.6-9.7-11.1-18.7-10.4-33.3c0.7-14.6-10.4-22.9-24.2-20.8
			c-1.3,0.2-2.3,0.6-3.1,1.3c-0.8,0.6-1.3,1.5-1.6,2.5c-0.6,1.9-0.6,4.4-0.2,7.2c0.1,0.5,0.2,1,0.3,1.5c1.9,10.2,7.8,23.8,5.2,30.6
			c-4.2,11.1,14.6,36.1,8.7,47.9c-5.9,11.8,4.5,20.1,1,25.7c-3.5,5.6,2.1,32.6,13.2,40.3c11.1,7.6,5,22.7,8.1,37.8
			c0.2,0.9,0.6,2.2,0.7,3.3c0.1,0.5,0.2,1.1,0.3,1.7c4.2,15.3,41.9,41.8,54.2,65.1c0.4,0.7,0.7,1.3,1,2c0.1,0.2,0.2,0.4,0.3,0.6
			c1.4,3.1,2.7,5.7,4,8c27.8-8.4,64-20.5,100.3-29.1C167.3,895.1,201.8,829.5,201.8,829.5z M123,891.1
			C123,891.1,123,891.1,123,891.1C123,891.1,123,891.1,123,891.1C123,891.1,123,891.1,123,891.1z M123.2,890.3
			c-0.4-1.5-0.7-3.1-0.8-4.6C122.5,887.2,122.8,888.7,123.2,890.3C123.2,890.2,123.2,890.2,123.2,890.3z M122.4,885.5
			c0-0.5-0.1-1-0.1-1.5C122.3,884.5,122.3,885,122.4,885.5z M122.4,889.9c0,0,0-0.1-0.1-0.1C122.3,889.8,122.4,889.8,122.4,889.9z
			 M119.7,879.8c0,0.6,0.1,1.1,0.2,1.7C119.8,880.9,119.8,880.4,119.7,879.8z M120,882.1c0.1,0.3,0.1,0.7,0.2,1
			C120.1,882.8,120.1,882.5,120,882.1z M120.4,883.9c0.1,0.3,0.1,0.5,0.2,0.8C120.5,884.4,120.4,884.2,120.4,883.9z M120.8,885.6
			c0,0.1,0.1,0.3,0.1,0.4C120.9,885.8,120.8,885.7,120.8,885.6z"/>
		<path class="st4" d="M336.9,781.6c0-0.2-0.1-0.4-0.1-0.6c-0.1,0-0.2,0.1-0.2,0.1C336.7,781.3,336.8,781.4,336.9,781.6z"/>
		<path class="st4" d="M338.7,697.6c-1.7-1.4-3.1-3.1-4-5.2c-4.9-11.1-21.5-47.9-36.1-39.6c-2.9,1.7-5.1,4.5-6.7,8.1
			c-3.4,7.6-4.4,18.5-4.4,29c0,0.3,0,0.5,0,0.8c0.1,9.3,0.9,18.2,1.4,23.9c1.3,14.3-11.5,40.3-13,43.4c-0.1,0.2-0.2,0.3-0.2,0.3
			s-0.7-8.3-13.2-5.6c-4,0.9-6.7,2.7-8.9,5.5c5.1,10.1,10.2,28.2,9.2,59.5c0,0,20,14.8,25.6,42c2.3-1.2,4.8-2.2,7.4-2.8
			c11.5-2.8,24.8-10.4,34.3-17.6c2.2-25.6,14.2-40.9,14.2-40.9c-3-4.4-5.1-9.1-6.6-13.9c0,0.6-0.1,1.1-0.4,1.6
			c-0.2,0.4-0.4,0.8-0.7,1.3c-1.1,1.7-2.6,3-3.7,4.7c-0.5,0.8-1,1.7-1.3,2.6c-0.4,0.8-0.7,1.7-1,2.5c-0.8,1.9-1.6,3.7-2.5,5.5
			c-6.5,12.4-17.1,22.7-29.8,28.6c-3.4,1.6-7.2,2.9-10.9,2.4c-1.5-0.2-2.9-0.7-4-1.7c-1.1-1.1-1.5-2.5-1.5-4.1
			c0.2,0,0.4,0.1,0.5,0.1c-0.2-0.3-0.4-0.6-0.6-0.9c-0.6-1-0.5-2.2,0-3.6c3.8-10.2,35.7-28,43.1-36c3.5-3.8,6.4-8.6,10.7-13.7
			c-2.9-31.1,18.1-62.8,18.1-62.8c-2-3.6-3.3-7.5-4.2-11.4c-1.5-1.1-3.5-1.7-5.4-2C342.4,697.4,340.5,697.5,338.7,697.6z M325,692.4
			c0,0,0.1,0.1,0.1,0.1C325.1,692.5,325,692.4,325,692.4z M326,693.3C326,693.3,326,693.3,326,693.3C326,693.3,326,693.3,326,693.3z
			 M279.7,827.1c0.2,0.1,0.4,0.2,0.5,0.3C280.1,827.3,279.9,827.2,279.7,827.1z"/>
		<path class="st5" d="M1610,1080.5l60.9-1.6c0,0,0,0.1,0,0.1h-28.8h-4.8h-60.6c-0.1-0.1-0.3-0.2-0.4-0.3l-296.2-1.4
			c0,0-1,0.8-5-20.2c-1.8-9.2-2.7-17.7-3.8-26.5c-2.3,4.1-0.4,11.7-1,16.9c-0.5,3.6-2.2,6.1-7.6,5.4c-14.6-1.8-16.1-23.4-12.1-32.6
			c2.4-5.5,11.2-13.9,15.8-21.8c-0.4-1.8-0.8-3.6-1.2-5.5c-0.7-3.2-1.7-6.7-3-10.6c-10.7-2.2-26.7,15.3-46.7,22.6
			c-22.7,8.3-59.1-4-62.3-13.5c-1.5-4.7-2.2-9.3,0.7-12.6c3-3.4,9.8-5.5,23.4-5.1c21.8,0.7,53.5,1.5,65.8-4.7
			c-21.5-4.6-39.7-9.1-54.4-13c-13.1,1.3-23.4-2.1-31.2-5.5c-3.1-1.3-5.7-3.5-7.6-5.9c-3.4-1.1-5.2-1.7-5.2-1.7
			c-247.6-68.5-476-75.8-662.5-59.2c-2.7,14.2-5.7,30.8-9.2,50.2c0,0-6.7,23.5-15.8,48.7c4.7,1.5,7.6,3.7,7.6,6.1
			c0,3.1-5.1,5.9-12.7,7.3c-4,10.1-8.2,19.9-12.5,27.9c-16.7,31.3-30,55.1-30,55.1l-21.9-0.1c0,0,22.6-35.5,43.4-82.1
			c-10.6-1.1-18.3-4.3-18.3-8.2c0-4.7,11.4-8.5,25.5-8.5c12.5-30.3,23.2-63.8,26.4-94.7c-23,2.3-45.4,4.9-67.1,7.8
			c3,11.6,7.1,37.7-5.7,68.7c0,0,11,28.3-6.7,63.6c0,0,18.4,31.5,1.7,53.5h-27h-13.4h-13.6h-11.7h-11.3H306l-48.4,0.8
			c-24-17-2.1-71-2.1-71c-64-16.7-40-80.9-40-80.9c-0.4-0.2-0.8-0.5-1.2-0.7c-36.3,8.7-68.7,17.5-96.5,25.9c-0.5,0.1-1,0.3-1.5,0.4
			C44.8,975.2,3.4,993.3,0,994.8v85.2l1379,0L1610,1080.5z M615.8,941.5c-22,0-39.8-7.1-39.8-15.7c0-8.7,17.8-15.8,39.8-15.8
			c22,0,39.8,7.1,39.8,15.8C655.5,934.4,637.7,941.5,615.8,941.5z M794.8,971c-12.5,0-22.7-4-22.7-9c0-5,10.2-9,22.7-9
			c12.5,0,22.7,4,22.7,9C817.5,966.9,807.3,971,794.8,971z M951.4,1002.7c-11.8,0-21.5-3.2-21.5-7.1c0-3.9,9.6-7.1,21.5-7.1
			c11.9,0,21.5,3.2,21.5,7.1C972.9,999.5,963.3,1002.7,951.4,1002.7z"/>
		<path class="st5" d="M309.8,970.4c3.4,0.9,5.7,2.4,5.7,4.1c0,1.2-1.1,2.3-3,3.2c2.2,2.3,5.4,6.2,8.7,11.9
			c-1.3-22.7,8.5-37.1,8.5-37.1c-7.5-20.4-7.7-36.3-5.5-47.9c-10,1.7-19.8,3.5-29.4,5.4C303,917.4,312.3,934,309.8,970.4z"/>
		<path class="st5" d="M615.8,910c-22,0-39.8,7.1-39.8,15.8c0,8.7,17.8,15.7,39.8,15.7c22,0,39.8-7.1,39.8-15.7
			C655.5,917,637.7,910,615.8,910z"/>
		<path class="st6" d="M615.8,910c-22,0-39.8,7.1-39.8,15.8c0,8.7,17.8,15.7,39.8,15.7c22,0,39.8-7.1,39.8-15.7
			C655.5,917,637.7,910,615.8,910z"/>
		<path class="st5" d="M951.4,988.6c-11.8,0-21.5,3.2-21.5,7.1c0,3.9,9.6,7.1,21.5,7.1c11.9,0,21.5-3.2,21.5-7.1
			C972.9,991.7,963.3,988.6,951.4,988.6z"/>
		<path class="st6" d="M951.4,988.6c-11.8,0-21.5,3.2-21.5,7.1c0,3.9,9.6,7.1,21.5,7.1c11.9,0,21.5-3.2,21.5-7.1
			C972.9,991.7,963.3,988.6,951.4,988.6z"/>
		<path class="st5" d="M412.7,988.7c0,3.8,7.7,7.1,18.3,8.2c2.4-5.4,4.8-11,7.2-16.7C424.1,980.3,412.7,984.1,412.7,988.7z"/>
		<path class="st6" d="M412.7,988.7c0,3.8,7.7,7.1,18.3,8.2c2.4-5.4,4.8-11,7.2-16.7C424.1,980.3,412.7,984.1,412.7,988.7z"/>
		<path class="st5" d="M464.7,988.7c0-2.4-2.9-4.5-7.6-6.1c-1.6,4.5-3.3,9-5,13.4C459.6,994.6,464.7,991.8,464.7,988.7z"/>
		<path class="st6" d="M464.7,988.7c0-2.4-2.9-4.5-7.6-6.1c-1.6,4.5-3.3,9-5,13.4C459.6,994.6,464.7,991.8,464.7,988.7z"/>
		<ellipse class="st5" cx="794.8" cy="962" rx="22.7" ry="9"/>
		<ellipse class="st6" cx="794.8" cy="962" rx="22.7" ry="9"/>
		<path class="st5" d="M315.6,974.5c0-1.7-2.3-3.2-5.7-4.1c-0.1,1.5-0.2,3-0.4,4.5c0,0,1.2,0.9,3,2.8
			C314.4,976.8,315.6,975.7,315.6,974.5z"/>
		<path class="st6" d="M315.6,974.5c0-1.7-2.3-3.2-5.7-4.1c-0.1,1.5-0.2,3-0.4,4.5c0,0,1.2,0.9,3,2.8
			C314.4,976.8,315.6,975.7,315.6,974.5z"/>
		<path class="st7" d="M1156.9,871c-0.2,0.4-0.4,0.8-0.6,1.2c0.3-0.2,0.5-0.5,0.8-0.7C1157,871.3,1157,871.1,1156.9,871z"/>
		<path class="st8" d="M1252,838.9c2.4-3.6,1.8-8.3,0.9-12.5c-0.9-4.1-2-8.3-4.5-11.7c-0.7-1-1.6-1.9-2.8-2.4
			c-0.5-0.2-1-0.2-1.5-0.2c-2.9,9.2,8.6,28.1,2.9,33.1C1250.5,844.1,1251.5,839.6,1252,838.9z"/>
		<path class="st8" d="M1313.1,846.3c2.1-0.2,3.8-1.9,5.1-3.6c3.1-4.2,4.7-9.4,8.2-13.2c2.1-2.3,4.8-4.1,7.7-5.1
			c3.2-1.1,6.6-1.3,9.7-2.6c1.5-0.7,3.1-2.2,2.6-3.8c-0.3-1-1.4-1.6-2.3-1.9c-1.4-0.5-2.9-0.7-4.4-0.7c-7.2,2.4-15.3,8.1-18.8,14.9
			c-5.6,10.9-8.3,17-12.1,14.2C1309.8,845.7,1311.4,846.5,1313.1,846.3z"/>
		<path class="st8" d="M1301.9,841c-2-6.3-6.3-11.8-11.4-16.1c-1.6-1.3-3.3-2.6-5.3-3.1c-2-0.5-4.3-0.2-5.8,1.3
			c-0.5,0.5-0.8,1-1,1.7c0.4,0.8,1,1.7,1.9,2.4c5.6,4.3,15.1,21.8,14.9,34.3c2.1-1.2,4.2-2.3,6.3-3.5
			C1303.7,852.6,1303.7,846.5,1301.9,841z"/>
		<path class="st8" d="M1156.6,929.4c-5.8-0.6-8.9,1.2-10,4c0.1,0.4,0.2,0.7,0.3,1c1,1.9,3.2,2.8,5.3,3c2.1,0.3,4.2,0,6.3,0.1
			c2.4,0.2,4.7,0.8,7,1.6c4.1,1.5,8,3.4,12.2,4.7c4.1,1.3,8.6,1.9,12.8,0.8c5.2-1.4,9.6-5.7,10.7-11c0.1-0.5,0.2-1.1,0.2-1.7
			c-0.4,0.9-0.9,1.7-1.6,2.6C1188.3,950.5,1173.1,931.1,1156.6,929.4z"/>
		<path class="st8" d="M1264.2,1036.2c-2.7-3.6-3.6-8.5-2.8-12.9c0.8-4.5,3.3-8.5,6.6-11.6c0.2-0.2,0.4-0.4,0.6-0.6
			c-0.6-4-1.4-8.2-2.3-12.6c-4.5,7.9-13.4,16.3-15.8,21.8c-4,9.2-2.5,30.7,12.1,32.6c5.3,0.7,7.1-1.8,7.6-5.4c0-2.2-0.6-4.4-1.9-6.2
			C1267.1,1039.5,1265.5,1038,1264.2,1036.2z"/>
		<path class="st8" d="M1161,987.4c6.9,3.1,14.9,2.2,22.2,0.2c7.3-1.9,14.4-4.9,21.9-5.8c6.4-0.8,12.9-0.1,19.3-0.3
			c6.4-0.2,13.2-1.4,18.2-5.5c1.4-1.1,2.6-2.5,3.4-4.1c0.8-1.8,1-3.7,0.7-5.7c-0.9,1.1-2.2,2-3.7,2.8c-12.3,6.3-44,5.4-65.8,4.7
			c-13.6-0.4-20.4,1.7-23.4,5.1c0.1,1.2,0.5,2.5,1.1,3.6C1156.3,984.7,1158.6,986.3,1161,987.4z"/>
		<path class="st8" d="M1179.1,843.1c0.7-1.2,0.9-2.5,1-3.9c0.4-4.8-0.5-9.8-3.2-13.8c-1.3-1.9-3.1-3.5-5.1-4.7c0,0-0.1,0-0.1-0.1
			c-0.2-0.1-0.3-0.2-0.5-0.3c-0.1-0.1-0.3-0.1-0.4-0.2c-0.1,0-0.1-0.1-0.2-0.1c-0.4-0.2-0.8-0.3-1.3-0.4c-0.1,0-0.1,0-0.2,0
			c-0.1,0-0.1,0-0.2-0.1c-0.9-0.2-1.9-0.3-2.8-0.2c-7.3,8.6,11.6,19.7,5.9,26.9c0,0,0,0,0,0c-0.1,0.1-0.3,0.2-0.4,0.4
			C1174.6,846.7,1177.7,845.6,1179.1,843.1z"/>
		<path class="st8" d="M1160.9,790.7c2.3,1.9,5.2,3.1,8.2,3.3c2.9,0.2,5.8-0.5,8.7-0.6c6.6-0.3,13.1,2.1,18.5,5.8
			c2.2,1.5,4.2,3.2,6.3,4.9c0,0,0,0,0,0c2.9,2.8,7.2,6.9,9.4,10.3c6.3,9.6,12.6,22.3,22.2,28.8c4.1,2.7,5.9,3.7,8.3,3.3
			c-7.9-1.3-14.3-19.9-22.4-35.9c-5.6-11.1-12-21-20.4-23.2c-18-4.8-34.1-8-39.5,2.4C1160.3,790.1,1160.6,790.4,1160.9,790.7z"/>
		<path class="st8" d="M1114.8,893.3c2.6,1,5.6,0.9,8.1-0.4c1.2-0.6,2.3-1.5,3.5-2.3c3.1-2.1,6.7-3.3,10.5-3.5
			c1.2-0.1,2.4-0.1,3.6,0c1.9,0.1,3.8,0.1,5.6,0c0.2,0,0.3,0,0.5-0.1c0.2,0,0.4,0,0.6-0.1c2.5-0.3,7.9-2,10-3.2
			c3.1-1.9,4.8-5.2,6.2-8.5c0.9-2.2,1.7-4.5,1.7-6.9c0.1-3.7-1.8-7.3-4.3-10.1c-0.6-0.6-1.2-1.2-1.8-1.8c-0.5-0.8-1.1-1.6-1.7-2.3
			c-2.7-3.1-6.1-5.3-9.4-7.7c-3.3-2.4-6.5-5-8.6-8.5c-0.9-1.6-1.6-3.3-2.6-4.7c-1.5-2.2-3.9-3.8-6.5-4.5c-1-0.3-2.1-0.4-3.1-0.2
			c-5.5,15.2,33.7,25.2,30.5,40.5c-0.2,0.8-0.4,1.5-0.7,2.1c0.1,0.1,0.1,0.3,0.2,0.4c-0.3,0.3-0.5,0.5-0.8,0.7
			c-6.1,9.9-28.2-3.8-39.3,6.3c-4.5,4.1-6.2,7.9-6.5,11.1C1111.4,891.3,1113,892.6,1114.8,893.3z"/>
		<path class="st7" d="M1285.2,821.8c2,0.5,3.7,1.8,5.3,3.1c5.1,4.3,9.4,9.8,11.4,16.1c1.8,5.5,1.8,11.6-0.4,16.9
			c11.6-6.4,22.8-12.2,31.8-16.7c0.8-1.7,2.3-3.2,4.6-4.4c6.5-3.4,10.8-6.8,13.3-10l-4.6-12.7c-2.1-0.1-4.5,0.3-7,1.2
			c1.5,0,3,0.2,4.4,0.7c1,0.3,2,0.9,2.3,1.9c0.5,1.6-1,3.1-2.6,3.8c-3,1.4-6.5,1.6-9.7,2.6c-3,1-5.6,2.8-7.7,5.1
			c-3.5,3.9-5.1,9-8.2,13.2c-1.3,1.7-3,3.4-5.1,3.6c-1.7,0.2-3.3-0.6-4.4-1.8c-0.3-0.2-0.7-0.5-1-0.9c-4.3-4.6,3.3-13-9.9-25.2
			c-9.7-9.1-22.3-0.2-19.4,6.4c0.2-0.6,0.5-1.2,1-1.7C1280.9,821.6,1283.2,821.3,1285.2,821.8z"/>
		<path class="st7" d="M1234.5,915l0.6-0.8c-0.8-2.3-0.8-4.6,0-7c2.2-6.5,11.7-14.9,24.5-23.8l0,0l0,0c4.9-3.4,10.2-6.9,15.8-10.3
			c-7.1-4.7-8.5-18.6-10.4-33.6c-2.6-21.1-8-38-18.4-30.7c-1.2,0.9-2,2-2.5,3.4c0.5,0,1,0,1.5,0.2c1.2,0.4,2,1.4,2.8,2.4
			c2.5,3.4,3.7,7.6,4.5,11.7c0.9,4.2,1.4,8.9-0.9,12.5c-0.4,0.7-1.5,5.2-4.9,6.4c-0.8,0.7-1.8,1.1-3.3,1.2c-0.4,0-0.9,0-1.3-0.1
			c-2.4,0.5-4.2-0.5-8.3-3.3c-9.5-6.4-15.8-19.2-22.2-28.8c-2.2-3.4-6.5-7.5-9.4-10.3c0,0,0,0,0,0c-2.1-1.6-4.1-3.4-6.3-4.9
			c-5.4-3.8-11.9-6.2-18.5-5.8c-2.9,0.1-5.8,0.8-8.7,0.6c-3-0.2-5.9-1.4-8.2-3.3c-0.3-0.3-0.6-0.6-0.8-0.9c-0.9,1.8-1.6,4.1-1.8,6.8
			c-1.7,18.4,33.7-4.4,41.8,22.8c8.1,27.2,6.1,46.3,25.3,62.8c19.1,16.5,2.2,28.2-13.7,8.5c-15.9-19.7-19.1-16.7-21.4-42.6
			c-2.3-25.9-14.2-38.3-23.4-29.7c-0.2,0.2-0.3,0.3-0.4,0.5c-0.1,0.1-0.2,0.2-0.3,0.3c0.9-0.1,1.9,0,2.8,0.2c0.1,0,0.1,0,0.2,0.1
			c0.1,0,0.1,0,0.2,0c0.4,0.1,0.9,0.3,1.3,0.4c0.1,0,0.1,0.1,0.2,0.1c0.1,0.1,0.3,0.1,0.4,0.2c0.2,0.1,0.3,0.2,0.5,0.3
			c0,0,0.1,0,0.1,0.1c2,1.2,3.8,2.8,5.1,4.7c2.7,4,3.6,9,3.2,13.8c-0.1,1.3-0.4,2.7-1,3.9c-1.4,2.5-4.5,3.6-7.4,3.4
			c-6.7,5.3-34.5-36.6-43.9-19.7c-0.3,0.5-0.5,1-0.7,1.6c1-0.2,2.1-0.1,3.1,0.2c2.6,0.7,4.9,2.3,6.5,4.5c1,1.5,1.7,3.2,2.6,4.7
			c2.1,3.5,5.3,6.1,8.6,8.5c3.3,2.4,6.7,4.7,9.4,7.7c0.6,0.7,1.2,1.5,1.7,2.3c0.6,0.6,1.2,1.2,1.8,1.8c2.5,2.8,4.3,6.3,4.3,10.1
			c0,2.4-0.8,4.7-1.7,6.9c-1.3,3.3-3.1,6.7-6.2,8.5c-2.1,1.3-7.5,2.9-10,3.2c-0.2,0-0.4,0-0.6,0.1c-0.2,0-0.3,0-0.5,0.1
			c-1.8,0.1-3.7,0.1-5.6,0c-1.2,0-2.4-0.1-3.6,0c-3.7,0.2-7.4,1.5-10.5,3.5c-1.1,0.8-2.2,1.7-3.5,2.3c-2.5,1.3-5.5,1.4-8.1,0.4
			c-1.8-0.7-3.4-2-4.3-3.7c-0.5,5.6,3.2,9.6,4.9,11.3c10.1,10.3,42.5-19.2,72.4,3.9c0,0,3.8,2.2,7.6,5.9c5.1,5,10.3,12.7,6,21.2
			c0,0.6-0.1,1.1-0.2,1.7c-1.1,5.3-5.5,9.6-10.7,11c-4.2,1.1-8.7,0.5-12.8-0.8c-4.1-1.3-8.1-3.2-12.2-4.7c-2.3-0.8-4.6-1.5-7-1.6
			c-2.1-0.1-4.2,0.2-6.3-0.1c-2.1-0.3-4.3-1.2-5.3-3c-0.2-0.3-0.3-0.7-0.3-1c-1.2,3.2,0.1,7.6,3.1,11.4c1.9,2.4,4.5,4.5,7.6,5.9
			c7.8,3.4,18.1,6.8,31.2,5.5c7.5-0.7,15.9-3,25.2-7.7c25.6-12.9,36.1,2.6,34.4,15c-0.2,1.1-0.6,2.1-1.4,2.9
			c0.3,1.9,0.1,3.9-0.7,5.7c-0.8,1.6-2,2.9-3.4,4.1c-5,4-11.8,5.3-18.2,5.5c-6.5,0.2-12.9-0.5-19.3,0.3c-7.5,0.9-14.6,3.9-21.9,5.8
			c-7.3,1.9-15.3,2.8-22.2-0.2c-2.4-1.1-4.7-2.7-6-5c-0.6-1.1-1-2.3-1.1-3.6c-2.9,3.3-2.2,7.9-0.7,12.6c3.1,9.5,39.6,21.8,62.3,13.5
			c20-7.3,36-24.8,46.7-22.6C1253.4,955.1,1234.5,915,1234.5,915z"/>
		<path class="st7" d="M1268,1011.7c-3.3,3.1-5.8,7.2-6.6,11.6c-0.8,4.5,0.1,9.3,2.8,12.9c1.3,1.8,3,3.2,4.2,5
			c1.2,1.8,1.8,4,1.9,6.2c0.7-5.2-1.3-12.8,1-16.9c-0.7-6.2-1.5-12.5-2.6-19.4C1268.4,1011.3,1268.2,1011.5,1268,1011.7z"/>
		<path class="st2" d="M1795.8,1079h-16.6h-8h-19h-13.4l-25,1c-4.4-12.3-4.8-24.2-3.1-33.1c-7.1-0.4-14.3-1-21.5-1.9
			c-5-0.6-10.3-1.2-15.7-1.6c0,10.7-1.6,23.4-2.6,36.5h57l69.1-0.8C1796.2,1079.2,1795.8,1079,1795.8,1079z"/>
		<path class="st2" d="M1538.3,1077.9c0,0,10.7-11.3,24.4-31c0-0.9,0-1.8,0-2.7c-5.5,0.2-11,0.4-16.4,0.6
			C1543.7,1056,1541,1067,1538.3,1077.9z"/>
		<path class="st2" d="M1785.2,1046.3c0.4,1.9,0.7,3.8,0.9,5.8c0.9-1.8,1.9-3.8,2.9-5.8C1787.7,1046.3,1786.4,1046.3,1785.2,1046.3z
			"/>
		<path class="st2" d="M1570.5,1073c-3.3,5-3.3,5-3.3,5l-29-0.4l-23.7,0c3.7-10.9,5.3-21,7.7-32c-17.1,0.4-33.1,0.4-47-0.6
			c-58-4-72-15.9-122.1-55.9c-45.1-36-111-54.1-117.9-74.9l-0.6,0.8c0,0,18.9,40.1,27.6,67.4c1.2,3.8,2.2,7.4,3,10.6
			c0.4,1.9,0.8,3.7,1.2,5.5c0.9,4.4,1.7,8.6,2.3,12.6c1.1,6.9,1.9,13.2,2.6,19.4c1.1,8.8,2,17.2,3.8,26.5c4.4,23,4.4,23,4.4,23
			l298.8,0C1576.1,1078.3,1572.1,1075.1,1570.5,1073z"/>
		<path class="st2" d="M1797.7,1080.2l91.4-0.2c-10-1.4-32.5-6.8-51.9-22.5c-3.5-2.8-7.5-4.9-12.1-6.5
			C1811,1075.6,1801.6,1080,1797.7,1080.2z"/>
		<polygon class="st2" points="1259.5,883.4 1259.5,883.4 1259.5,883.4 		"/>
		<path class="st9" d="M1787.9,886.8c0,0,13.7,33.1-3.7,75.1c0,0,11,28.3-6.7,63.6c0,0,5.3,9,7.6,20.8c1.3,0,2.5,0,3.8,0
			c18.4-36.7,46.7-101.7,64.1-182c-20.2,4.4-43.1,9.6-59.1,12.8C1792.2,880.2,1790.2,883.5,1787.9,886.8z"/>
		<path class="st9" d="M1895.2,857c-3,0-7.9,0.6-14,1.7c-10.8,60.1-24.8,120.6-39,155.8c-6.3,15.6-12,27.4-17.1,36.4
			c4.6,1.6,8.7,3.7,12.1,6.5c19.4,15.7,36.6,20.5,46.6,22c3.4,0.5,2.5,0.6,7.4,0.6h28.8V853.1C1918.5,853.7,1909.8,857,1895.2,857z"
			/>
		<path class="st9" d="M1546.2,1044.9c5.4-0.2,10.9-0.4,16.4-0.6c0.1-25.3,11.5-53,11.5-53c-5.6-1.5-10.7-3.2-15.3-5.3
			C1555.1,1005.8,1550.8,1025.4,1546.2,1044.9z"/>
		<path class="st9" d="M1722.1,952.5c-16.8-45.9,2.9-69,5.4-71.7c-25.2,0-55-0.3-82.5-0.7c-0.3,15.5-1.3,29-2.7,39.4
			c0.5,8.5,0.3,18.3-0.7,29.4c0,0,32.1,23.7,31.8,94.7c5.4,0.4,10.7,0.9,15.7,1.6c7.2,0.9,14.4,1.5,21.5,1.9
			c3-15.8,11.5-25.4,11.5-25.4C1702.7,981,1722.1,952.5,1722.1,952.5z"/>
		<path class="st9" d="M1259.5,883.4c-12.8,8.9-22.3,17.4-24.5,23.8c-0.8,2.4-0.8,4.7,0,7c6.9,20.8,72.8,38.9,117.9,74.9
			c50.1,40,64.1,51.9,122.1,55.9c13.9,1,29.9,1,47,0.6c0.9-4.1,1.8-8.3,2.9-12.6c2.4-10.5,4.5-21,5.6-31.7c0.5-4.7,2.2-8.9,2.6-13.5
			c0.5-5,1.3-10.1,1.9-14.8c0.1-1,0.2-2,0.4-3c-29.5-31.4-11.4-79.9-11.4-79.9c-7.5-4.5-13.6-9.5-18.5-14.9
			c-22.6-2.7-45.7-7.3-66.7-14.3c-40-13.3-82-28.5-85.9-29.9l0,0.3c0,0-7.9,3.7-19.7,9.7c-9,4.5-20.2,10.3-31.8,16.7
			c-2.1,1.1-4.2,2.3-6.3,3.5c-6.7,3.8-13.5,7.7-19.9,11.7C1269.7,876.5,1264.4,880,1259.5,883.4L1259.5,883.4z"/>
		<path class="st2" d="M1352.8,831c0,0,0.1,0,0.3,0.1c3.9,1.4,45.9,16.5,85.9,29.9c21.1,7,44.2,11.5,66.7,14.3
			c-20.3-22.4-19.7-51.4-14.8-73.4c-49.8-12.9-129.4-13.8-151.8-26.9c-6.2-3.6-10-9.3-12-16.4c0,2.1,0,2.1,0,2.1l19.5,53.4l4.6,12.7
			L1352.8,831z"/>
		<path class="st2" d="M1345.7,664.6c0,0-0.1,0.3-0.4,0.9c0.2-0.3,0.5-0.6,0.7-1L1345.7,664.6z"/>
		<path class="st2" d="M1801.8,823.1c3.5,12.2,4.8,31.2-7.8,54c16-3.1,38.8-8.4,59.1-12.8c3.4-15.9,6.5-32.4,8.9-49.4
			c-5.6,1.3-11,2.1-16.1,2.1C1828.2,817,1815.6,819.8,1801.8,823.1z"/>
		<path class="st2" d="M1727.6,880.8c0.2-0.2,0.3-0.3,0.3-0.3c-6.9-20.4-6.6-37.9-3.9-51.4c-29.5-3-62.5-7.9-80.4-3.2
			c1.5,19,1.9,37.6,1.6,54.1C1672.5,880.4,1702.3,880.8,1727.6,880.8z"/>
		<path class="st2" d="M1919.7,789.3c-2.6,1.6-14.7,8.9-29.7,15.7c-2.6,17.4-5.6,35.5-8.8,53.7c6.1-1.1,11-1.7,14-1.7
			c14.6,0,23.3-3.3,24.8-3.9v-31L1919.7,789.3z"/>
		<path class="st2" d="M1617,830.1c-0.7,9.3-2.9,19.3-6.9,30.1c0,0,5.4,0.8,11.7,6.1c0-0.4,0-0.8,0-1.3c-0.6-11.5-1.6-23.1-3-34.9
			C1618.2,830.1,1617.6,830.1,1617,830.1z"/>
		<path class="st9" d="M1858.2,460.7c0,0,2.7,17.5,1.5,38.5c27.6,77.9,42.9,158.6,41.5,202.1c-0.7,23.2-4.9,61.2-11.2,103.7
			c15-6.7,27.2-14.1,29.7-15.7l0.3,32.8V443c-1.8-0.2-13.6-1.4-34.1-2.1C1878.9,449.2,1869.9,456.1,1858.2,460.7z"/>
		<path class="st9" d="M1834.9,561.4c0,0,13.7,44.3-17,78.3c0,0,20.7,45-8.7,82c0,0,20,51.4-14.3,86.4c0,0,4.1,5.5,6.9,15
			c13.8-3.3,26.4-6.1,44-6.1c5.1,0,10.5-0.8,16.1-2.1c11.2-78.9,9.6-168.6-21-259C1839.1,557.9,1837.1,559.7,1834.9,561.4z"/>
		<path class="st9" d="M1578.4,569.1c0,0,27.5,52.5-18.3,94.2c0,0,25.8,14.3,23.3,89.3c0,0,26.6,19.7,32.6,55.7
			c-10.9-79.2-30.3-166.4-11.4-263.7C1598.1,554.1,1589.5,562.8,1578.4,569.1z"/>
		<path class="st9" d="M1339.1,775c22.4,13,102,13.9,151.8,26.9c4.2-18.9,11.6-32.7,11.6-32.7c-44.2-51.7-1.7-106-1.7-106
			c-11.1-23.8-13.2-44.3-10.9-61.3c-1.5-5.2-2.9-10.4-4.4-15.6c-22,12.5-36.3,20.7-36.3,20.7s-77.5,25.3-103.2,57.5
			c-0.3,0.3-0.5,0.6-0.7,1c-2.9,3.8-5,7.6-6.3,11.5c-9,28.3-17.9,60.9-11.9,81.6C1329.1,765.7,1332.9,771.4,1339.1,775z"/>
		<path class="st9" d="M1617,830.1c0.6,0,1.2,0,1.8,0c-0.6-5.3-1.3-10.6-2-15.9C1617.3,819.2,1617.4,824.5,1617,830.1z"/>
		<path class="st9" d="M1723.9,829.1c3.9-19.4,12.8-30.6,12.8-30.6c-24.5-36,9.5-87.5,9.5-87.5c-18.5-34,17.5-88.5,17.5-88.5
			c-11.5-52.5,16.9-85.5,16.9-85.5c-1.3-30.3,12.7-57.5,22.9-73.3c-3-7.4-5.8-14.7-8.6-21.8c-5.6,0.3-11.3,0.6-17.3,1
			c-90.3,6-43.7,8-120,48c-4.2,2.2-8.5,4.5-12.9,6.8c-17.4,50.2-20.3,69.7-23.6,112.5c-4.7,61.3,4,106.7,15.3,163.3
			c3.4,16.8,5.6,34.7,7,52.2C1661.4,821.2,1694.3,826.1,1723.9,829.1z"/>
	</g>
	<polygon class="st1" points="763.6,586.3 763.6,758.6 1202.9,755.7 1188.6,531.4 1137.8,473.7 	"/>
	<polygon class="st1" points="518.1,205.7 877.4,195.6 894.1,371.2 576,371.2 	"/>
	<polyline class="st1" points="570.4,708.2 581.9,713.4 756.3,634.7 745,530.3 685.7,559 570.4,708.2 	"/>
	<path class="st5" d="M386.9,1079c0,0,11.8-17.7,12.1-21.7l15.5-166.3l73.8-7.8l-19,179.4l-34.9,16.7l-47.5,0.6"/>
	<path class="st2" d="M464.6,885.5c0,0,5.2-0.6,17.5-1.6l118.3-162c0,0-40.1-18.4-50.4-22.5l-91.6,103.8l-10.7,77.2L464.6,885.5z"/>
	<path class="st6" d="M464.7,988.5c0-5.2-11.2-9.5-25.1-9.5c-13.9,0-25.1,4.3-25.1,9.5c0,5.2,11.2,9.5,25.1,9.5
		C453.5,998,464.7,993.8,464.7,988.5z"/>
	<path class="st1" d="M511.3,681.2c0,0,24.4,15.2,34.5,16.5s131.3-111.4,131.3-111.4l29-112.6h-71.7L511.3,681.2z"/>
	<path class="st10" d="M355.8,893.3c0,0-8.9,128.7-9,137c-0.2,8.2-9.8-38-9.8-38l6-100.5L355.8,893.3"/>
	<path class="st2" d="M518,685.2l21.6,10.7c0,0-115,106.6-131.1,124.2c0,0,13.4-33.8,13.6-53.9L518,685.2z"/>
	<polygon class="st1" points="1469,569.7 1482.4,601.9 1535.4,579 1516.4,133 1441,105 1405.4,550.5 	"/>
	<polygon class="st9" points="1512.1,1031.1 1509.8,1046.6 1550.5,1045.6 1565.8,989.6 1567.3,978.8 1533.2,959.5 	"/>
	<polygon class="st9" points="1477.8,590.7 1516.4,565.9 1499.5,605.8 1484.1,609.5 	"/>
	<path class="st11" d="M422,766.2c0,0,0,22.1-13.6,53.9c-8.7,20.4-41.6,198.7-29.4,260.1l-32.6-1.3c0,0,1.2-152.8,13.2-218.7l30-81
		L422,766.2z"/>
	<polygon class="st11" points="1560,641.5 1532,641.5 1554.5,864.3 1593.5,845.3 1570.5,713.1 1555,665 	"/>
	<path class="st10" d="M1512.2,553.8c0,0-30.4,44.6-22.1,74s0,22.4,10.8,35.1l30.7,289l-1.3,11.4c0,0,9.6,16.1,33.1,24.2l18.5-35.3
		l-4.2-106c0,0-55.9-129.5-25.9-219.9L1512.2,553.8"/>
	<polygon class="st2" points="1519.8,1045.9 1548.5,1044.8 1538.3,1080 1511.2,1080 	"/>
	<ellipse class="st1" cx="1276.3" cy="241.6" rx="154.7" ry="129.6"/>
</g>
<g id="Layer_11">
	<path class="st10" d="M1779.3,675c5.6-40.4,24.1-101.3,44.9-161.6c-7.5-17.2-14.4-33.7-20.8-49.5c-10.3,15.7-24.2,43-22.9,73.3
		c0,0-28.4,33-16.9,85.5c0,0-36,54.5-17.5,88.5c0,0-34,51.5-9.5,87.5c0,0-8.9,11.2-12.8,30.6c-2.7,13.5-3,31,3.9,51.4
		c0,0-0.1,0.1-0.3,0.3c-2.5,2.7-22.3,25.8-5.4,71.7c0,0-19.4,28.5,0.1,69c0,0-8.5,9.6-11.5,25.4c-1.7,8.9-1.3,20.8,3.1,33.1l25.1,0
		C1737.4,909,1764.3,783,1779.3,675z"/>
	<path class="st10" d="M1844,458.2c26.6-72.2,52.1-133.6,56.3-143.7v-1.2c0,0-56.3,43.7-78,98.4C1830,426.5,1837.2,442.2,1844,458.2
		z"/>
	<path class="st11" d="M1743.4,271.6c-2.4,4.1-4.8,8.4-7.2,12.8c3-4,5.5-7.7,7.6-11c9,44.7,24.7,100.5,51.2,169.6
		c2.7,7.1,5.6,14.4,8.6,21.8c6.4,15.9,13.3,32.4,20.8,49.5c-20.9,60.4-39.3,121.2-44.9,161.6c-15,108-42,233-40.5,404h13.4h19h8
		h16.6c0,0,0.4,0.2,1.2,0.2c0.2,0,0.5,0,0.7,0c3.8-0.2,13.4-3.6,27.5-28.3c5.1-9,10.9-20.9,17.1-36.4c14.2-35.3,28.2-95.7,39-155.8
		c3.3-18.2,6.2-36.3,8.8-53.7c6.4-42.5,10.5-80.5,11.2-103.7c1.4-43.5-13.9-124.1-41.5-202.1c1.2-21-1.5-38.5-1.5-38.5
		c11.7-4.6,20.7-11.5,27.6-19.8c36.5-43.9,15-127.9,15-127.9s-0.2,0.5-0.6,1.5c-4.2,10.1-29.6,71.5-56.3,143.7
		c-6.7-16.1-14-31.7-21.7-46.6c-2.9-5.6-5.9-11.2-9-16.5c-24.1-42.2-42-99.3-54.4-150.6c-1.1-4.3-2.1-8.6-3-12.8
		c-14.3-62-20.6-112.6-20.6-112.6c1.1,9.1-9.4,46.4,3.9,128.4C1740.4,255.8,1741.8,263.6,1743.4,271.6z M1862,815.9
		c-2.4,17-5.4,33.5-8.9,49.4c-17.4,80.3-46.2,145.1-64.6,181.8c-1,2-1.6,3.1-2.5,5c-0.2-2-0.3-2.9-0.6-4.8
		c-1.9-11.6-7.6-21.2-7.6-21.2c17.7-35.3,6.4-63.1,6.4-63.1c17.3-42,3.7-75.1,3.7-75.1c2.3-3.3,4.3-6.6,6.1-9.7
		c12.6-22.8,11.3-41.8,7.8-54c-2.8-9.5-6.9-15-6.9-15c34.3-35,14.3-86.4,14.3-86.4c29.3-37,8.7-82,8.7-82c30.7-34,17-78.3,17-78.3
		c2.2-1.6,4.2-3.4,6-5.4C1871.6,647.3,1873.2,737,1862,815.9z"/>
</g>
<g id="Algue_1d_d">
	<path class="st12" d="M1519.9,704c24.5,88.1,26.5,176.1,15.7,266c-0.1,1-0.2,2-0.4,3c-0.6,4.7-1.4,9.9-1.9,14.8
		c-0.5,4.6-2.2,8.8-2.6,13.5c-1.1,10.7-3.2,21.2-5.6,31.7c-1.1,4.3-2,8.5-2.9,12.6c-2.4,11-5.7,23.9-9.4,34.8l25.5-0.5
		c2.7-11,5.4-24,8-35.1c4.6-19.5,8.8-39.1,12.6-58.9c8.1-42.1,14.2-84.6,16.6-127.9c0.4-7.3,0.4-14.4,0.1-21.5
		c-0.4-13.4-1.7-26.7-3-40.5c-1.6-17-4.2-33.9-7.5-50.7c-2.1-10.9-3.4-21.9-6.5-32.6c-3.2-11.1-6.3-22.2-9.3-33.3
		c-1.5-5.7-3.1-11.3-4.8-16.9c-10.6-35.5-24.1-69.9-35.6-105.1c-2.4-7.2-4.6-14.4-6.8-21.7c-9-30.6-15.5-62-19.8-93.6
		c-5.4-39.5-7.3-79.4-7.1-119.2c0.1-20,0.8-40,1.8-60c0.5-10,1.1-20,1.8-30c0.7-9.8,0.8-19.6,1.6-29.3c1-12.3,3.4-24.9,5.1-37.2
		c1.2-9,2.1-18.9,4.1-28.1c0.8-2.5,1.8-5.9,2.6-9.6c-37.3,105.9-53.6,217.9-34.9,331.9c3,13,3.9,26,6.9,39
		c6.2,30,13.4,58.4,21.1,86.4c1.4,5.2,2.9,10.4,4.4,15.6C1499.6,635.7,1509.9,669.1,1519.9,704z"/>
</g>
<g id="Algue_2d_d">
	<path class="st10" d="M1519.9,704c-10-34.9-20.3-68.3-30-102.1c-2.3,16.9-0.2,37.4,10.9,61.3c0,0-42.5,54.4,1.7,106
		c0,0-7.4,13.8-11.6,32.7c-4.9,22-5.5,51,14.8,73.4c4.9,5.4,11,10.4,18.5,14.9c0,0-18.1,48.5,11.4,79.9
		C1546.4,880.1,1544.4,792.1,1519.9,704z"/>
	<path class="st10" d="M1625,998.8l-4.2-13.1c9.9-22.3,17.6-44.1,20.4-58.7c0.4-2.3,0.8-4.8,1.2-7.6c1.4-10.3,2.4-23.9,2.7-39.4
		c0.3-16.5-0.1-35.1-1.6-54.1c-1.4-17.5-3.6-35.4-7-52.2c-11.3-56.7-20-102-15.3-163.3c3.3-42.8,6.2-62.2,23.6-112.5
		c7.5-21.7,17.7-49.2,31.8-86.8c17.9-47.8,39.6-91.7,59.6-127.6c2.4-4.4,4.8-8.6,7.2-12.8c-1.6-8.1-3-15.8-4.2-23.1
		c-11.6,2.5-28.1,11-41.6,37.4c0,0-46.8-5.5-73.4,71.7c0,0-40-10.8-59.2,78.3c0,0-76.7,26.7-42.5,109.2c0,0-6.3,4.6-13.4,13.6
		c11.5,35.1,25,69.6,35.6,105.1l-0.1-4.6l15.4-65.8l17.1-93.7l54.6-97.1l32.5-56.7l51.5-53.6c-12.8,21.7-26.7,47.8-42.8,80
		c-6.5,13-13.3,27-20.6,42.2c-4.7,9.8-9.5,20-14.5,30.7c-0.4,0.8-0.8,1.6-1.1,2.4c-4,8.6-7.6,17.1-10.9,25.5
		c-9.7,24.8-16.6,48.9-21.2,72.5c-18.9,97.3,0.5,184.5,11.4,263.7c0.3,2,0.5,4,0.8,6c0.7,5.3,1.4,10.6,2,15.9
		c1.3,11.8,2.4,23.4,3,34.9c0,0.4,0,0.8,0,1.3c1.4,30.7-3.6,59.8-11.8,86l-27.9-86.2l-6.5-29.5c0.2,7.1,0.2,14.3-0.1,21.5
		c-2.4,43.2-8.5,85.8-16.6,127.9c4.6,2,9.7,3.8,15.3,5.3c0,0-11.4,27.6-11.5,53c0,0.9,0,1.8,0,2.7c-13.7,19.7-26.2,33-26.2,33
		l29.3,0c0,0,0,0,4.7-7c1.6,2.1,3.6,4.1,5.8,5.7c0.1,0.1,0.3,1.5,0.5,1.6h60.3l5.4-0.2L1625,998.8z"/>
	<path class="st10" d="M1795.8,188.5c-14.2,13.4-27.1,26.8-40,43.2c1,4.2,2,8.5,3,12.8C1780.2,209.6,1795.8,188.5,1795.8,188.5z"/>
	<path class="st11" d="M1558.7,712.9c3.1,10.7,4.4,21.7,6.5,32.6c3.2,16.8,5.9,33.7,7.5,50.7c1.3,13.7,2.5,27,3,40.5l6.5,29.5
		l27.9,86.2c8.2-26.2,13.2-55.3,11.8-86c-6.4-5.2-11.7-6.1-11.7-6.1c4.1-10.8,6.2-20.8,6.9-30.1c0.4-5.6,0.3-10.9-0.1-15.9
		c-0.3-2-0.5-4-0.8-6c-6.1-36-32.6-55.7-32.6-55.7c2.5-75-23.3-89.3-23.3-89.3c45.8-41.7,18.3-94.2,18.3-94.2
		c11.2-6.3,19.7-14.9,26.3-24.6c4.6-23.5,11.4-47.7,21.2-72.5c0.3-7,0.1-11.3,0.1-11.3c4.7-5.8,8.6-11.3,12-16.6
		c5-10.7,9.9-20.9,14.5-30.7c5.5-17.8,3.5-28.5,3.5-28.5c6.4-4.6,12.1-9.1,17.1-13.6c16.1-32.2,30-58.3,42.8-80l-51.5,53.6
		l-32.5,56.7l-54.6,97.1l-17.1,93.7l-15.4,65.8l0.1,4.6c1.7,5.6,3.3,11.2,4.8,16.9C1552.4,690.7,1555.5,701.8,1558.7,712.9z"/>
	<path class="st11" d="M1641.7,948.8c1-11.1,1.2-20.9,0.7-29.4c-0.4,2.8-0.8,5.3-1.2,7.6c-2.8,14.6-10.5,36.3-20.4,58.7l4.2,13.1
		l17.4,81.2l28.5,0c0,0,0-1.1,0-1.1c1.7-12.9,2.5-24.7,2.6-35.4C1673.8,972.5,1641.7,948.8,1641.7,948.8z"/>
</g>
<g id="Algue_4d_g">
	<path class="st10" d="M265,949.8c-6.6-19-14.1-37.7-19.7-57c-2.1-7.3-4.4-14.1-5.8-21.7c-4.5-24-9.5-47.7-11.7-72.1
		c-2.5-27.5-1.9-55.1,1.4-82.5c4.3-35.3,13.1-69.9,24.2-103.5c42-127.4,145.4-199.4,145.5-199.5c-0.1,0-26.2-6.4-44.8,30.2
		c0,0-35.5-4.1-56.9,52.5c-0.6,1.6-1.2,3.2-1.7,4.8c0,0-32-8.7-47.3,62.7c0,0-61.3,21.3-34,87.3c0,0-2.7,2-6.4,5.9
		c-11.5,12.1-32.7,42.8-11,89.4c0,0-34,43.5,1.3,84.8c0,0-34.7,64.7,16.2,96.1c0.4,0.2,0.8,0.5,1.2,0.7c0,0-24,64.2,40,80.9
		c0,0-21.9,54,2.1,71l48.5,0c-1.3-20-9.2-34.8-14.3-50.7C283.1,1002.7,274.1,976,265,949.8z"/>
	<path class="st11" d="M321.3,989.6c-3.3-5.7-6.5-9.6-8.7-11.9c-1.9-1.9-3-2.8-3-2.8c0.1-1.5,0.3-3,0.4-4.5
		c2.5-36.4-6.9-52.9-15-60.4c-5.7-5.2-10.7-6-10.7-6c6.3-16.6,6.8-31,4.5-43c-0.1-0.4-0.1-0.8-0.2-1.1c-5.6-27.2-25.6-42-25.6-42
		c1-31.2-4.1-49.3-9.2-59.5c-2-3.9-3.9-6.6-5.5-8.4c-0.2-0.3-0.4-0.5-0.6-0.7c-2-2.1-3.3-2.8-3.3-2.8c4.6-4.2,8.2-8.4,11.1-12.8
		c20.4-30.4,3.6-62.6,3.6-62.6c41.3-23.3,38-86.7,38-86.7c28.7-35.3,24-60.7,24-60.7c1-0.7,2-1.4,2.9-2.1
		c38.9-29,41.1-57.2,41.1-57.2c34-31.3,34.1-50.8,34.1-50.8l0,0v0l0,0c-0.1,0.1-103.5,72-145.5,199.5
		c-11.1,33.7-19.9,68.3-24.2,103.5c-3.4,27.4-3.9,55-1.4,82.5c2.2,24.4,7.2,48.1,11.7,72.1c1.4,7.5,3.7,14.4,5.8,21.7
		c5.6,19.3,13.1,38,19.7,57c9.1,26.2,18.2,52.9,26.8,79.3c5.2,15.9,12.2,33.7,14.3,50.7h3.9h11.2l11.7,0
		C339.1,1033.3,329.9,1004.6,321.3,989.6z"/>
</g>
<g id="Algue_3d_g_1_">
	<path class="st10" d="M347.6,1004.7c-0.3-11.8-0.1-23.8,0.2-35.7c0.5-19.2,2.6-38.8,6.2-58c8.8-90.7,23.3-166.9,33-236
		c14.3-103.2,112.3-339.8,120.9-360.5v-1.2c0,0-84.3,65.4-86.3,136.4c0,0-35.4,39.9-33.4,87.4c0,0-9.6,11.2-15.4,30.9
		c-4.1,14.1-6.3,32.6-1.5,54.5c0,0-28.7,43.5-21.6,77c0.8,4,2.2,7.8,4.2,11.4c0,0-20.9,31.7-18.1,62.8c0,0.2,0,0.4,0.1,0.6
		c0.2,2.2,0.6,4.4,1,6.5c0,0.2,0.1,0.4,0.1,0.6c0,0.1,0.1,0.3,0.1,0.4c0.2,0.9,0.5,1.8,0.7,2.7c1.4,4.8,3.5,9.4,6.6,13.9
		c0,0-12.1,15.2-14.2,40.9c0,0.4-0.1,0.7-0.1,1.1c-0.8,11.5,0.3,25,5.5,40.1c0,0-8,7.8-11.2,24c-2.3,11.6-2,27.5,5.5,47.9
		c0,0-9.8,14.3-8.5,37.1c8.6,15,17.8,43.7,11.6,90.3l13.6,0.2C346.2,1054.2,346.7,1028.5,347.6,1004.7z"/>
	<path class="st11" d="M408.5,820.1c-46.9,76-48.6,172.3-32.3,258L360,1078c-8.9-23.7-11.8-48.4-12.4-73.3
		c-0.9,23.8-1.4,49.5-1.2,75.3h13.7h26.8c18.9-26-1.7-54.5-1.7-54.5c17.7-35.3,6.7-63.6,6.7-63.6c12.8-30.9,8.7-57.1,5.7-68.7
		c-1.1-4.1-2-6.5-2-6.5C415.9,857.7,413.2,833.7,408.5,820.1z"/>
	<path class="st11" d="M387,675c-9.6,69.2-24.1,145.3-33,236c2.5-13.3,5.6-26.5,9.4-39.3c6.5-21.7,14.5-43.5,28.1-61.9
		c8.5-11.5,17.5-22.8,27.4-33.1c0.5-0.5,1-1,1.5-1.5c6.4-27.5-3.6-53.5-3.6-53.5c29.3-37,8.7-82,8.7-82c4.4-4.8,7.8-9.9,10.6-15
		c16.5-30.7,6.5-63.4,6.5-63.4c34.8-26,23.3-100.7,23.3-100.7c73-28.7,42.6-147.7,42.6-147.7s-0.2,0.5-0.6,1.5
		C499.2,335.2,401.3,571.8,387,675z"/>
</g>
<g id="Algue_2d_g">
	<path class="st12" d="M449.4,751.1c-9.1,9.3-19.7,16.8-28.9,26c-0.5,0.5-1,1-1.5,1.5c-9.9,10.3-18.9,21.6-27.4,33.1
		c-13.6,18.4-21.6,40.2-28.1,61.9c-3.8,12.8-7,25.9-9.4,39.3c-3.6,19.2-5.7,38.8-6.2,58c-0.3,11.9-0.5,23.8-0.2,35.7
		c0.6,24.9,3.5,49.6,12.4,73.3l16.2,0.1c-16.3-85.7-14.6-181.9,32.3-258c3-4.8,6.1-9.5,9.4-14.1c30-36,68-63,104-95
		c5.9-5.4,11.8-10.6,17.7-15.8c6.1-5.3,12.2-10.7,18.3-16.2c3-3,6-7,9-10c14-13,28-26,41-42c20-24,36-49,47-78c4-13,8-26,10-40
		c1-12,2-25,2.6-37c-1.6,30-12.6,58-27.6,85c-8.9,16-18.7,31.5-31,44.9c-5.5,6.1-10.9,11.6-17,17.1c-19,17-37,33-56,50
		c-6,5.4-11.9,10.8-17.7,16.2c-9.4,8.7-18.7,17.4-28,26.2C476.7,725.9,462.1,738.1,449.4,751.1z"/>
</g>
<g id="Algue_1d_g">
	<path class="st12" d="M554.9,737.3c11.9-11.1,16.2-15.3,27.4-24.3c6.3-5.1,14.7-11.6,28-21.7c36.7-28,65.4-51.3,88.7-78
		c23.3-26.7,16-63.3,16-63.3c0,41-11,49-131,147.1c-4.6,3.7-9,7.3-13.2,10.8c-106.2,87.5-98.2,91.4-105.9,175.1
		c-0.1,0.8-0.2,1.6-0.3,2.4c-3.2,30.9-14,64.4-26.4,94.7c-2.3,5.7-4.8,11.3-7.2,16.7c-20.9,46.6-44.1,83.1-44.1,83.1l22.2-0.2
		c0,0,13.8-24.5,30.4-55.8c4.3-8,8.5-17.8,12.5-27.9c1.7-4.4,3.4-8.9,5-13.4c9.1-25.2,15.8-48.7,15.8-48.7c3.5-19.4,6.5-36,9.2-50.2
		c17.4-92.1,19.7-85.1,25.8-97.8C514.9,771.3,536.2,754.7,554.9,737.3z"/>
</g>
<g id="Algue_1d_d">
	<path class="st12" d="M1519.9,704c24.5,88.1,26.5,176.1,15.7,266c-0.1,1-0.2,2-0.4,3c-0.6,4.7-1.4,9.9-1.9,14.8
		c-0.5,4.6-2.2,8.8-2.6,13.5c-1.1,10.7-3.2,21.2-5.6,31.7c-1.1,4.3-2,8.5-2.9,12.6c-2.4,11-5.7,23.9-9.4,34.8l25.5-0.5
		c2.7-11,5.4-24,8-35.1c4.6-19.5,8.8-39.1,12.6-58.9c8.1-42.1,14.2-84.6,16.6-127.9c0.4-7.3,0.4-14.4,0.1-21.5
		c-0.4-13.4-1.7-26.7-3-40.5c-1.6-17-4.2-33.9-7.5-50.7c-2.1-10.9-3.4-21.9-6.5-32.6c-3.2-11.1-6.3-22.2-9.3-33.3
		c-1.5-5.7-3.1-11.3-4.8-16.9c-10.6-35.5-24.1-69.9-35.6-105.1c-2.4-7.2-4.6-14.4-6.8-21.7c-9-30.6-15.5-62-19.8-93.6
		c-5.4-39.5-7.3-79.4-7.1-119.2c0.1-20,0.8-40,1.8-60c0.5-10,1.1-20,1.8-30c0.7-9.8,0.8-19.6,1.6-29.3c1-12.3,3.4-24.9,5.1-37.2
		c1.2-9,2.1-18.9,4.1-28.1c0.8-2.5,1.8-5.9,2.6-9.6c-37.3,105.9-53.6,217.9-34.9,331.9c3,13,3.9,26,6.9,39
		c6.2,30,13.4,58.4,21.1,86.4c1.4,5.2,2.9,10.4,4.4,15.6C1499.6,635.7,1509.9,669.1,1519.9,704z"/>
</g>
<g id="Nemo">
	<path class="st1" d="M-140.7,934.3c-2,0.6-4.2,1.5-6.5,2.6c1.9-3.1,5.2-7.7,10.3-11.9c8.7-7.1,24.9-16.4,41.9-15.8
		c15.6,0.6,26.4,16.9,28,19.6l-0.5-0.1C-121.6,924.4-140.7,934.3-140.7,934.3z"/>
	
		<linearGradient id="SVGID_1_" gradientUnits="userSpaceOnUse" x1="1583.0422" y1="990.1363" x2="1583.0422" y2="955.7975" gradientTransform="matrix(-0.9985 -5.490000e-02 -5.490000e-02 0.9985 1527.4482 41.1568)">
		<stop  offset="0" style="stop-color:#DD2829"/>
		<stop  offset="0.1939" style="stop-color:#DF3630"/>
		<stop  offset="0.7161" style="stop-color:#E35841"/>
		<stop  offset="1" style="stop-color:#E56548"/>
	</linearGradient>
	<path class="st13" d="M-140.7,934.3c-2,0.6-4.2,1.5-6.5,2.6c1.9-3.1,5.2-7.7,10.3-11.9c8.7-7.1,24.9-16.4,41.9-15.8
		c15.6,0.6,26.4,16.9,28,19.6l-0.5-0.1C-121.6,924.4-140.7,934.3-140.7,934.3z"/>
	<path class="st1" d="M-67.2,1019.5c-4.4,6.1-10.7,10.5-17.8,12.9c-4.7,1.6-9.5,2.1-14.4,2.8c-7.6,1.1-16.6-3-19.9-9.7
		c-0.2-0.4-0.3-0.7-0.4-1c23.1-1.4,46.1-8.5,58.3-12.8C-63.6,1014.7-66.8,1019-67.2,1019.5z"/>
	
		<linearGradient id="SVGID_2_" gradientUnits="userSpaceOnUse" x1="1487.6843" y1="1035.3066" x2="1487.6843" y2="1003.7087" gradientTransform="matrix(-1 0 0 1 1397.1334 0)">
		<stop  offset="0" style="stop-color:#DD2829"/>
		<stop  offset="0.1939" style="stop-color:#DF3630"/>
		<stop  offset="0.7161" style="stop-color:#E35841"/>
		<stop  offset="1" style="stop-color:#E56548"/>
	</linearGradient>
	<path class="st14" d="M-67.2,1019.5c-4.4,6.1-10.7,10.5-17.8,12.9c-4.7,1.6-9.5,2.1-14.4,2.8c-7.6,1.1-16.6-3-19.9-9.7
		c-0.2-0.4-0.3-0.7-0.4-1c23.1-1.4,46.1-8.5,58.3-12.8C-63.6,1014.7-66.8,1019-67.2,1019.5z"/>
	<path class="st15" d="M-7.4,963.3l-1.3,0.4c2.7-1,5-2.7,1.6-4.8c-6-3.7-29-26-45.3-26c0,0-3.3,6.9-5.6,12.2
		c-1.4,3.5-2.7,7.2-3.5,10.6c-0.5,3-0.6,5.7-0.6,6.9c0,1.2,1.1,4.1,2.5,7.2l0-0.1c1.2,2.5,2.6,5.3,4.2,8.1c2.6,4.3,6.6,10,8.6,13
		c0.4,0.5,0.7,0.9,1.1,1.4c2.7,3.1,7.2,6.4,7.2,6.4c0.5-0.4,1.1-0.8,1.6-1.2c5.6-4.1,11.4-8,16.7-12.5c2.3-1.9,4.1-4.1,6.1-6.2
		c2.2-2.2,4.1-4.8,5.5-7.5c0.8-1.6,3.4-2.2,3.8-4C-4.3,965.6-6.2,963.9-7.4,963.3z M-35.9,953c0,3-2.5,5.5-5.5,5.5
		c-3,0-5.5-2.5-5.5-5.5c0-3,2.5-5.5,5.5-5.5C-38.4,947.5-35.9,950-35.9,953z"/>
	<path class="st15" d="M-121.2,1018.5c5.5,2.5,20.8-0.3,28.3-2.1c7.5-1.8,10.5-3.7,11.5-11.2c1-7.5-6.8-27.2-6.8-27.2l-20.3-14
		c-0.4,1-1.2,2.4-2.1,4.2c-1.1-0.8-2.3-1.6-3.6-2.5c-18-11.8-26.4-31.4-26.4-31.4s19.1-9.9,73.3-5.6c0,0-15.7,28.5-11.8,39.8
		c3.8,11.3,26.7,39.7,26.7,39.7s-3.3,1.4-8.9,3.4c-12.2,4.3-35.2,11.3-58.3,12.8c-4,0.3-8.1,0.3-12,0.2c0,0,2.7-3.3,6.7-8
		C-124.1,1017.1-122.9,1017.8-121.2,1018.5z"/>
	<path class="st16" d="M-60,949.4c-0.8,1.9-1.3,4.2-1.6,6.3c-0.5,3-0.6,5.7-0.6,6.9c0,1.2,1.1,4.1,2.5,7.2c1,2.2,2.1,4.5,3.2,6.3
		c0.3,0.6,0.7,1.2,1.1,1.8c2.6,4.3,6.6,10,8.6,13c0,0,0,0,0,0c0.3,0.4,0.7,0.9,1.1,1.4c2.7,3.1,7.2,6.4,7.2,6.4l-14,9.7
		c0,0-22.8-28.3-26.7-39.7c-3.8-11.3,11.8-39.8,11.8-39.8l0.5,0.1l14.4,4c0,0-3.3,6.9-5.6,12.2C-58.9,946.8-59.6,948.3-60,949.4z"/>
	<path class="st1" d="M-164.4,947.7c-1.6,1-21.6,12.9-44.1,28.3c-1.2-2.3-0.8-5.3-0.8-7.6c0-3.1-1-10.9,15-20.9
		c12.8-8,33-7.6,40.6-7.2c-6,3.5-10.9,7.2-10.9,7.2S-164.4,947.6-164.4,947.7z"/>
	
		<linearGradient id="SVGID_3_" gradientUnits="userSpaceOnUse" x1="1578.584" y1="978.3931" x2="1578.584" y2="940.1714" gradientTransform="matrix(-1 0 0 1 1397.1334 0)">
		<stop  offset="0" style="stop-color:#DD2829"/>
		<stop  offset="0.1939" style="stop-color:#DF3630"/>
		<stop  offset="0.7161" style="stop-color:#E35841"/>
		<stop  offset="1" style="stop-color:#E56548"/>
	</linearGradient>
	<path class="st17" d="M-164.4,947.7c-1.6,1-21.6,12.9-44.1,28.3c-1.2-2.3-0.8-5.3-0.8-7.6c0-3.1-1-10.9,15-20.9
		c12.8-8,33-7.6,40.6-7.2c-6,3.5-10.9,7.2-10.9,7.2S-164.4,947.6-164.4,947.7z"/>
	<path d="M-35.9,953c0-3-2.5-5.5-5.5-5.5c-3,0-5.5,2.5-5.5,5.5c0,3,2.5,5.5,5.5,5.5C-38.4,958.5-35.9,956.1-35.9,953z M-42.6,952.2
		c0,1.2-1,2.1-2.1,2.1c-1.2,0-2.1-1-2.1-2.1c0-1.2,1-2.1,2.1-2.1C-43.5,950-42.6,951-42.6,952.2z"/>
	<path class="st1" d="M-151,1024.3c-3,2.4-15.6,11.3-33.6,11c-20.3-0.4-25.4-14.7-27.2-21.6c0.6,0.1,1,0.1,1,0.1
		S-205.9,1018.7-151,1024.3z"/>
	
		<linearGradient id="SVGID_4_" gradientUnits="userSpaceOnUse" x1="1578.5029" y1="1035.3184" x2="1578.5029" y2="1000.5472" gradientTransform="matrix(-1 0 0 1 1397.1334 0)">
		<stop  offset="0" style="stop-color:#DD2829"/>
		<stop  offset="0.1939" style="stop-color:#DF3630"/>
		<stop  offset="0.7161" style="stop-color:#E35841"/>
		<stop  offset="1" style="stop-color:#E56548"/>
	</linearGradient>
	<path class="st18" d="M-151,1024.3c-3,2.4-15.6,11.3-33.6,11c-20.3-0.4-25.4-14.7-27.2-21.6c0.6,0.1,1,0.1,1,0.1
		S-205.9,1018.7-151,1024.3z"/>
	<path class="st16" d="M-44.7,954.3c-1.2,0-2.1-1-2.1-2.1c0-1.2,1-2.1,2.1-2.1c1.2,0,2.1,1,2.1,2.1
		C-42.6,953.3-43.5,954.3-44.7,954.3z"/>
	<path class="st19" d="M-96.7,1014.5c7.5-1.5,11.5-7,12.5-10c1-3-4-26.5-4-26.5s7.8,19.7,6.8,27.2c-1,7.5-4,9.3-11.5,11.2
		c-7.5,1.8-22.8,4.6-28.3,2.1c-1.7-0.8-2.9-1.4-3.8-2c0.6-0.7,1.2-1.4,1.8-2.1c1.3,1.1,2.7,1.8,4.3,1.9
		C-112.7,1016.8-104.2,1016-96.7,1014.5z"/>
	<path class="st15" d="M-145.2,977c7,11-4.5,46.5-3.8,47.5c-0.7-0.1-1.3-0.1-2-0.2c-54.9-5.7-59.8-10.5-59.8-10.5
		c-12.1-11.2-3.7-29.6-0.8-35l1.2-1.4c0.6-0.4,1.3-0.9,1.9-1.3c22.5-15.4,42.5-27.3,44.1-28.3C-163,949.7-151.8,966.7-145.2,977z"/>
	<path class="st16" d="M-114.2,965.7c1.3,0.9,2.5,1.7,3.6,2.5c-5.9,10.4-20.2,31.8-19.4,34.6c0.7,2.4,3,8.5,6.7,11.6
		c-0.6,0.7-1.2,1.4-1.8,2.1c-4,4.8-6.7,8-6.7,8s-16.5,1-17.3,0c-0.8-1,10.8-36.5,3.8-47.5c-6.6-10.3-17.8-27.3-19.1-29.3
		c-0.1-0.1-0.1-0.2-0.1-0.2s4.9-3.6,10.9-7.2c2.1-1.2,4.3-2.4,6.5-3.5c2.2-1.1,4.5-2,6.5-2.6C-140.7,934.3-132.2,953.9-114.2,965.7z
		"/>
	<path class="st15" d="M-88.2,978l-14-1.9c-1.6-2.5-4.4-5.1-8.4-8c1-1.7,1.7-3.2,2.1-4.2L-88.2,978z"/>
	
		<linearGradient id="SVGID_5_" gradientUnits="userSpaceOnUse" x1="1496.5442" y1="1016.451" x2="1496.5442" y2="964.0483" gradientTransform="matrix(-1 0 0 1 1397.1334 0)">
		<stop  offset="0" style="stop-color:#DD2829"/>
		<stop  offset="6.187057e-02" style="stop-color:#DE312E"/>
		<stop  offset="0.2553" style="stop-color:#E14839"/>
		<stop  offset="0.4638" style="stop-color:#E35842"/>
		<stop  offset="0.696" style="stop-color:#E56246"/>
		<stop  offset="1" style="stop-color:#E56548"/>
	</linearGradient>
	<path class="st20" d="M-88.2,978l-14-1.9c-1.6-2.5-4.4-5.1-8.4-8c1-1.7,1.7-3.2,2.1-4.2L-88.2,978z"/>
	<path class="st19" d="M-102.3,976.2l14,1.9c0,0,5,23.5,4,26.5c-1,3-5,8.5-12.5,10c-7.5,1.5-16,2.3-22.3,1.8c-1.6-0.1-3-0.8-4.3-1.9
		c4.4-5.3,9.9-11.8,15-17.9C-101.1,988.1-98.1,982.5-102.3,976.2z"/>
	
		<linearGradient id="SVGID_6_" gradientUnits="userSpaceOnUse" x1="1500.7834" y1="1016.451" x2="1500.7834" y2="964.0482" gradientTransform="matrix(-1 0 0 1 1397.1334 0)">
		<stop  offset="0" style="stop-color:#DD2829"/>
		<stop  offset="6.187057e-02" style="stop-color:#DE312E"/>
		<stop  offset="0.2553" style="stop-color:#E14839"/>
		<stop  offset="0.4638" style="stop-color:#E35842"/>
		<stop  offset="0.696" style="stop-color:#E56246"/>
		<stop  offset="1" style="stop-color:#E56548"/>
	</linearGradient>
	<path class="st21" d="M-102.3,976.2l14,1.9c0,0,5,23.5,4,26.5c-1,3-5,8.5-12.5,10c-7.5,1.5-16,2.3-22.3,1.8c-1.6-0.1-3-0.8-4.3-1.9
		c4.4-5.3,9.9-11.8,15-17.9C-101.1,988.1-98.1,982.5-102.3,976.2z"/>
	<path class="st16" d="M-102.3,976.2c4.1,6.3,1.2,11.9-6,20.4c-5.1,6-10.6,12.6-15,17.9c-3.7-3.1-6-9.2-6.7-11.6
		c-0.9-2.8,13.5-24.2,19.4-34.6C-106.6,971.1-103.9,973.7-102.3,976.2z"/>
	
		<linearGradient id="SVGID_7_" gradientUnits="userSpaceOnUse" x1="1512.3209" y1="1016.4506" x2="1512.3209" y2="964.0483" gradientTransform="matrix(-1 0 0 1 1397.1334 0)">
		<stop  offset="0" style="stop-color:#DD2829"/>
		<stop  offset="6.187057e-02" style="stop-color:#DE312E"/>
		<stop  offset="0.2553" style="stop-color:#E14839"/>
		<stop  offset="0.4638" style="stop-color:#E35842"/>
		<stop  offset="0.696" style="stop-color:#E56246"/>
		<stop  offset="1" style="stop-color:#E56548"/>
	</linearGradient>
	<path class="st22" d="M-102.3,976.2c4.1,6.3,1.2,11.9-6,20.4c-5.1,6-10.6,12.6-15,17.9c-3.7-3.1-6-9.2-6.7-11.6
		c-0.9-2.8,13.5-24.2,19.4-34.6C-106.6,971.1-103.9,973.7-102.3,976.2z"/>
	<path class="st1" d="M-240.8,996.1c0.8,14.9-6,20.3-6,20.3c0.1-0.1,0.3-0.1,0.4-0.2l-0.3,0.2c0,0-19.1,11.6-24.6,10.8
		c-5.5-0.7-23-16.5-26.5-29.6c-3.5-13.1,14-33.4,19.3-35.4c5.3-2,26.1,13.5,26.1,13.5l0.5,0.3c-0.2-0.1-0.4-0.2-0.6-0.3
		C-252.5,975.8-241.5,981.2-240.8,996.1z"/>
	
		<linearGradient id="SVGID_8_" gradientUnits="userSpaceOnUse" x1="1695.3273" y1="994.726" x2="1635.384" y2="994.726" gradientTransform="matrix(-1 0 0 1 1397.1334 0)">
		<stop  offset="0" style="stop-color:#DD2829"/>
		<stop  offset="6.187057e-02" style="stop-color:#DE312E"/>
		<stop  offset="0.2553" style="stop-color:#E14839"/>
		<stop  offset="0.4638" style="stop-color:#E35842"/>
		<stop  offset="0.696" style="stop-color:#E56246"/>
		<stop  offset="1" style="stop-color:#E56548"/>
	</linearGradient>
	<path class="st23" d="M-240.8,996.1c0.8,14.9-6,20.3-6,20.3c0.1-0.1,0.3-0.1,0.4-0.2l-0.3,0.2c0,0-19.1,11.6-24.6,10.8
		c-5.5-0.7-23-16.5-26.5-29.6c-3.5-13.1,14-33.4,19.3-35.4c5.3-2,26.1,13.5,26.1,13.5l0.5,0.3c-0.2-0.1-0.4-0.2-0.6-0.3
		C-252.5,975.8-241.5,981.2-240.8,996.1z"/>
	<path class="st16" d="M-210.7,1013.8c0,0-0.4,0-1-0.1c-4.8-0.4-25.9-1.9-34.6,2.5c-0.1,0.1-0.3,0.1-0.4,0.2c0,0,6.8-5.4,6-20.3
		c-0.8-14.9-11.8-20.3-11.8-20.3c0.2,0.1,0.4,0.2,0.6,0.3c15.6,6.8,41.2,1.2,41.2,1.2s-0.3,0.5-0.8,1.5
		C-214.4,984.2-222.8,1002.6-210.7,1013.8z"/>
</g>
<g id="Poisson_jaune">
	<path class="st1" d="M1967.8,302.3c10.4-15.3,58.4-68.1,182.5-52.1c-11.6-8.7-25.7-16.7-41.5-19.2c-18.7-3-86,8.3-116,25.7
		C1972.3,268.6,1968.3,290,1967.8,302.3z"/>
	
		<radialGradient id="SVGID_9_" cx="2064.3184" cy="271.7133" r="72.9753" gradientTransform="matrix(1.0003 0 0 1 -2.2154 -0.6288)" gradientUnits="userSpaceOnUse">
		<stop  offset="0.1774" style="stop-color:#FFFF5A"/>
		<stop  offset="0.6989" style="stop-color:#FFA52E"/>
		<stop  offset="1" style="stop-color:#F14A00"/>
	</radialGradient>
	<path class="st24" d="M1967.8,302.3c10.4-15.3,58.4-68.1,182.5-52.1c-11.6-8.7-25.7-16.7-41.5-19.2c-18.7-3-86,8.3-116,25.7
		C1972.3,268.6,1968.3,290,1967.8,302.3z"/>
	<path class="st1" d="M2169.1,316.1c-6.7,9.7-14.9,18.3-24.1,25.7c-17.5,13.9-38.4,22.9-60,28.2c-20.2,5-41,6.9-61.8,7
		c-6.7,0-13.4-0.2-20.1-0.5l0,0c0,0,54.4,5.1,67.1,3.1s80.7-9.3,102.7-53c0,0,8.5-18,8.1-32.1c-1,1.5-1.8,3.1-2.4,4.8
		C2176.6,305.3,2172.6,311,2169.1,316.1z"/>
	
		<radialGradient id="SVGID_10_" cx="2093.6711" cy="332.5196" r="71.5333" gradientTransform="matrix(1.0003 0 0 1 -2.2154 -0.6288)" gradientUnits="userSpaceOnUse">
		<stop  offset="0.1774" style="stop-color:#FFFF5A"/>
		<stop  offset="0.6989" style="stop-color:#FFA52E"/>
		<stop  offset="1" style="stop-color:#F14A00"/>
	</radialGradient>
	<path class="st25" d="M2169.1,316.1c-6.7,9.7-14.9,18.3-24.1,25.7c-17.5,13.9-38.4,22.9-60,28.2c-20.2,5-41,6.9-61.8,7
		c-6.7,0-13.4-0.2-20.1-0.5l0,0c0,0,54.4,5.1,67.1,3.1s80.7-9.3,102.7-53c0,0,8.5-18,8.1-32.1c-1,1.5-1.8,3.1-2.4,4.8
		C2176.6,305.3,2172.6,311,2169.1,316.1z"/>
	<path class="st1" d="M2207.2,249.2c2.5,3.2,5,6.3,8,9.1c2.4,2.2,5,4,4.2,7.7c-0.7,3-2.7,6.1-3.9,9.1c-1.5,3.8-2.7,7.2-6.2,8.7
		c22.4,23.7,63.7,31.7,63.7,31.7c0-28.3-23.7-60.3-23.7-60.3c26.7-49.7,15-71,15-71c-18,3.7-62.6,60.6-62.6,60.6
		C2204.4,244.4,2205.7,247.3,2207.2,249.2z"/>
	<linearGradient id="SVGID_11_" gradientUnits="userSpaceOnUse" x1="2196.865" y1="249.6609" x2="2272.9133" y2="249.6609">
		<stop  offset="0" style="stop-color:#FFFF5A"/>
		<stop  offset="0.5161" style="stop-color:#FFA52E"/>
		<stop  offset="1" style="stop-color:#F14A00"/>
	</linearGradient>
	<path class="st26" d="M2207.2,249.2c2.5,3.2,5,6.3,8,9.1c2.4,2.2,5,4,4.2,7.7c-0.7,3-2.7,6.1-3.9,9.1c-1.5,3.8-2.7,7.2-6.2,8.7
		c22.4,23.7,63.7,31.7,63.7,31.7c0-28.3-23.7-60.3-23.7-60.3c26.7-49.7,15-71,15-71c-18,3.7-62.6,60.6-62.6,60.6
		C2204.4,244.4,2205.7,247.3,2207.2,249.2z"/>
	<path class="st27" d="M1967.8,302.3c-1.2,1.8-1.9,3.1-2.2,3.7c-2.5,6-11.5,39.5-17.5,47c-6,7.5-16,13-16,13s10,3,12,3l-3.5,14
		c0,0,12-8.5,20.5-10c4.6-0.8,10.6,0.9,15.2,1.4c8.9,1,17.8,1.7,26.8,2.2c6.7,0.3,13.4,0.5,20.1,0.5c20.8-0.1,41.6-2,61.8-7
		c21.6-5.3,42.5-14.3,60-28.2c9.2-7.4,17.3-16,24.1-25.7c3.6-5.1,7.6-10.8,9.6-16.7c0.6-1.7,1.4-3.3,2.4-4.8
		c2.2-3.3,5.2-5.9,8.8-7.5c5.5-2.4,11.7-1.7,17.5-2.8c0.7-0.1,1.4-0.3,2-0.6c3.5-1.5,4.7-4.9,6.2-8.7c1.2-2.9,3.2-6,3.9-9.1
		c0.8-3.7-1.8-5.4-4.2-7.7c-3-2.7-5.5-5.9-8-9.1c-1.5-1.9-2.7-4.9-5.6-4.6c-2.8,0.2-4.7,3.2-7.1,4.3c-3.2,1.6-6.7,2.6-10.2,3.3
		c-4.1,0.8-8.4,1.3-12.6,1.2c-7.3-1.3-14.5-2.4-21.3-3.3C2026.3,234.3,1978.3,287,1967.8,302.3z M2061.5,331.3c0,0,11.3,5.7-9,5.7
		c0,0,9.5-0.8,9.4-3c-0.1-2.2-2.9-2.9-1-3.5c1.9-0.6,7.4-1.3,8.3-4c0.9-2.7-2.6-3.6-2-4.9c0.6-1.3,5.1-6,4.4-7.8
		c-0.8-1.8-12.8,3-12.5,2.3s6.8-12.1,4.8-13.7c-2-1.6-22.3,14.6-22.3,14.6c4.5-3.6,8.4-8.1,12.9-11.7c1.7-1.4,12.8-11.1,14.3-6
		c0.9,3.3-1.3,7.2-3.1,9.8c-1,1.4-2.1,2.7-3.2,4c-0.4,0.5-1.2,2-1.9,2.3c0,0,26.2-11,8.3,6.2
		C2068.8,321.5,2079.2,329.7,2061.5,331.3z M1989.7,331.3c-5.4,0-9.8-4.4-9.8-9.8c0-5.4,4.4-9.8,9.8-9.8c5.4,0,9.8,4.4,9.8,9.8
		C1999.5,326.9,1995.1,331.3,1989.7,331.3z"/>
	<path class="st27" d="M2060.5,315.3c0.6-0.3,1.4-1.7,1.9-2.3c1.1-1.3,2.2-2.6,3.2-4c1.8-2.6,4-6.5,3.1-9.8
		c-1.5-5.1-12.6,4.6-14.3,6c-4.5,3.7-8.4,8.1-12.9,11.7c0,0,20.3-16.3,22.3-14.6c2,1.6-4.5,13.1-4.8,13.7s11.8-4.2,12.5-2.3
		c0.8,1.8-3.8,6.6-4.4,7.8c-0.6,1.3,2.9,2.1,2,4.9c-0.9,2.8-6.4,3.4-8.3,4c-1.9,0.6,0.9,1.3,1,3.5c0.1,2.2-9.4,3-9.4,3
		c20.3,0,9-5.7,9-5.7c17.7-1.7,7.3-9.8,7.3-9.8C2086.7,304.3,2060.5,315.3,2060.5,315.3z"/>
	<linearGradient id="SVGID_12_" gradientUnits="userSpaceOnUse" x1="2041.5195" y1="317.4068" x2="2075.073" y2="317.4068">
		<stop  offset="0" style="stop-color:#FFFF5A"/>
		<stop  offset="0.5161" style="stop-color:#FFA52E"/>
		<stop  offset="1" style="stop-color:#F14A00"/>
	</linearGradient>
	<path class="st28" d="M2060.5,315.3c0.6-0.3,1.4-1.7,1.9-2.3c1.1-1.3,2.2-2.6,3.2-4c1.8-2.6,4-6.5,3.1-9.8
		c-1.5-5.1-12.6,4.6-14.3,6c-4.5,3.7-8.4,8.1-12.9,11.7c0,0,20.3-16.3,22.3-14.6c2,1.6-4.5,13.1-4.8,13.7s11.8-4.2,12.5-2.3
		c0.8,1.8-3.8,6.6-4.4,7.8c-0.6,1.3,2.9,2.1,2,4.9c-0.9,2.8-6.4,3.4-8.3,4c-1.9,0.6,0.9,1.3,1,3.5c0.1,2.2-9.4,3-9.4,3
		c20.3,0,9-5.7,9-5.7c17.7-1.7,7.3-9.8,7.3-9.8C2086.7,304.3,2060.5,315.3,2060.5,315.3z"/>
	<path d="M1989.7,311.7c-5.4,0-9.8,4.4-9.8,9.8c0,5.4,4.4,9.8,9.8,9.8c5.4,0,9.8-4.4,9.8-9.8
		C1999.5,316.1,1995.1,311.7,1989.7,311.7z M1998.5,318.9c0,2.3-1.9,4.2-4.2,4.2c-2.3,0-4.2-1.9-4.2-4.2s1.9-4.2,4.2-4.2
		C1996.6,314.7,1998.5,316.6,1998.5,318.9z"/>
	<path class="st16" d="M1990,318.9c0,2.3,1.9,4.2,4.2,4.2c2.3,0,4.2-1.9,4.2-4.2s-1.9-4.2-4.2-4.2
		C1991.9,314.7,1990,316.6,1990,318.9z"/>
</g>
<g id="Opacit">
	<rect x="1.5" y="0" class="st29" width="1920" height="1080"/>
</g>
</svg>
