<?xml version="1.0" encoding="utf-8"?>
<!-- Generator: Adobe Illustrator 22.0.1, SVG Export Plug-In . SVG Version: 6.00 Build 0)  -->
<svg version="1.1" id="Calque_1" xmlns="http://www.w3.org/2000/svg" xmlns:xlink="http://www.w3.org/1999/xlink" x="0px" y="0px"
	 viewBox="0 0 1920 1080" preserveAspectRatio="none" xml:space="preserve">
<style type="text/css">
	.st0{fill:#33607F;}
	.st1{fill:#52E7FF;}
	.st2{fill:#FFFFFF;}
	.st3{fill:#EAEFF2;}
	.st4{fill:#99B2BF;}
	.st5{fill:#383838;}
	.st6{fill:#727E84;}
	.st7{fill:#768891;}
	.st8{fill:#69797F;}

	@keyframes bulled{
		0% {
			top: 50vh;
		}
		100% {
			top: -60vh;
		}
	}
	@keyframes bulles1d{
		0% {
			left: 3vw;
		}
		20%{
			left: 10vw;
		}
		40%{
			left: 7vw;
		}
		60%{
			left: 15vw;
		}
		80%{
			left: 11vw;
		}
		100%{
			left: 22vw;
		}
	}
	@keyframes bulles2d{
		0% {
			left: 3vw;
		}
		20%{
			left: 7vw;
		}
		40%{
			left: 4vw;
		}
		60%{
			left: 12vw;
		}
		80%{
			left: 8vw;
		}
		100%{
			left: 17vw;
		}
	}
	@keyframes bulles3d{
		0% {
			left: 0vw;
		}
		20%{
			left: 10vw;
		}
		40%{
			left: 5vw;
		}
		60%{
			left: 15vw;
		}
		80%{
			left: 10vw;
		}
		100%{
			left: 20vw;
		}
	}
	#bubulle_1_d_1_{
		position: relative;
        animation: bulled 3s linear infinite, bulles1d 3s infinite cubic-bezier(0.25,0.1,0.25,1);
	}
	#bubulle_2_d_1_{
		position: relative;
        animation: bulled 4s linear infinite, bulles2d 4s infinite cubic-bezier(0.25,0.1,0.25,1);	
	}
	#bubulle_3_d_1_{
		position: relative;
        animation: bulled 2s linear infinite, bulles3d 2s infinite cubic-bezier(0.25,0.1,0.25,1);	
	}

	@keyframes bulleg{
		0% {
			top: 50vh;
		}
		100% {
			top: -100vh;
		}
	}
	@keyframes bulles1g{
		0% {
			left: 5vw;
		}
		20%{
			left: 12vw;
		}
		40%{
			left: 7vw;
		}
		60%{
			left: 15vw;
		}
		80%{
			left: 10vw;
		}
		100%{
			left: 12vw;
		}
	}
	@keyframes bulles2g{
		0% {
			left: -4vw;
		}
		20%{
			left: 0vw;
		}
		40%{
			left: -7vw;
		}
		60%{
			left: -4vw;
		}
		80%{
			left: -12vw;
		}
		100%{
			left: -8vw;
		}
	}
	@keyframes bulles3g{
		0% {
			left: -5vw;
		}
		20%{
			left: -3vw;
		}
		40%{
			left: -8vw;
		}
		60%{
			left: -6vw;
		}
		80%{
			left: -10vw;
		}
		100%{
			left: -2vw;
		}
	}
	#bubulle_1_g{
		position: relative;
        animation: bulleg 3.5s linear infinite, bulles1g 3.5s infinite cubic-bezier(0.25,0.1,0.25,1);
	}
	#bubulle_2_g{
		position: relative;
        animation: bulleg 4s linear infinite, bulles2g 4s infinite cubic-bezier(0.25,0.1,0.25,1);	
	}
	#bubulle_3_g{
		position: relative;
        animation: bulleg 3s linear infinite, bulles3g 3s infinite cubic-bezier(0.25,0.1,0.25,1);	
	}
</style>
<g id="Fond">
	<path class="st0" d="M1375.4,1.7C1375.4,1.7,1375.4,1.7,1375.4,1.7c-0.3,1.6-0.6,3.1-0.9,4.6c-0.1,0.4-0.2,0.8-0.3,1.2
		c0,0.2-0.1,0.4-0.1,0.6c-0.4,1.8-0.6,2.7-0.9,4c-0.2,1.1-0.5,2.1-0.7,3.2c0,0.1-0.1,0.2-0.1,0.4c0,0.1-0.1,0.3-0.1,0.4
		c0,0.1-0.1,0.3-0.1,0.4c-0.3,1.3-0.6,2.6-0.9,3.8c-0.1,0.2-0.1,0.4-0.2,0.6c-0.1,0.3-0.1,0.5-0.2,0.8c-0.4,1.5-0.8,3-1.3,4.5
		c0,0.1-0.1,0.2-0.1,0.4c-0.2,0.7-0.4,1.5-0.7,2.4c-0.3,1-0.6,2-1,3c0,0,0,0,0,0c-3.1,10.1-6.6,19.2-10.4,27.4
		c-0.1,0.3-0.2,0.5-0.3,0.7c0,0,0,0.1,0,0.1c-4.1,8.6-8.6,16.2-13.4,22.7c-1,1.3-1.9,2.5-2.7,3.4c0,0,0,0,0,0
		c-4,4.8-8.1,8.9-12.5,12.3c-2.1,1.6-4.2,3.3-6.4,5c-3.3,2.7-5.7,4.6-7.6,6.1c-2.4,1.9-9.8,8.1-11.3,9.3c-0.1,0.1-0.2,0.1-0.3,0.2
		c-0.7,0.6-3.6,3.1-6.1,5.2c-1.9,1.7-3.8,3.3-5.7,5.1c-3.8,3.6-11.6,11.1-13,12.4c-0.1,0.1-0.3,0.3-0.4,0.4
		c-2,2.1-11.4,12-12.7,13.5c0,0-0.1,0.1-0.1,0.1c-1.2,1.3-4.8,5.7-6.5,8c0,0.1-0.1,0.1-0.2,0.2c-0.1,0.1-0.2,0.2-0.3,0.3
		c-2.1,2.8-7,9.6-8.1,11.1c-1.2,1.6-5,7.2-6,8.6c0,0,0,0,0,0c-0.9,1.4-6,11.8-6.9,13.8c0,0,0,0,0,0c-1.5,3.3-2.9,6.7-3.7,9.1
		c-0.7,2-1.7,6.6-2.4,10c-0.5,2.2-0.9,4.7-1.4,7.3c-0.7,4.2-1.9,11.5-2.1,12.6c0,0.2,0,0.3-0.1,0.5c-0.3,2.1-2,12.9-2,12.9
		s-1.3,9-1.7,11.5c-1.1,7.3-2,13.5-2.3,16c0,0.1,0,0.2,0,0.3c-0.1,0.8-1.5,11.3-1.5,11.3l-1.3,9.8c0,0.1,0,0.3-0.1,0.4l-1.8,13.5
		c0,0.1,0,0.1,0,0.2l-1.9,15.1c-0.1,0.6-0.2,1.2-0.2,1.9c-0.2,2-0.8,6-1.7,13.7c-0.3,2.2-0.5,4-0.7,5.5c-0.5,4.2-1,8-1.4,11
		c-0.5,4-1.5,12.3-1.7,13.9c-0.2,1.8-1.4,11.5-1.8,14.2c-0.2,1.5-0.6,5.3-1.1,8.6c-3,24.7-6.1,49.9-9.2,74.3c0,0.3-0.1,0.5-0.1,0.6
		c0,0.1,0,0.1,0,0.2c0,0.1,0,0.3-0.1,0.4c0,0.5-0.4,3.1-0.7,5.5c-1.9,14.7-3.7,29-5.6,42.8c0,0,0,0.1,0,0.1c0,0,0,0,0,0
		c-2.7,19.8-5.3,38.5-7.8,55c0,0,0,0,0,0s0,0,0,0c-2.7,17.4-5.3,32.6-7.7,44.6c-0.1,0.6-0.2,1-0.3,1.4c0,0,0,0.1,0,0.1
		c-1.4,6.6-2.7,12.2-4,16.6c-0.1,0.2-0.1,0.4-0.2,0.7c0,0.1-0.1,0.3-0.1,0.3c0,0,0,0.1-0.1,0.3c-0.2,0.7-0.4,1.3-0.6,1.9
		c0,0.1,0,0.1-0.1,0.2c-0.4,1.4-0.7,1.9-0.7,1.9c-0.1,0.4-1,2.5-1.2,3.1c0,0,0,0.1,0,0.1c0,0,0,0.1,0,0.1c0,0.1-0.1,0.2-0.1,0.3
		c0,0,0,0,0,0c0,0.1-0.1,0.2-0.1,0.2c-0.1,0.1-0.2,0.3-0.3,0.4c0,0,0,0,0,0c0,0,0,0-0.1,0.1c-0.1,0.1-0.2,0.2-0.4,0.4
		c-0.6,0.8-1.2,1.2-1.7,1.3c-0.4,0-0.8,0.1-1.3,0.2l-3,1.3c0,0-0.1,0-0.1,0l-3.6,1.8c-0.1,0-0.2,0.1-0.2,0.1l-4.3,2.4
		c-0.1,0.1-0.2,0.1-0.3,0.2l-3.1,1.8c-0.1,0.1-0.3,0.2-0.4,0.2l-4.4,2.7c-0.1,0.1-0.2,0.1-0.3,0.2l-2.9,1.9
		c-0.3,0.2-0.6,0.4-0.9,0.6l-5.5,3.8l-4.5,3.1c0,0-4.5,3.2-6.2,4.4c-0.8,0.6-1.6,1.1-2.4,1.7c-2.6,1.9-7.1,5.1-8.1,5.7
		c0,0-0.1,0-0.1,0.1c-0.1,0.1-0.2,0.1-0.3,0.2c0,0,0,0,0,0c-9.3,6.6-19.1,13.5-28.7,19.8c-0.6,0.4-1.2,0.8-1.5,1c0,0,0,0,0,0
		c0,0,0,0,0,0l0,0c-2.3,1.5-4.7,3-6.9,4.4c-2,1.3-4.6,2.9-8.1,5c-10.5,6.3-36,20.2-43.6,10.6c0,0,0,0,0,0c-0.6-0.5-1.3-1-2-1.5
		c-12.3-9.4-41.9-36.2-78.1-70.6c-0.1-0.1-0.2-0.2-0.3-0.3c-0.1-0.1-0.1-0.1-0.2-0.2c-40.8-38.8-90-87.3-132.3-131.6l0,0l0,0
		c-21.2-22.2-40.6-43.4-56.4-61.8l0,0c0,0,0,0,0,0c-11.4-13.3-21-25.2-27.9-35c-1-1.3-1.8-2.5-2.3-3.4c0,0,0,0,0,0
		c-0.6-0.9-1.1-1.7-1.7-2.5c-2.3-3.4-4.2-5.7-6-10.3c-1.2-2.5-1.9-4.6-2.2-6.4c-0.4-2.1-0.9-5-1.5-8.5c-3.4-18.7-9.7-52-10.8-58
		c0-0.2-0.1-0.5-0.1-0.7c-1.2-6.3-11.2-58.4-11.2-58.4l-14.2-72.3c0-0.1,0-0.1,0-0.2l-13.1-65c0,0-17.8-83.8-19.1-89.4
		c0-0.1,0-0.2-0.1-0.2c-0.7-3-8.7-33.2-12.5-47.6H0.1v1080.5h1919.8V-0.3h-544.1C1375.6,0.4,1375.5,1.1,1375.4,1.7z"/>
</g>
<g id="bubulle_3_d_1_">
	<g id="bubulle_3_d">
		<path class="st1" d="M1558.8,810.2c0,0,0-0.4,0.1-1.2c0-0.4,0.1-0.9,0.2-1.4c0.1-0.6,0.3-1.2,0.4-1.9c0.4-1.4,1.1-3,2.4-4.7
			c1.2-1.6,2.9-3.2,5-4.5c2.1-1.3,4.7-2.2,7.6-2.6c0.7-0.1,1.4-0.1,2.2-0.1c0.7,0,1.5,0,2.2,0.1c1.5,0.1,3,0.6,4.5,1.1
			c1.5,0.6,2.9,1.3,4.2,2.3c1.3,1,2.5,2.1,3.5,3.4c1,1.3,1.8,2.8,2.4,4.4c0.5,1.6,0.8,3.3,0.9,5c0,1.7-0.3,3.4-0.9,5
			c-0.6,1.6-1.4,3.1-2.4,4.4c-1,1.3-2.2,2.5-3.5,3.5c-1.3,1-2.8,1.7-4.2,2.3c-3,1.1-6.1,1.4-8.9,1.1c-2.9-0.3-5.5-1.3-7.6-2.6
			c-2.1-1.3-3.8-2.9-5-4.5c-1.2-1.6-1.9-3.3-2.4-4.7c-0.2-0.7-0.4-1.3-0.4-1.9c-0.1-0.6-0.2-1-0.2-1.4
			C1558.8,810.6,1558.8,810.2,1558.8,810.2z M1558.8,810.2c0,0,0,0.4,0.1,1.2c0,0.4,0.1,0.9,0.2,1.4c0.1,0.6,0.3,1.2,0.5,1.9
			c0.5,1.4,1.2,3,2.4,4.6c1.2,1.6,2.9,3.2,5,4.4c2.1,1.2,4.7,2.1,7.5,2.3c2.8,0.2,5.8-0.2,8.6-1.3c2.8-1.2,5.4-3.1,7.3-5.6
			c0.9-1.3,1.7-2.7,2.2-4.2c0.5-1.5,0.7-3.1,0.8-4.7c0-1.6-0.3-3.2-0.8-4.7c-0.5-1.5-1.3-2.9-2.2-4.2c-1.9-2.5-4.5-4.4-7.3-5.6
			c-1.4-0.5-2.9-1-4.3-1.1c-0.7-0.1-1.5-0.1-2.2-0.2c-0.7,0-1.4,0-2.1,0.1c-2.8,0.3-5.4,1.1-7.5,2.3c-2.2,1.2-3.8,2.8-5,4.4
			c-1.2,1.6-1.9,3.2-2.4,4.6c-0.2,0.7-0.4,1.3-0.5,1.9c-0.1,0.6-0.2,1-0.2,1.4C1558.8,809.8,1558.8,810.2,1558.8,810.2z"/>
	</g>
</g>
<g id="bubulle_2_d_1_">
	<g id="bubulle_1_d">
		<path class="st1" d="M1620,746.8c0,0,0-0.3,0-0.9c0-0.3,0.1-0.7,0.1-1.1c0-0.4,0.2-0.9,0.3-1.5c0.3-1.1,0.9-2.3,1.8-3.6
			c0.9-1.3,2.2-2.5,3.9-3.5c1.6-1,3.7-1.8,5.9-2c0.6,0,1.1-0.1,1.7-0.1c0.6,0,1.1,0,1.7,0.1c1.2,0.1,2.3,0.4,3.5,0.8
			c1.1,0.5,2.3,1,3.3,1.8c1,0.8,2,1.6,2.8,2.7c0.8,1,1.4,2.2,1.9,3.4c0.4,1.3,0.7,2.6,0.7,3.9c0,1.2-0.3,2.7-0.7,3.9
			c-0.4,1.3-1.1,2.4-1.9,3.4c-0.8,1-1.7,1.9-2.8,2.7c-1,0.7-2.2,1.3-3.3,1.8c-2.3,0.8-4.7,1.1-6.9,0.8c-2.2-0.3-4.2-1-5.9-2
			c-1.6-1-3-2.3-3.9-3.5c-0.9-1.3-1.5-2.5-1.8-3.6c-0.1-0.5-0.3-1-0.3-1.5c-0.1-0.4-0.1-0.8-0.1-1.1
			C1620,747.1,1620,746.8,1620,746.8z M1620,746.8c0,0,0,0.3,0.1,0.9c0,0.3,0.1,0.7,0.2,1.1c0.1,0.4,0.2,0.9,0.4,1.4
			c0.4,1.1,0.9,2.3,1.9,3.5c0.9,1.2,2.2,2.5,3.9,3.4c1.7,0.9,3.7,1.6,5.8,1.8c2.2,0.2,4.5-0.1,6.6-1c2.2-0.9,4.2-2.4,5.6-4.3
			c0.7-1,1.3-2.1,1.7-3.2c0.4-1.2,0.6-2.3,0.6-3.6c0-1.2-0.2-2.4-0.6-3.6c-0.4-1.2-1-2.2-1.7-3.2c-1.5-1.9-3.5-3.4-5.6-4.3
			c-1.1-0.4-2.2-0.8-3.3-0.9c-0.5-0.1-1.1-0.1-1.7-0.2c-0.5,0-1.1,0-1.6,0c-2.2,0.2-4.2,0.8-5.8,1.8c-1.7,0.9-3,2.2-3.9,3.4
			c-0.9,1.2-1.5,2.5-1.9,3.5c-0.2,0.5-0.3,1-0.4,1.4c-0.1,0.4-0.1,0.8-0.2,1.1C1620,746.5,1620,746.8,1620,746.8z"/>
	</g>
</g>
<g id="bubulle_1_d_1_">
	<g id="bubulle_2_d">
		<path class="st1" d="M1567.1,697.3c0,0,0-0.2,0-0.6c0-0.4,0.1-1,0.3-1.7c0.2-0.7,0.6-1.6,1.2-2.5c0.6-0.9,1.5-1.7,2.6-2.4
			c1.1-0.7,2.5-1.2,4-1.4c0.4,0,0.8-0.1,1.2-0.1c0.4,0,0.8,0,1.2,0.1c0.8,0.1,1.6,0.3,2.4,0.5c0.8,0.3,1.6,0.7,2.3,1.2
			c0.7,0.5,1.4,1.1,1.9,1.8c0.6,0.7,1,1.5,1.3,2.4c0.3,0.9,0.5,1.8,0.5,2.8c0,0.8-0.2,1.8-0.5,2.7c-0.3,0.9-0.8,1.7-1.3,2.4
			c-0.6,0.7-1.2,1.3-1.9,1.8c-0.7,0.5-1.5,0.9-2.3,1.2c-1.6,0.6-3.3,0.7-4.8,0.5c-1.5-0.2-2.9-0.7-4-1.4c-1.1-0.7-2-1.6-2.6-2.4
			c-0.6-0.9-1-1.7-1.2-2.5c-0.2-0.7-0.3-1.3-0.3-1.7C1567.1,697.5,1567.1,697.3,1567.1,697.3z M1567.1,697.3c0,0,0,0.2,0,0.6
			c0,0.4,0.1,1,0.3,1.7c0.2,0.7,0.6,1.6,1.3,2.4c0.6,0.8,1.5,1.7,2.7,2.3c1.1,0.6,2.5,1.1,3.9,1.2c1.5,0.1,3-0.1,4.5-0.7
			c1.4-0.6,2.8-1.6,3.8-2.9c0.5-0.7,0.9-1.4,1.1-2.2c0.3-0.8,0.4-1.5,0.4-2.4c0-0.8-0.1-1.6-0.4-2.4c-0.3-0.8-0.7-1.5-1.1-2.2
			c-1-1.3-2.3-2.3-3.8-2.9c-0.7-0.3-1.5-0.5-2.2-0.6c-0.4-0.1-0.8-0.1-1.1-0.1c-0.4,0-0.7,0-1.1,0c-1.5,0.1-2.8,0.5-4,1.2
			c-1.1,0.6-2,1.4-2.7,2.3c-0.7,0.8-1,1.7-1.3,2.4c-0.2,0.7-0.3,1.3-0.3,1.7C1567.1,697.1,1567.1,697.3,1567.1,697.3z"/>
	</g>
</g>
<g id="Iceberg">
	<g>
		<path class="st2" d="M702.3,332.9c0,0.2,0.1,0.5,0.1,0.7c0-0.2-0.1-0.3-0.1-0.4C702.4,333.1,702.3,333,702.3,332.9z"/>
		<path class="st2" d="M811.5,519.6c42.3,44.4,91.4,92.8,132.3,131.6c-5.5-5.3-66.8-65-66.8-65L811.5,519.6z"/>
		<path class="st2" d="M713.3,391.6c0.6,3.5,1.2,6.4,1.5,8.5c0.3,1.8,1.1,3.9,2.2,6.4C715.8,403.2,714.6,398.7,713.3,391.6
			C713.3,391.6,713.3,391.6,713.3,391.6z"/>
		<path class="st2" d="M1140.4,663.8l-0.3,0.2c0.3-0.2,0.6-0.4,0.9-0.6l-0.3,0.2C1140.7,663.7,1140.5,663.8,1140.4,663.8z"/>
		<path class="st2" d="M1084.5,702.8c9.5-6.3,19.3-13.1,28.7-19.8c-2.4,1.7-11.2,7.8-18.7,12.9
			C1094.1,696.2,1087.8,700.6,1084.5,702.8z"/>
		<path class="st2" d="M1082.8,703.9c-1.2,0.7-2.7,1.8-6.8,4.3c2.3-1.4,4.6-2.9,6.9-4.4L1082.8,703.9
			C1082.8,703.9,1082.8,703.9,1082.8,703.9z"/>
		<polygon class="st2" points="1083,703.8 1083,703.8 1083,703.8 		"/>
		<path class="st2" d="M995.8,699.6c0,0-46.2-42.8-51.6-47.9c36.3,34.5,65.9,61.2,78.1,70.6c0,0,0,0,0,0
			C1016.6,717.7,997.2,700.9,995.8,699.6z"/>
		<path class="st2" d="M811.4,519.6L755,457.8C770.8,476.2,790.2,497.4,811.4,519.6z"/>
		<path class="st2" d="M676.9,202.1c0,0.1,0,0.1,0,0.2L676.9,202.1L676.9,202.1z"/>
		<path class="st2" d="M1165.2,650.1c-0.4,0.2-0.8,0.3-1.3,0.5c-0.1,0.1-0.2,0.1-0.2,0.1l-0.1,0.1c0.4-0.1,0.9-0.2,1.3-0.2
			c0.6,0,1.1-0.5,1.7-1.3c-0.3,0.2-0.6,0.4-1,0.6C1165.5,649.9,1165.4,650,1165.2,650.1z"/>
		<path class="st2" d="M1375.4,1.7C1375.4,1.7,1375.4,1.7,1375.4,1.7C1375.4,1.7,1375.4,1.7,1375.4,1.7z"/>
		<path class="st2" d="M754.9,457.7c-0.5-0.6-20.1-24.2-27.9-35C734,432.6,743.5,444.4,754.9,457.7z"/>
		<path class="st2" d="M644.6,47.4c0,0.1,0,0.2,0.1,0.2C644.7,47.6,644.6,47.5,644.6,47.4C644.6,47.4,644.6,47.4,644.6,47.4z"/>
		<path class="st2" d="M724.7,419.4c-0.6-0.9-1.1-1.7-1.7-2.5C723.5,417.7,724.1,418.5,724.7,419.4z"/>
		<path class="st2" d="M1193.8,495.9c-0.1,1-1.7,13.3-1.9,14.9c0,0,0,0.1,0,0.2c-0.7,5.7-1.3,9.8-1.4,10.5
			c1.8-13.8,3.7-28.1,5.6-42.8c-0.3,2-0.5,3.9-0.6,4.3C1195.3,484,1193.9,494.9,1193.8,495.9z"/>
		<path class="st2" d="M1356,62.3c-0.5,1-1.3,2.5-2.1,3.9c-0.6,1.1-1.3,2.4-2.1,3.7c0,0,0,0,0,0.1c0,0,0,0,0,0
			c-1.8,3.1-3.8,6.5-5.8,9.5c0,0,0,0,0,0.1c0,0.1-0.1,0.1-0.1,0.2c-0.8,1.2-1.5,2.3-2.2,3.3c4.9-6.5,9.3-14.1,13.4-22.7
			C1356.8,60.7,1356.4,61.4,1356,62.3C1356,62.3,1356,62.3,1356,62.3z"/>
		<path class="st2" d="M1365.5,38.7c-0.1,0.4-0.3,0.8-0.5,1.3c-1,2.8-2.1,5.6-3,8.1c0,0,0,0.1,0,0.1c-0.7,1.8-1.4,3.5-1.9,4.9
			c-0.2,0.6-0.5,1.2-0.7,1.7c0,0.1-0.1,0.1-0.1,0.2c0,0,0,0.1,0,0.1c-0.8,1.9-1.4,3.5-1.9,4.4c3.8-8.2,7.3-17.4,10.4-27.4
			c-0.7,2.2-1.5,4.3-2.3,6.5C1365.5,38.6,1365.5,38.7,1365.5,38.7z"/>
		<path class="st2" d="M1174,625.4c0,0,0,0.1,0,0.2c-0.4,1.6-0.8,3.4-1.2,5.1c0,0,0,0.1,0,0.1l0,0.1c-0.3,1.3-0.6,2.7-1,4l0,0l0,0
			c-0.3,1-0.5,2-0.8,3l0,0.2c0,0,0,0,0,0.1c-0.1,0.4-0.2,0.8-0.3,1.3c1.3-4.4,2.6-10,4-16.6c-0.2,0.8-0.4,1.6-0.6,2.5
			C1174,625.3,1174,625.4,1174,625.4z"/>
		<path class="st2" d="M1188.2,537.6l-1.7,11.7l-1.1,7.5c-1.5,10.4-2.7,19.1-2.8,19.8c2.5-16.6,5.2-35.2,7.8-55
			c-0.1,0.5-0.6,4.5-1.4,10.2C1188.6,534.6,1188.2,537.6,1188.2,537.6z"/>
		<path class="st2" d="M1181.4,584c0,0.2-0.1,0.5-0.1,0.9c-0.6,3.4-1.3,7.5-2,11.8c0,0.3-0.1,0.5-0.1,0.6c0,0.1-0.1,0.3-0.1,0.6
			c-1.5,8.6-3,17.6-3.9,22.4c0,0,0,0,0,0c0,0,0,0,0,0c-0.1,0.3-0.1,0.6-0.2,0.9c2.4-12,5-27.2,7.7-44.6c0,0.1,0,0.3-0.1,0.6
			C1181.7,582.8,1181.6,582.6,1181.4,584z"/>
		<path class="st2" d="M1203.5,418.5c-0.1,0.9-0.2,1.6-0.2,2c-0.3,2.4-1.6,13-1.6,13s0,0.1,0,0.3c0,0,0,0,0,0s-1.3,10.5-2.6,20.5
			c-0.3,2.5-0.6,4.7-0.7,5.3c-0.7,5.7-1.3,10.5-1.5,12.3c3.1-24.4,6.2-49.6,9.2-74.3c-0.1,0.5-0.1,1-0.2,1.5
			C1205.6,401.2,1204.5,410.2,1203.5,418.5z"/>
		<path class="st2" d="M1229.8,222c-0.1,0.5-0.3,1.5-0.5,2.7c0.5-2.6,1-5.1,1.4-7.3c-0.4,2-0.8,3.6-0.9,4.2
			C1229.9,221.7,1229.8,221.9,1229.8,222z"/>
		<path class="st2" d="M1196.7,473.2c0-0.1,0-0.3,0.1-0.4C1196.8,472.9,1196.7,473,1196.7,473.2
			C1196.7,473.2,1196.7,473.2,1196.7,473.2z"/>
		<path class="st2" d="M1336.3,91.5C1336.2,91.5,1336.2,91.5,1336.3,91.5c-0.5,0.5-0.9,1-1.4,1.4c-0.7,0.7-1.6,1.5-2.5,2.3
			c0,0,0,0,0,0c-0.3,0.3-0.7,0.6-1.1,0.9c-0.8,0.7-1.7,1.4-2.7,2.3c0,0,0,0,0,0c-0.1,0.1-0.2,0.2-0.3,0.3c0,0-0.1,0.1-0.1,0.1
			c-0.5,0.5-1.1,0.9-1.8,1.5c-0.8,0.6-1.6,1.3-2.5,2c-0.1,0.1-0.3,0.2-0.5,0.4c-0.1,0.1-0.3,0.2-0.4,0.3c-0.1,0.1-0.2,0.2-0.4,0.3
			c-0.2,0.1-0.4,0.3-0.5,0.4c0,0,0,0,0,0c2.2-1.7,4.3-3.4,6.4-5c4.4-3.4,8.5-7.5,12.5-12.3c-1.5,1.9-3,3.3-4.1,4.5
			C1336.6,91.2,1336.4,91.3,1336.3,91.5z"/>
		<path class="st2" d="M1221.1,278.5c0-0.1,0-0.2,0-0.3C1221.2,278.3,1221.2,278.4,1221.1,278.5
			C1221.1,278.5,1221.1,278.5,1221.1,278.5z"/>
		<path class="st2" d="M1302.9,119.5c0.1-0.1,0.2-0.1,0.3-0.2C1303,119.3,1303,119.4,1302.9,119.5
			C1302.9,119.4,1302.9,119.5,1302.9,119.5z"/>
		<path class="st2" d="M1293.1,127.9c-0.3,0.2-1,0.9-2,1.9c1.9-1.7,3.8-3.4,5.7-5.1c-1.5,1.3-2.9,2.5-3.5,3
			C1293.3,127.8,1293.2,127.8,1293.1,127.9z"/>
		<path class="st3" d="M1258.2,164.4c-0.1,0.1-0.2,0.2-0.3,0.3C1258.1,164.6,1258.1,164.5,1258.2,164.4z"/>
		<path class="st3" d="M1218.3,300c0-0.1,0-0.3,0.1-0.4l0,0.2L1218.3,300z"/>
		<path class="st3" d="M1221.1,278.5C1221.1,278.5,1221.1,278.5,1221.1,278.5c0-0.1,0-0.2,0-0.3c0.4-2.6,1.3-8.7,2.3-16
			c0,0.3-0.1,0.5-0.1,0.6C1223.3,263.5,1221.2,277.8,1221.1,278.5z"/>
		<path class="st3" d="M1210.6,360.9c0.4-3,0.8-6.8,1.4-11c-0.9,6.9-0.9,7.2-1.2,9.7C1210.7,359.9,1210.7,360.3,1210.6,360.9z"/>
		<path class="st3" d="M1216.5,313.7c0-0.1,0-0.1,0-0.2L1216.5,313.7L1216.5,313.7z"/>
		<path class="st3" d="M1167.7,647.7c0,0,0,0.1,0,0.1C1167.6,647.8,1167.7,647.8,1167.7,647.7z"/>
		<path class="st3" d="M1167.4,648.4c-0.1,0.2-0.2,0.3-0.3,0.4C1167.2,648.7,1167.3,648.5,1167.4,648.4z"/>
		<path class="st3" d="M1167.5,648.1C1167.5,648.1,1167.5,648.2,1167.5,648.1C1167.5,648.2,1167.5,648.1,1167.5,648.1z"/>
		<path class="st3" d="M1277.7,142.6c0.1-0.1,0.3-0.3,0.4-0.4c0,0-0.1,0.1-0.1,0.1C1277.9,142.4,1277.8,142.5,1277.7,142.6z"/>
		<path class="st3" d="M1371.2,20.5c-0.1,0.2-0.1,0.4-0.2,0.6C1371.1,20.8,1371.2,20.7,1371.2,20.5z"/>
		<path class="st3" d="M1370.9,21.8c-0.4,1.6-0.8,3-1.3,4.5C1370.1,24.8,1370.5,23.3,1370.9,21.8z"/>
		<path class="st3" d="M1372.3,16.3c0,0.1-0.1,0.3-0.1,0.4C1372.2,16.5,1372.2,16.4,1372.3,16.3z"/>
		<path class="st3" d="M1170.3,640.5c-0.1,0.3-0.3,1-0.6,1.9C1169.9,641.8,1170.1,641.2,1170.3,640.5z"/>
		<path class="st3" d="M1373.2,12.2c-0.2,0.8-0.4,1.8-0.7,3.2C1372.7,14.3,1373,13.3,1373.2,12.2z"/>
		<path class="st3" d="M1374.4,6.4c-0.1,0.4-0.2,0.8-0.3,1.2C1374.3,7.2,1374.3,6.8,1374.4,6.4z"/>
		<path class="st3" d="M1121.6,677.1c0.8-0.5,1.6-1.1,2.4-1.7c-0.2,0.2-0.4,0.3-0.5,0.4C1123.2,676,1122.5,676.4,1121.6,677.1z"/>
		<path class="st3" d="M1214.4,330.7c0.1-0.6,0.2-1.3,0.2-1.9l0,0.2C1214.6,329,1214.5,329.4,1214.4,330.7z"/>
		<path class="st3" d="M1264.9,156.2c0,0,0.1-0.1,0.1-0.1C1265,156.1,1264.9,156.1,1264.9,156.2
			C1264.9,156.1,1264.9,156.1,1264.9,156.2z"/>
		<path class="st3" d="M1143.9,661.6c0.1-0.1,0.2-0.1,0.3-0.2l-0.1,0.1L1143.9,661.6z"/>
		<path class="st3" d="M1165.7,649.8C1165.6,649.9,1165.6,649.9,1165.7,649.8c0.3-0.2,0.7-0.4,0.9-0.6c0.1-0.1,0.3-0.2,0.4-0.4
			C1166.7,649.2,1166.1,649.6,1165.7,649.8z"/>
		<path class="st3" d="M1243.9,184.4C1243.9,184.4,1243.9,184.4,1243.9,184.4C1243.9,184.4,1243.9,184.4,1243.9,184.4
			C1243.9,184.4,1243.9,184.4,1243.9,184.4z"/>
		<path class="st3" d="M1160.5,652.1C1160.5,652.1,1160.6,652.1,1160.5,652.1L1160.5,652.1L1160.5,652.1z"/>
		<path class="st3" d="M1233.2,207.3c0.8-2.4,2.2-5.7,3.7-9.1C1236,200.3,1234.3,204,1233.2,207.3
			C1233.2,207.3,1233.2,207.3,1233.2,207.3z"/>
		<path class="st3" d="M1152,656.6c0.1-0.1,0.2-0.1,0.3-0.2l-0.1,0.1L1152,656.6z"/>
		<path class="st3" d="M1227.2,237.7c0-0.2,0-0.3,0.1-0.5c0,0,0,0.1,0,0.1C1227.3,237.4,1227.2,237.5,1227.2,237.7z"/>
		<path class="st3" d="M1148.5,658.7c0.1-0.1,0.3-0.2,0.4-0.2l-0.2,0.1L1148.5,658.7z"/>
		<path class="st3" d="M1156.7,654c0.1,0,0.2-0.1,0.2-0.1l-0.1,0.1L1156.7,654z"/>
		<path class="st3" d="M1177.1,609.1l-1,5.7c0,0-0.8,4.4-1,5.5c0.9-4.8,2.5-13.8,3.9-22.4C1178.6,600.4,1177.1,609.1,1177.1,609.1z"
			/>
		<path class="st3" d="M1171,637.8c0.3-0.9,0.5-1.9,0.8-3L1171,637.8z"/>
		<path class="st3" d="M1336.3,91.5c0.2-0.2,0.3-0.3,0.5-0.5C1336.6,91.2,1336.4,91.3,1336.3,91.5z"/>
		<path class="st3" d="M1179.3,596.7c0.7-4.3,1.4-8.4,2-11.8C1180.8,587.7,1179.6,594.6,1179.3,596.7z"/>
		<path class="st3" d="M1185.1,559.2c0,0-0.1,0.7-1.7,12.3c-0.3,2.4-0.6,4.3-0.8,5.8c0.1-0.3,0.1-0.6,0.1-0.6c0,0,0,0,0,0s0,0,0,0
			c0.1-0.7,1.3-9.4,2.8-19.8L1185.1,559.2z"/>
		<path class="st3" d="M1170.4,640c0.1-0.2,0.1-0.4,0.2-0.7c0.1-0.4,0.2-0.8,0.3-1.3C1170.9,638.3,1170.6,639.5,1170.4,640z"/>
		<path class="st3" d="M1082.8,703.9l0.1-0.1l0,0c0,0,0,0,0,0c0,0,0,0,0,0C1082.9,703.9,1082.9,703.9,1082.8,703.9z"/>
		<path class="st3" d="M1328.5,98.5c1-0.8,1.9-1.6,2.7-2.3C1330.3,97,1329.3,97.8,1328.5,98.5z"/>
		<path class="st3" d="M1164,650.6c0.5-0.2,0.9-0.4,1.3-0.5C1164.8,650.3,1164.3,650.5,1164,650.6z"/>
		<path class="st3" d="M1189.8,526.2c-0.1,0.6-0.4,3-0.8,5.5c0.8-5.7,1.4-9.7,1.4-10.2c0,0,0,0,0,0c0,0,0,0,0-0.1
			c0.1-0.6,0.6-4.8,1.4-10.5C1191.5,513.1,1190,525,1189.8,526.2z"/>
		<path class="st3" d="M1140.7,663.7l-0.2,0.2c0.1-0.1,0.2-0.2,0.3-0.2L1140.7,663.7z"/>
		<path class="st3" d="M1103.6,689.7c-0.1,0.1-8.7,6-9.1,6.3c0,0,0,0,0,0c7.5-5.2,16.3-11.2,18.7-12.9c0,0,0,0,0,0
			c0.1-0.1,0.2-0.1,0.3-0.2C1112,683.8,1103.7,689.6,1103.6,689.7z"/>
		<path class="st3" d="M1174.1,625.2c0.2-0.9,0.4-1.7,0.6-2.5c0,0,0-0.1,0-0.1c0.1-0.4,0.2-0.9,0.3-1.4c0.1-0.3,0.1-0.6,0.2-0.9
			C1174.9,621.2,1174.2,624.5,1174.1,625.2z"/>
		<path class="st3" d="M1322.6,103.4c-2.3,1.9-6.1,4.9-8.1,6.5c0,0,0,0,0,0c1.9-1.5,4.3-3.4,7.6-6.1c0,0,0,0,0,0
			C1322.2,103.7,1322.4,103.5,1322.6,103.4z"/>
		<path class="st3" d="M1345.9,79.5c2-3,4-6.4,5.8-9.5C1350.8,71.6,1347,77.9,1345.9,79.5z"/>
		<path class="st3" d="M1172.8,630.7c0.4-1.8,0.8-3.5,1.2-5.1C1173.8,626.4,1172.9,630.1,1172.8,630.7z"/>
		<path class="st3" d="M1356,62.3c0.5-0.9,0.8-1.6,1-2c0,0,0-0.1,0-0.1c0.1-0.2,0.2-0.4,0.3-0.7c0.4-1,1.1-2.5,1.9-4.4
			C1358.6,56.6,1357,60.3,1356,62.3z"/>
		<path class="st3" d="M1362,48c1-2.5,2-5.3,3-8.1C1364.2,42.3,1362.9,45.8,1362,48z"/>
		<path class="st3" d="M1340.9,86.4c0.8-0.9,1.7-2.1,2.7-3.4c0.7-1,1.5-2.1,2.2-3.3C1344.7,81.3,1342.6,84.3,1340.9,86.4z"/>
		<path class="st3" d="M1359.4,54.8c0.2-0.5,0.4-1.1,0.7-1.7C1359.8,53.7,1359.6,54.3,1359.4,54.8z"/>
		<path class="st3" d="M1293.1,127.9C1293.1,127.9,1293.1,127.9,1293.1,127.9c0.1-0.1,0.1-0.1,0.2-0.2
			C1293.3,127.8,1293.2,127.8,1293.1,127.9z"/>
		<path class="st3" d="M1198.4,459.7c-0.1,1-1.6,12.7-1.7,13.5c0,0,0,0,0,0c0-0.2,0-0.3,0-0.4c0-0.1,0-0.2,0-0.2
			c0-0.1,0-0.4,0.1-0.6C1197.1,470.1,1197.7,465.3,1198.4,459.7C1198.4,459.6,1198.4,459.6,1198.4,459.7z"/>
		<path class="st3" d="M1365.6,38.6c0.8-2.1,1.5-4.3,2.3-6.5c0,0,0,0,0,0c0.3-1,0.7-2,1-3C1367.7,32.4,1366.2,36.8,1365.6,38.6z"/>
		<path class="st3" d="M1229.9,221.7c0,0.1,0,0.2,0,0.3c0-0.1,0.1-0.3,0.1-0.4C1229.9,221.6,1229.9,221.7,1229.9,221.7z"/>
		<path class="st3" d="M644.6,47.4c0,0,0,0.1,0,0.2c1.2,5.6,19.1,89.4,19.1,89.4l13.1,65l0,0.1l0,0.1l14.2,72.3
			c0,0,10,52.1,11.2,58.4c0,0.1,0,0.2,0.1,0.3c0,0.1,0,0.3,0.1,0.4c1.1,6,7.4,39.3,10.8,58c0,0,0,0,0,0c1.3,7,2.5,11.6,3.7,14.9
			c1.8,4.7,3.6,7,6,10.3c0.5,0.8,1.1,1.6,1.7,2.5c0,0,0,0,0,0c0.6,0.9,1.4,2,2.3,3.4c7.8,10.7,27.4,34.3,27.9,35c0,0,0,0,0,0l0,0
			l56.4,61.8l0,0l0,0l65.5,66.7c0,0,61.3,59.7,66.8,65c0.1,0.1,0.2,0.2,0.2,0.2c0.1,0.1,0.2,0.2,0.3,0.3c5.4,5,51.6,47.9,51.6,47.9
			c1.4,1.3,20.8,18.1,26.6,22.8c0,0,0,0,0,0c0.7,0.6,1.4,1.1,2,1.5c-7.6-9.5-27.6-86.4-12.5-170.4c15.1-84,16.9-159.9,22.4-259.9
			c5.4-97.5-6.9-138-21-293.9H632.1C635.9,14.2,643.9,44.4,644.6,47.4C644.6,47.4,644.6,47.4,644.6,47.4z"/>
		<path class="st3" d="M1332.3,95.3c1-0.9,1.8-1.6,2.5-2.3C1333.9,93.8,1332.9,94.7,1332.3,95.3z"/>
		<path class="st3" d="M1324,102.2c-0.1,0-0.1,0.1-0.2,0.2c0.9-0.7,1.7-1.4,2.5-2C1325.6,100.9,1324.8,101.5,1324,102.2z"/>
		<path class="st3" d="M1171.8,634.8c0.3-1.3,0.7-2.6,1-4L1171.8,634.8z"/>
		<path class="st3" d="M1205.4,403.4c-0.2,1.7-1.3,10.7-1.8,15c1-8.3,2.1-17.3,2.4-19.3C1205.7,401.1,1205.5,402.7,1205.4,403.4z"/>
		<path class="st3" d="M1201.6,433.8c-0.2,1.7-1.2,10-1.6,12.5c-0.2,1.5-0.6,5-1,8C1200.3,444.2,1201.6,433.8,1201.6,433.8
			C1201.6,433.8,1201.6,433.8,1201.6,433.8z"/>
		<path class="st3" d="M1351.7,69.9c0.7-1.3,1.5-2.5,2.1-3.7C1353,67.7,1352.2,69.1,1351.7,69.9z"/>
		<path class="st3" d="M1322.9,103.1c0.1-0.1,0.3-0.2,0.4-0.3C1323.2,102.9,1323.1,103,1322.9,103.1z"/>
		<path class="st3" d="M1328,98.9C1328,98.9,1328.1,98.9,1328,98.9C1328.1,98.9,1328,98.9,1328,98.9z"/>
		<path class="st4" d="M1034.3,293.6c-5.5,100-7.4,175.9-22.4,259.9c-15.1,84,5,160.9,12.5,170.4c0,0,0,0,0,0
			c7.6,9.5,33.1-4.3,43.6-10.6c3.5-2.1,6.1-3.7,8.1-5c4.1-2.6,5.6-3.7,6.8-4.3c0,0,0,0,0,0c0,0,0.1-0.1,0.2-0.1l0,0
			c0.4-0.2,0.9-0.6,1.5-1c3.3-2.2,9.6-6.6,9.9-6.9c0,0,0,0,0,0c0.4-0.3,9-6.2,9.1-6.3s8.4-5.8,9.9-6.8c0,0,0.1,0,0.1-0.1
			c0.9-0.6,5.4-3.8,8.1-5.7c0.9-0.6,1.6-1.1,1.8-1.3c0.1-0.1,0.3-0.2,0.5-0.4c1.7-1.2,6.2-4.4,6.2-4.4l4.5-3.1l5.5-3.8l0.3-0.2
			l0.2-0.2l0.1-0.1l0.3-0.2l2.9-1.9l0.2-0.1l0.1-0.1l4.4-2.7l0.2-0.1l0.2-0.1l3.1-1.8l0.2-0.1l0.1-0.1l4.3-2.4l0.1-0.1l0.1-0.1
			l3.6-1.8l0,0l0,0l3-1.3l0.1-0.1c0,0,0.1,0,0.2-0.1c0.3-0.1,0.8-0.3,1.3-0.5c0.1-0.1,0.3-0.1,0.4-0.2c0,0,0,0,0.1,0
			c0.4-0.3,1-0.7,1.3-1c0,0,0,0,0.1-0.1c0,0,0,0,0,0c0.1-0.1,0.2-0.3,0.3-0.4c0-0.1,0.1-0.1,0.1-0.2c0,0,0,0,0,0
			c0-0.1,0.1-0.2,0.1-0.3c0,0,0-0.1,0-0.1c0,0,0,0,0-0.1c0.2-0.6,1.1-2.7,1.2-3.1c0,0,0.3-0.5,0.7-1.9c0-0.1,0-0.1,0.1-0.2
			c0.3-0.9,0.5-1.5,0.6-1.9c0-0.2,0.1-0.3,0.1-0.3c0,0,0-0.1,0.1-0.3c0.1-0.5,0.5-1.6,0.5-1.9c0,0,0-0.1,0-0.1l0-0.2l0.8-3l0,0l0,0
			l1-4l0-0.1c0,0,0,0,0-0.1c0.1-0.6,1-4.3,1.2-5.1c0-0.1,0-0.1,0-0.2c0,0,0-0.1,0-0.1c0.2-0.8,0.9-4,1-4.9c0,0,0,0,0,0c0,0,0,0,0,0
			c0.2-1,1-5.5,1-5.5l1-5.7c0,0,1.5-8.7,1.9-11.2c0.1-0.3,0.1-0.5,0.1-0.6c0-0.1,0.1-0.3,0.1-0.6c0.4-2.1,1.5-9,2-11.8
			c0.1-0.4,0.1-0.7,0.1-0.9c0.2-1.5,0.3-1.2,1.1-6.7c0.2-1.5,0.5-3.3,0.8-5.8c1.6-11.6,1.7-12.3,1.7-12.3l0.4-2.5l1.1-7.5l1.7-11.7
			c0,0,0.4-3,0.8-5.9c0.3-2.5,0.7-4.9,0.8-5.5c0.2-1.2,1.8-13.2,2-15.3c0-0.1,0-0.1,0-0.2c0.2-1.6,1.8-13.9,1.9-14.9
			c0.1-1,1.5-11.9,1.7-12.9c0.1-0.4,0.3-2.3,0.6-4.3c0.3-2.4,0.7-5,0.7-5.5c0,0,0,0,0,0c0,0,0,0,0,0c0.1-0.8,1.6-12.5,1.7-13.5
			c0,0,0-0.1,0-0.1c0.1-0.6,0.3-2.8,0.7-5.3c0.4-3,0.8-6.5,1-8c0.3-2.5,1.3-10.8,1.6-12.5c0-0.2,0-0.3,0-0.3s1.3-10.6,1.6-13
			c0.1-0.4,0.1-1.1,0.2-2c0.5-4.4,1.6-13.3,1.8-15c0.1-0.7,0.3-2.4,0.5-4.3c0.1-0.5,0.1-1,0.2-1.5c0.4-3.3,0.9-7.1,1.1-8.6
			c0.3-2.7,1.5-12.4,1.8-14.2c0.2-1.6,1.2-9.9,1.7-13.9c0.1-0.5,0.1-1,0.2-1.3c0.3-2.5,0.3-2.8,1.2-9.7c0.2-1.5,0.4-3.3,0.7-5.5
			c1-7.7,1.5-11.7,1.7-13.7c0.2-1.2,0.2-1.7,0.2-1.7l0-0.2l1.9-15.1l0,0l0-0.2l1.8-13.5l0-0.2l0-0.2l1.3-9.8c0,0,1.4-10.5,1.5-11.3
			c0,0,0,0,0,0s0,0,0,0c0.1-0.7,2.2-14.9,2.3-15.8c0-0.1,0-0.3,0.1-0.6c0.4-2.5,1.7-11.5,1.7-11.5s1.6-10.7,2-12.9
			c0-0.2,0-0.3,0.1-0.4c0,0,0-0.1,0-0.1c0.2-1,1.4-8.3,2.1-12.6c0.2-1.2,0.4-2.2,0.5-2.7c0-0.1,0-0.2,0-0.3c0,0,0-0.1,0-0.2
			c0.1-0.6,0.5-2.2,0.9-4.2c0.8-3.5,1.8-8,2.4-10c0,0,0,0,0,0c1.1-3.3,2.8-7,3.7-9.1c0,0,0,0,0,0c0.9-2,6-12.4,6.9-13.8c0,0,0,0,0,0
			c0,0,0,0,0,0c0.9-1.4,4.8-7,6-8.6c1.1-1.5,6-8.3,8.1-11.1c0.1-0.1,0.2-0.2,0.3-0.3c0.1-0.1,0.1-0.2,0.2-0.2c1.7-2.3,5.3-6.6,6.5-8
			c0,0,0,0,0.1-0.1c0,0,0,0,0.1-0.1c1.3-1.5,10.7-11.4,12.7-13.5c0.1-0.1,0.2-0.2,0.3-0.3c0,0,0.1-0.1,0.1-0.1
			c1.4-1.4,9.2-8.8,13-12.4c1-1,1.8-1.6,2-1.9c0,0,0,0,0,0c0,0,0.1-0.1,0.2-0.2c0.6-0.5,2-1.7,3.5-3c2.5-2.1,5.4-4.6,6.1-5.2
			c0,0,0,0,0.1-0.1c0,0,0.1-0.1,0.2-0.2c1.5-1.3,8.9-7.4,11.3-9.3c0,0,0,0,0,0c2-1.6,5.8-4.6,8.1-6.5c0.1-0.1,0.2-0.2,0.4-0.3
			c0.1-0.1,0.3-0.2,0.4-0.3c0.2-0.1,0.3-0.3,0.5-0.4c0.1-0.1,0.1-0.1,0.2-0.2c0.8-0.7,1.6-1.3,2.3-1.8c0.6-0.5,1.2-1,1.8-1.5
			c0,0,0.1-0.1,0.1-0.1c0.1-0.1,0.2-0.2,0.3-0.3c0,0,0,0,0,0c0.8-0.7,1.8-1.6,2.7-2.3c0.4-0.4,0.8-0.7,1.1-0.9c0,0,0,0,0,0
			c0.6-0.5,1.6-1.4,2.5-2.3c0.5-0.5,1-1,1.4-1.4c0,0,0,0,0.1-0.1c0.1-0.1,0.3-0.3,0.5-0.5c1.2-1.2,2.6-2.7,4.1-4.5c0,0,0,0,0,0
			c1.7-2.1,3.9-5.1,4.9-6.7c0-0.1,0.1-0.1,0.1-0.2c0,0,0,0,0-0.1c1-1.6,4.8-7.9,5.8-9.5c0,0,0,0,0,0c0,0,0,0,0-0.1
			c0.5-0.8,1.3-2.2,2.1-3.7c0.8-1.4,1.6-2.9,2.1-3.9c0,0,0,0,0,0c1.1-2,2.6-5.7,3.3-7.2c0,0,0-0.1,0-0.1c0-0.1,0.1-0.1,0.1-0.2
			c0.2-0.5,0.4-1.1,0.7-1.7c0.6-1.4,1.2-3.1,1.9-4.9c0,0,0-0.1,0-0.1c0.9-2.3,2.2-5.8,3-8.1c0.2-0.5,0.3-0.9,0.5-1.3
			c0,0,0-0.1,0-0.1c0.6-1.8,2.2-6.2,3.2-9.5c0.3-0.9,0.5-1.7,0.7-2.4c0-0.1,0.1-0.2,0.1-0.4c0.4-1.4,0.8-2.9,1.3-4.5
			c0.1-0.3,0.1-0.5,0.2-0.8c0.1-0.2,0.1-0.4,0.2-0.6c0.3-1.2,0.6-2.5,0.9-3.8c0-0.1,0.1-0.3,0.1-0.4c0-0.1,0.1-0.3,0.1-0.4
			c0-0.1,0.1-0.3,0.1-0.4c0.3-1.4,0.5-2.4,0.7-3.2c0.3-1.3,0.5-2.2,0.9-4c0-0.2,0.1-0.4,0.1-0.6c0.1-0.4,0.2-0.8,0.3-1.2
			c0.3-1.5,0.6-3.1,0.9-4.6c0,0,0,0,0,0c0.1-0.7,0.3-1.3,0.4-2h-362.5C1027.4,155.7,1039.6,196.1,1034.3,293.6z"/>
	</g>
</g>
<g id="Ancre">
	<path class="st5" d="M1221.3,574.8l-13.2-16.6l-7.3,19.9l6.4-1c0.1,6.3-1.9,12.4-6,17.6c-2.8,3.6-6.4,6.5-10.5,8.6
		c-2.3,1.2-5.1-0.2-5.5-2.8l-8.3-45.7l1.9-0.3c0.5-0.1,0.9-0.6,0.8-1.1l-0.9-5.8c-0.1-0.5-0.6-0.9-1.1-0.8l-2,0.3l-0.7-3.8l2.1-0.3
		c0.5-0.1,0.9-0.6,0.8-1.1l-0.9-5.8c-0.1-0.5-0.6-0.9-1.1-0.8l-2.3,0.4l-0.8-4.2c3.6-2.2,5.7-6.5,4.7-10.9c-1.1-5-5.9-8.5-11-7.9
		c-5.8,0.6-9.9,6-8.9,11.7c0.7,4.2,3.9,7.4,7.9,8.3l0.6,4.2l-2.3,0.4c-0.5,0.1-0.9,0.6-0.8,1.1l1,5.8c0.1,0.5,0.6,0.9,1.1,0.8
		l2.1-0.3l0.5,3.8l-2,0.3c-0.5,0.1-0.9,0.6-0.8,1.1l0.9,5.8c0.1,0.5,0.6,0.9,1.1,0.8l1.9-0.3l6.6,46c0.4,2.6-1.8,4.7-4.4,4.4
		c-4.5-0.7-8.8-2.3-12.6-4.8c-5.5-3.7-9.4-8.8-11.3-14.8l6.4-1l-13.2-16.6l-7.3,19.9l5.8-0.9c1,3.5,2.5,6.8,4.5,9.8
		c2.6,3.9,6,7.3,10.1,10c4.1,2.7,8.6,4.6,13.5,5.7c0.8,0.2,1.6,0.3,2.3,0.4c3.4,0.5,6.6,1.8,9.3,3.8l5,3.6l3.6-5
		c2-2.8,4.6-5,7.6-6.5c0.7-0.4,1.4-0.7,2.1-1.1c4.3-2.5,8-5.8,11-9.6c3-3.9,5.2-8.1,6.4-12.7c1-3.5,1.4-7.1,1.2-10.7L1221.3,574.8z
		 M1162.4,524c-0.9-3.2,1.4-6.4,4.8-6.6c2.4-0.1,4.7,1.5,5.3,3.8c0.9,3.2-1.4,6.4-4.8,6.6C1165.3,528,1163,526.4,1162.4,524z"/>
</g>
<g id="Fissure">
	<polygon class="st4" points="1140,607 1156.7,582.8 1145.3,560.8 1116.3,577.3 	"/>
	<g>
		<path class="st6" d="M1143.6,601.1c-0.4-0.9-0.8-1.8-1.2-2.8c-0.4-0.9-0.7-1.9-1.1-2.8l0.8,0.5l-2.5,0.6l-2.5,0.5l-0.8,0.2
			l-0.3-0.8l-1-3.3l-0.9-3.3c-0.3-1.1-0.5-2.2-0.8-3.3c-0.2-1.1-0.5-2.2-0.7-3.3l0.6,0.4c-1.6-0.1-3.1-0.3-4.7-0.6
			c1.6-0.3,3.1-0.4,4.7-0.6l0.4,0l0.2,0.5c0.4,1.1,0.8,2.1,1.2,3.2c0.4,1.1,0.7,2.2,1.1,3.2l1,3.3l0.9,3.3l-1.1-0.7l2.6-0.3l2.6-0.3
			l0.7-0.1l0.1,0.6c0.2,1,0.4,2,0.6,3C1143.4,599.1,1143.5,600.1,1143.6,601.1z"/>
	</g>
	<g>
		<path class="st7" d="M1149.5,592.8c0.2-1.2,0.6-2.4,0.9-3.6l0.1,0.4c-0.5-0.5-0.9-1-1.4-1.5l-0.2-0.3l0.2-0.3
			c1.1-1.5,2.2-3,3.4-4.5l0,0.4c-0.4-1-0.7-2.1-1-3.2c0.6,0.9,1.2,1.9,1.7,2.9l0.1,0.2l-0.1,0.2c-1,1.6-2.1,3.1-3.2,4.6l0-0.6
			c0.4,0.6,0.8,1.1,1.2,1.7l0.1,0.2l-0.1,0.2C1150.6,590.6,1150.1,591.7,1149.5,592.8z"/>
	</g>
	<g>
		<path class="st6" d="M1137.7,606.1c0.9-0.5,1.8-0.9,2.6-1.3c0.9-0.4,1.8-0.8,2.7-1.2l-0.2,0.3c0.1-0.7,0.2-1.4,0.3-2l0-0.1
			l0.1-0.1c1-1.5,2-3,3-4.5c1-1.5,2.1-3,3.2-4.4l0.1-0.2l0.2,0c1.2,0.2,2.4,0.3,3.7,0.5l-0.2,0.2c-0.1-0.8-0.1-1.7-0.2-2.5
			c0.2,0.8,0.4,1.6,0.6,2.4l0.1,0.2l-0.3,0c-1.2,0-2.5-0.1-3.7-0.2l0.4-0.2c-1,1.5-2,3.1-3,4.6c-1,1.5-2.1,3-3.1,4.5l0.1-0.2
			c-0.1,0.7-0.3,1.3-0.5,2l0,0.2l-0.2,0.1c-0.9,0.3-1.8,0.6-2.8,0.9C1139.6,605.5,1138.6,605.8,1137.7,606.1z"/>
	</g>
	<g>
		<path class="st8" d="M1146.8,596.7c-0.5-0.3-0.9-0.7-1.4-1l-0.1-0.1l0.1-0.2c0.2-0.4,0.3-0.7,0.5-1.1l0.1,0.4
			c-0.4-0.3-0.9-0.6-1.3-0.8l-0.4-0.2l0.3-0.4c0.6-0.7,1.2-1.4,1.8-2.1l0.2,0.8c-0.9-0.2-1.8-0.5-2.7-0.7l-0.6-0.2l0.2-0.5
			c0.5-1,1-2,1.5-3.1l0.1,0.3c-0.5-0.6-1.1-1.3-1.6-2c0.7,0.5,1.3,1,2,1.5l0.1,0.1l-0.1,0.2c-0.4,1.1-0.8,2.1-1.2,3.2l-0.3-0.6
			c0.9,0.2,1.8,0.4,2.8,0.7l0.8,0.2l-0.5,0.6c-0.6,0.7-1.3,1.4-1.9,2l-0.1-0.6c0.4,0.3,0.8,0.7,1.2,1l0.2,0.2l-0.2,0.2
			c-0.2,0.3-0.5,0.6-0.7,0.9l0-0.3C1146,595.8,1146.4,596.2,1146.8,596.7z"/>
	</g>
</g>
<g id="bubulle_3_g">
	<g>
		<path class="st1" d="M280.1,695.6c0,0,0-0.2,0-0.6c0-0.2,0-0.4-0.1-0.7c0-0.3-0.1-0.6-0.2-1c-0.2-0.7-0.5-1.5-1.1-2.4
			c-0.6-0.8-1.4-1.7-2.4-2.3c-1-0.7-2.3-1.1-3.7-1.2c-0.3,0-0.7,0-1.1,0c-0.4,0-0.8,0-1.1,0.1c-0.7,0.1-1.4,0.4-2.1,0.7
			c-1.4,0.7-2.6,1.7-3.4,3c-0.4,0.7-0.7,1.4-1,2.1c-0.2,0.7-0.3,1.6-0.3,2.3c0,0.9,0.1,1.6,0.3,2.4c0.2,0.7,0.6,1.5,1,2.1
			c0.8,1.3,2,2.4,3.4,3c1.4,0.6,2.8,0.9,4.3,0.8c1.4-0.1,2.7-0.6,3.7-1.2c1.1-0.7,1.8-1.5,2.4-2.3c0.6-0.8,0.9-1.7,1.1-2.4
			c0.1-0.4,0.2-0.7,0.2-1c0-0.3,0.1-0.5,0.1-0.7C280.1,695.8,280.1,695.6,280.1,695.6z M280.1,695.6c0,0,0,0.2,0,0.6
			c0,0.2,0,0.4-0.1,0.7c0,0.3-0.1,0.6-0.2,1c-0.2,0.7-0.5,1.5-1.1,2.4c-0.5,0.9-1.3,1.7-2.4,2.5c-1,0.7-2.3,1.3-3.8,1.5
			c-1.4,0.2-3.1,0-4.6-0.6c-0.8-0.3-1.5-0.7-2.1-1.3c-0.7-0.5-1.2-1.2-1.7-1.9c-0.5-0.7-0.9-1.5-1.1-2.4c-0.3-0.8-0.4-1.8-0.4-2.6
			c0-1.8,0.5-3.5,1.5-5c0.5-0.7,1.1-1.3,1.7-1.9c0.7-0.5,1.4-1,2.1-1.3c0.8-0.3,1.5-0.5,2.3-0.6c0.4-0.1,0.8-0.1,1.1-0.1
			c0.4,0,0.8,0,1.1,0.1c1.5,0.2,2.8,0.8,3.8,1.5c1,0.7,1.8,1.6,2.4,2.5c0.6,0.9,0.9,1.7,1.1,2.4c0.1,0.4,0.2,0.7,0.2,1
			c0,0.3,0.1,0.5,0.1,0.7C280.1,695.4,280.1,695.6,280.1,695.6z"/>
	</g>
</g>
<g id="bubulle_2_g">
	<g>
		<path class="st1" d="M287.8,808.5c0,0,0-0.4-0.1-1.1c0-0.4-0.1-0.8-0.2-1.4c0-0.3-0.1-0.6-0.1-0.9c-0.1-0.3-0.2-0.6-0.3-0.9
			c-0.4-1.3-1-2.9-2.1-4.5c-1.1-1.6-2.6-3.2-4.5-4.5c-2-1.3-4.4-2.2-7.1-2.5c-0.7,0-1.4-0.1-2-0.1c-0.7,0.1-1.4,0.1-2.1,0.2
			c-1.4,0.2-2.8,0.7-4.1,1.2c-1.3,0.6-2.6,1.4-3.7,2.4c-1.1,1-2.1,2.1-3,3.4c-0.8,1.3-1.5,2.7-1.9,4.1c-0.4,1.5-0.6,3-0.6,4.5
			c0,1.6,0.2,3.1,0.6,4.5c0.5,1.5,1.1,2.9,1.9,4.1c0.9,1.3,1.8,2.4,3,3.4c1.1,0.9,2.4,1.8,3.7,2.4c2.6,1.2,5.5,1.6,8.2,1.4
			c2.7-0.3,5.1-1.2,7.1-2.5c2-1.3,3.5-2.9,4.5-4.5c1.1-1.6,1.7-3.2,2.1-4.5c0.1-0.3,0.2-0.7,0.3-0.9c0.1-0.3,0.1-0.6,0.1-0.9
			c0.1-0.5,0.2-1,0.2-1.4C287.7,808.9,287.8,808.5,287.8,808.5z M287.8,808.5c0,0,0,0.4-0.1,1.1c0,0.4-0.1,0.8-0.1,1.4
			c0,0.3-0.1,0.6-0.1,0.9c-0.1,0.3-0.2,0.6-0.2,1c-0.4,1.3-1,2.9-2,4.6c-1.1,1.6-2.5,3.3-4.5,4.6c-2,1.4-4.4,2.4-7.2,2.7
			c-2.7,0.3-5.7,0-8.5-1.2c-1.4-0.6-2.7-1.4-4-2.4c-1.2-1-2.3-2.2-3.2-3.5c-0.9-1.3-1.6-2.8-2.1-4.4c-0.5-1.6-0.7-3.2-0.7-4.8
			c0-1.6,0.3-3.3,0.7-4.8c0.5-1.5,1.2-3,2.1-4.4c0.9-1.3,2-2.5,3.2-3.5c1.2-1,2.5-1.8,4-2.4c1.4-0.6,2.8-1,4.3-1.2
			c0.7-0.1,1.4-0.1,2.1-0.1c0.7,0,1.4,0.1,2.1,0.1c2.7,0.4,5.2,1.4,7.2,2.7c2,1.4,3.5,3,4.5,4.6c1.1,1.6,1.7,3.2,2,4.6
			c0.1,0.3,0.2,0.7,0.2,1c0.1,0.3,0.1,0.6,0.1,0.9c0.1,0.5,0.1,1,0.1,1.4C287.7,808.1,287.8,808.5,287.8,808.5z"/>
	</g>
</g>
<g id="bubulle_1_g">
	<g>
		<path class="st1" d="M231.6,745.1c0,0,0-0.3-0.1-0.9c0-0.3-0.1-0.6-0.1-1c0-0.4-0.2-0.9-0.3-1.4c-0.3-1-0.8-2.3-1.6-3.5
			c-0.8-1.2-2-2.5-3.5-3.5c-1.5-1-3.4-1.7-5.5-1.9c-0.5,0-1-0.1-1.6,0c-0.5,0-1.1,0.1-1.6,0.2c-1.1,0.1-2.1,0.5-3.1,1
			c-2,0.9-3.8,2.5-5.1,4.4c-0.6,1-1.1,2-1.5,3.2c-0.3,1.1-0.5,2.3-0.5,3.5c0,1.3,0.2,2.4,0.5,3.5c0.4,1.1,0.8,2.2,1.5,3.2
			c1.3,1.9,3.1,3.5,5.1,4.4c2,0.9,4.2,1.3,6.3,1.1c2-0.2,3.9-0.9,5.5-1.9c1.5-1,2.7-2.2,3.5-3.5c0.8-1.2,1.3-2.5,1.6-3.5
			c0.1-0.5,0.3-1,0.3-1.4c0.1-0.4,0.1-0.8,0.1-1C231.6,745.4,231.6,745.1,231.6,745.1z M231.6,745.1c0,0,0,0.3,0,0.9
			c0,0.3,0,0.6-0.1,1c0,0.4-0.1,0.9-0.3,1.4c-0.3,1-0.7,2.3-1.6,3.5c-0.8,1.3-2,2.5-3.5,3.6c-1.5,1.1-3.4,1.9-5.6,2.1
			c-2.1,0.3-4.4,0-6.6-0.9c-1.1-0.4-2.1-1.1-3.1-1.8c-0.9-0.8-1.8-1.7-2.5-2.7c-0.7-1-1.2-2.2-1.6-3.4c-0.4-1.2-0.6-2.5-0.6-3.7
			c0-1.3,0.2-2.6,0.6-3.8c0.4-1.2,0.9-2.3,1.6-3.4c0.7-1,1.5-2,2.5-2.7c1-0.7,2-1.4,3.1-1.8c1.1-0.4,2.2-0.8,3.3-0.9
			c0.6-0.1,1.1-0.1,1.6-0.1c0.6,0,1.1,0.1,1.6,0.1c2.1,0.3,4,1.1,5.5,2.1c1.5,1.1,2.7,2.3,3.5,3.6c0.8,1.3,1.3,2.5,1.6,3.5
			c0.1,0.5,0.2,1,0.3,1.4c0.1,0.4,0.1,0.8,0.1,1C231.6,744.8,231.6,745.1,231.6,745.1z"/>
	</g>
</g>
</svg>
