<?xml version="1.0" encoding="utf-8"?>
<!-- Generator: Adobe Illustrator 22.0.1, SVG Export Plug-In . SVG Version: 6.00 Build 0)  -->
<svg version="1.1" id="Calque_1" xmlns="http://www.w3.org/2000/svg" xmlns:xlink="http://www.w3.org/1999/xlink" x="0px" y="0px"
	 viewBox="0 0 1920 1080" preserveAspectRatio="none" xml:space="preserve">
<style type="text/css">
	.st0{fill:#254462;}
	.st1{fill:#002E82;}
	.st2{fill:#35291C;}
	.st3{fill:#76AADB;}
	.st4{fill:#AEADB3;}
	.st5{fill:#302E2D;}
	.st6{fill:#3B3938;}
	.st7{fill:#201F1D;}
	.st8{fill:#798D9B;}
	.st9{fill:#F6DD59;}
	.st10{fill:#444242;}
	.st11{fill:#E6BFA0;}
	.st12{fill:#261B05;}
	.st13{fill:#232120;}
	.st14{fill:#262523;}
	.st15{fill:#353432;}
	.st16{fill:#343231;}
	.st17{fill:#E0BF55;}
	.st18{fill:#FFFFFF;}
	.st19{fill:#EFCEA8;}
	.st20{fill:#52E7FF;}

	@keyframes movBras{
		0% {
			transform: rotate(0deg)
		}
		100% {
			transform: rotate(20deg)
		}
	}
	#Bras{
		position: relative;
		transform-origin: 8% 70%;
        animation: movBras 2s linear alternate infinite;
	}

	@keyframes bulleM{
		0% {
			transform: translate(5vw, 60vh) scale(0.3);
		}

		100% {
			transform: translate(5vw, -100vh) scale(1.5);
		}
	}
	@keyframes bulles1{
		0% {
			left: 0vw;
		}
		20%{
			left: -6vw;
		}
		40%{
			left: -3vw;
		}
		60%{
			left: -9vw;
		}
		80%{
			left: -6vw;
		}
		100%{
			left: -12vw;
		}
	}
	@keyframes bulles2{
		0% {
			left: 3vw;
		}
		20%{
			left: 6vw;
		}
		40%{
			left: -6vw;
		}
		60%{
			left: -3vw;
		}
		80%{
			left: -9vw;
		}
		100%{
			left: -6vw;
		}
	}
	@keyframes bulles3{
		0% {
			left: 0vw;
		}
		20%{
			left: -4vw;
		}
		40%{
			left: -7vw;
		}
		60%{
			left: -5vw;
		}
		80%{
			left: -7vw;
		}
		100%{
			left: -5vw;
		}
	}
	@keyframes bulles4{
		0% {
			left: -3vw;
		}
		20%{
			left: 0vw;
		}
		40%{
			left: -6vw;
		}
		60%{
			left: -3vw;
		}
		80%{
			left: -9vw;
		}
		100%{
			left: -6vw;
		}
	}
	@keyframes bulles5{
		0% {
			left: -4vw;
		}
		20%{
			left: -2vw;
		}
		40%{
			left: -7vw;
		}
		60%{
			left: -5vw;
		}
		80%{
			left: -7vw;
		}
		100%{
			left: -5vw;
		}
	}
	#Bubulle_1{
		position: relative;
        animation: bulleM 6s linear infinite, bulles1 6s infinite cubic-bezier(0.25,0.1,0.25,1);
	}
	#Bubulle_2{
		position: relative;
        animation: bulleM 5.5s linear infinite, bulles2 5.5s infinite cubic-bezier(0.25,0.1,0.25,1);	
	}
	#Bubulle_3{
		position: relative;
        animation: bulleM 5s linear infinite, bulles3 5s infinite cubic-bezier(0.25,0.1,0.25,1);	
	}
	#Bubulle_4{
		position: relative;
        animation: bulleM 5.5s linear infinite, bulles5 5.5s infinite cubic-bezier(0.25,0.1,0.25,1);	
	}
	#Bubulle_5{
		position: relative;
        animation: bulleM 6s linear infinite, bulles4 6s infinite cubic-bezier(0.25,0.1,0.25,1);	
	}
</style>
<g id="Fond">
	<rect x="0" class="st0" width="1920" height="1080"/>
</g>
<g id="Bras">
	<path class="st19" d="M276.7,684.1c2-2,0.8-6.5,2.4-7.3c8.7-3.5,15.6-9.4,21.2-16.7c-4.8-1.9-18.7,8.1-19.6,8.8
		c1-0.9,21-18.8,16.5-22.2c-4.6-3.5-25,17.5-25,17.5s18.1-24.1,13.3-26.7c-4.9-2.6-23.5,22.8-23.5,22.8s-0.5-16.9-5.5-13.6
		c-4.9,3.3-3,24.7-3,24.7s-1.3,2.7-3.7,7.1c5.8,8.1,11.2,12.2,15.4,14.2c0.3-0.4,0.6-0.8,0.9-1.3
		C268.6,688.1,273.1,686.9,276.7,684.1z"/>
	<path class="st19" d="M301.8,661.8c-0.2-0.9-0.8-1.4-1.5-1.7c-5.5,7.3-12.4,13.2-21.2,16.7c-1.6,0.8-0.4,5.3-2.4,7.3
		c-3.7,2.8-8.1,4-10.6,7.3c-0.3,0.4-0.6,0.8-0.9,1.3c5,2.4,8.3,1.9,8.3,1.9c10-7.6,12-15,12-15S302.3,663.6,301.8,661.8z"/>
	<path class="st15" d="M161.9,774c-0.8,5-2.2,10.5-4.2,16.5l0.3,0.1c92.7-22.1,115.6-96.1,115.6-96.1s-3.3,0.5-8.3-1.9
		C239.7,728.1,204.5,762.3,161.9,774z"/>
	<path class="st10" d="M249.8,678.4c-5.3,9.6-15.9,27.3-29.1,42.2c-19,21.5-54.4,16.1-55.2,16c-1.3,2.1-2.9,4.2-4.9,6.4
		c0,0,0.5,1.3,1.1,3.6c1.2-1.4,2.4-2.7,3.5-4c-1.1,1.3-2.3,2.6-3.5,4c1.1,4.8,2.5,14.2,0.3,27.4c42.6-11.7,77.8-45.9,103.4-81.4
		C261.1,690.6,255.6,686.6,249.8,678.4z"/>
</g>
<g id="Nageur">
	<g>
		<path class="st1" d="M185.8,681c-0.5-0.4-1.2-0.8-2-1.2c-1.2-0.6-2.7-1.2-4.5-1.8c-11-3.5-31.9-5.8-51.1-7.4
			c-17.3-1.4-36.8-3.5-49.5-1.8c-2.4,0.3-4.5,0.8-6.3,1.3c-1.9,0.6-3.5,1.4-4.8,2.4c-2.4,2-8.3,18.4-5.1,32c0.7,3.2,2,6.2,3.9,8.8
			c10,13.9,28.5,10,34.2,6.7c3-1.8,7.2-6.7,11.6-10.8c0,0,0,0,0,0c4-3.7,8.2-6.7,12-6.2c3,0.4,4.7,3.1,6.4,6.5
			c0.4,0.7,0.8,1.5,1.1,2.5l0,0c2.4,5.3,5.3,11.5,12.2,14.1c11.7,4.3,26.8,0.7,35-7.5c0.9-0.9,1.8-1.9,2.5-2.9
			C188.9,705.5,189.2,683.8,185.8,681z M155,720.4c-17.2-1.9-21.7-21.8-32.1-23.6c-10.3-1.8-19.5,25.1-43,17.2
			c-14.9-5-9.1-36-3.9-37c24.5-4.5,95.2,3.2,99.4,7.2C182.7,691.2,181.2,723.3,155,720.4z"/>
		<path class="st2" d="M183.2,645.2c13.4-4.4,21.1-19.3,18-22.9c-3.1-3.7-11.8,0.8-19.3,3.8c-3.4,1.3-7.2,2.6-10.4,3.5
			c4.5-4.9,12.5-18.9,7.6-21.6c-5.4-3-16.1,6.6-22.2,11.2c-5.9,4.5-17.2,7-17.9,7.1c4.3-2,16.7-19.4,7.3-22
			c-4.5-1.3-11.5,5.7-21.8,11.6c-6.6,3.8-12.4,6.9-21.4,11c-9.1,4.1-11.7,10-11.7,10s-8.8-0.3-13.6,6.9c-4.7,7,3,6.7,3.4,6.7
			c-0.3,0.4-7.8,8.2-9.2,18.7l0.6,1c1.8-0.6,4-1,6.3-1.3c8.4-22.4,18.2-25.2,18.2-25.2c5.7,3.1,24.8,10.3,38.3,12.9
			c13.5,2.6,22.3,1.3,24.9-4.3c2.4-5.1-4.4-8.9-5.7-9.5c5.8,2.8,12.4,3.5,17.9,3.5c0,0,7.2,15.2,6.9,31.9l0,0
			c1.8,0.6,3.3,1.1,4.5,1.8C192.5,657.9,183.2,645.2,183.2,645.2z"/>
		<path class="st3" d="M122.9,696.8c10.3,1.8,14.8,21.6,32.1,23.6c26.3,2.9,27.7-29.1,20.5-36.1c-4.2-4-74.9-11.7-99.4-7.2
			c-5.3,1-11,32,3.9,37C103.4,721.9,112.6,695,122.9,696.8z"/>
		<path class="st4" d="M103.1,759.4c4.1-2.2,6.1-3.9,6.1-3.9l0,0c-3-0.4-5.9-0.9-8.7-1.5C101.1,755.9,101.9,757.7,103.1,759.4z"/>
		<path class="st4" d="M109.2,755.5c-1.9-2.5-2.7-5.9-1.6-9.1c0,0-2.9,1.3-7.7,2.9c0,1.6,0.2,3.2,0.6,4.7
			C103.3,754.6,106.2,755.1,109.2,755.5z"/>
		<path class="st4" d="M103.1,759.4c-1.2-1.6-2-3.5-2.6-5.4c-2.9-0.7-5.7-1.5-8.4-2.4c-8.3,2.2-19.1,4.2-30.2,3.8
			c-16.8-0.6-35.7-5.7-46.9-13c-4,1.6-8.1,3.2-12.5,4.6c9.8,8.7,26.4,15,44.4,18.3c1.3,0.2,2.6,0.5,3.9,0.7c2.1,0.3,4.2,0.6,6.3,0.9
			c13.7,1.6,24.7,0.1,33.1-2.3c-0.6-0.8-1.2-1.7-1.8-2.5c0.6,0.9,1.2,1.7,1.8,2.5c2.8-0.8,5.4-1.7,7.6-2.6
			C99.8,761.1,101.6,760.2,103.1,759.4z"/>
		<path class="st4" d="M99.9,749.2c-2.2,0.7-4.8,1.5-7.7,2.3c2.6,0.9,5.4,1.7,8.4,2.4C100.1,752.4,99.9,750.9,99.9,749.2z"/>
		<g>
			<path class="st5" d="M168.7,739.4c-5,5.3-12.2,10.3-22.9,13.5c-2.3,5.5-5.6,12.2-9.5,19.5c12.6-7.3,24.5-19.3,33.5-29.3
				C169.2,740.6,168.7,739.4,168.7,739.4z"/>
			<path class="st5" d="M170,770.4c-4,1.1-8.1,2-12.3,2.7C161.9,772.4,166,771.5,170,770.4c2.2-13.1,0.9-22.6-0.3-27.4
				c-9,10.1-20.9,22.1-33.5,29.3c-11.6,21.8-28.5,48.8-41.5,64.4c8.6,3.8,24.5,13.4,29.3,16.3c5.6-7.3,11.2-14.6,16.3-21.2
				c13.2-16.9,21-32.2,25.4-45.1C167.8,780.8,169.2,775.3,170,770.4z"/>
			<path class="st5" d="M55.6,901.2c-1.1,11.6,6.8,12.9,14,11.9c0,0,0,0,0,0c5.9-0.9,11.3-3.3,11.3-3.3s14.9-19.8,32.1-42.3
				c-9.7-4.2-26.3-13.9-30.8-17.5C68.1,865.1,57.4,882.8,55.6,901.2z"/>
			<path class="st5" d="M57.1,766.8c-2.1-0.2-4.2-0.5-6.3-0.9l-0.1,0.6c-2.7,6.3-5.9,11.6-9.4,16c-3.4,4.3-7.2,7.8-11.1,10.6
				c9.2,6.1,29.9,25.2,29.9,25.2c14.3-18.9,27.1-39.2,33.4-49.5c-1.2-1.3-2.3-2.7-3.4-4.2C81.8,766.9,70.8,768.3,57.1,766.8z"/>
			<path class="st5" d="M90.2,764.5c1.1,1.5,2.3,3,3.4,4.2c2.5-4,3.9-6.6,4.1-6.8C95.5,762.8,93,763.7,90.2,764.5z"/>
			<path class="st5" d="M14.5,800.8c-15.6,4.8-29.3,1.8-29.9,1.7c0,0,0,0,0,0c-16.5,19.7-30.4,26.1-34.6,37.4
				c-0.4,1-0.7,2.1-0.8,3.1c-1.1,6.6,2.3,12.2,7.4,17.1c4.3,4.1,9.9,7.6,15.2,10.6c12.5,7.1,34.7,1.2,59.7-20.2
				c5.9-5,12.1-11.7,18.3-19.1c-6.7-2.7-30.2-23.1-34.3-28.2C14.9,802.5,14.6,801.6,14.5,800.8z"/>
		</g>
		<path class="st6" d="M40.8,782.1l0.5,0.4c-3.4,4.3-7.2,7.8-11.1,10.6c-1.3-0.9-2.4-1.5-3.2-1.7c-3.8-1.3-12.9,4.4-12.5,9.5
			c-15.6,4.8-29.3,1.8-29.9,1.7c3.3-3.9,6.7-8.4,10.1-13.6C9.7,788.6,25.4,786.6,40.8,782.1z"/>
		<g>
			<path class="st7" d="M125.5,854c0,0-0.5-0.3-1.5-0.9c-4.9-3-20.7-12.5-29.3-16.3c-2-0.9-3.7-1.5-4.6-1.6
				c-4.3-0.4-13.3,10-8.2,14.4c0.1,0.1,0.3,0.2,0.4,0.3c4.5,3.6,21.1,13.3,30.8,17.5c3.2,1.4,5.7,2.2,6.6,2
				C125.1,868.1,127.1,857.4,125.5,854z"/>
			<path class="st7" d="M30.3,793.1c-1.3-0.9-2.4-1.5-3.2-1.7c-3.8-1.3-12.9,4.4-12.5,9.5c0,0.8,0.3,1.7,1,2.4
				c4.1,5.1,27.6,25.5,34.3,28.2c0.5,0.2,0.9,0.3,1.2,0.3c5.9,0,10.2-9.8,9.3-13.5C60.2,818.2,39.5,799.2,30.3,793.1z"/>
		</g>
		<path class="st4" d="M-6.5,726c3.7-21.7,25.4-21.9,43.5-13.6c-2.7,1.4-5.8,3.3-9,5.6l0,0c-0.5-0.1-16.9-3.8-21.9,6.8
			c-1.7,3.6-1.1,7.2,1.1,10.5c-2.8,2.6-5.6,5.3-8.4,8C-5.5,738.1-7.5,732.3-6.5,726z"/>
		<path class="st4" d="M15,742.3c-4,1.6-8.1,3.2-12.5,4.6c-1.4-1.2-2.6-2.4-3.7-3.7c2.9-2.8,5.7-5.5,8.4-8
			C9,737.7,11.7,740.1,15,742.3z"/>
		<g>
			<path class="st8" d="M64.8,724.4C64.8,724.4,64.8,724.4,64.8,724.4c-0.4-1.3-0.7-2.6-0.9-3.9c-1.8-5.5-7-14.3-21.2-10.4
				c-1.7,0.5-3.6,1.2-5.6,2.3c-2.7,1.4-5.8,3.3-9,5.6l0,0c-6.3,4.4-13.3,10.4-20.8,17.3c1.7,2.5,4.4,5,7.8,7.2
				c18.7-7.5,33.6-15.8,53.2-9.2l0,0C66.8,730.3,65.7,727.3,64.8,724.4z"/>
			<path class="st8" d="M2.5,746.9c-1.4-1.2-2.6-2.4-3.7-3.7c-2.1,2.1-4.3,4.2-6.4,6.4c0.6-0.1,1.3-0.3,2-0.5
				C-2.8,748.5-0.1,747.7,2.5,746.9z"/>
		</g>
		<g>
			<path class="st9" d="M107.6,746.3c1.7-5.1,7.3-7.9,12.4-6.2c5.1,1.7,7.9,7.3,6.2,12.4c-0.5,1.3-1.2,2.5-2.1,3.5
				c-2.5,2.8-6.5,3.9-10.3,2.6c-1.9-0.6-3.5-1.8-4.6-3.2c0,0-2,1.7-6.1,3.9c2,2.8,4.9,5,8.4,6.2c8.7,2.9,18.1-1.6,21.3-10.1
				c0.1-0.2,0.1-0.4,0.2-0.6c3-8.9-1.8-18.5-10.7-21.5c-1.4-0.5-2.8-0.7-4.2-0.8c-7.6-0.5-14.8,4-17.3,11.5
				c-0.6,1.7-0.9,3.5-0.9,5.2C104.7,747.6,107.6,746.3,107.6,746.3z"/>
			<path class="st9" d="M70.4,736.6c-0.8-1.1-1.5-2.3-2.2-3.5l0,0c-19.6-6.6-34.6,1.7-53.2,9.2c11.2,7.3,30.1,12.5,46.9,13
				c11.1,0.4,21.9-1.6,30.2-3.8C82.3,748.1,74.8,742.8,70.4,736.6z"/>
			<path class="st9" d="M-7.3,939.3c-1.9,2.3-3.9,4.6-6.1,6.7c1.2,0.1,2.3-0.1,3-0.5C-9.8,945.1-8.8,942.7-7.3,939.3z"/>
			<path class="st9" d="M-48.9,767.8c4.7,2.1,12.1,3.2,20.8,3.5c25.7,1,62.8-4.2,75-6.1c-18-3.3-34.5-9.6-44.4-18.3
				c-2.6,0.8-5.3,1.6-8.1,2.2c-0.7,0.2-1.3,0.3-2,0.5c-25.9,5.9-43.1,5.1-56,1.1l0,0C-63.6,750.7-64.1,761-48.9,767.8z"/>
		</g>
		<g>
			<path class="st10" d="M136.2,772.3c3.9-7.3,7.2-14,9.5-19.5c-3.9,1.1-8.1,2-12.9,2.6c-3.2,8.5-12.6,13-21.3,10.1
				c-3.5-1.2-6.4-3.4-8.4-6.2c-1.5,0.8-3.3,1.7-5.4,2.6c-0.2,0.3-1.6,2.8-4.1,6.8C106.5,782.8,121.8,780.7,136.2,772.3z"/>
			<path class="st10" d="M55.6,901.2c1.8-18.5,12.4-36.1,26.6-51.3c-0.1-0.1-0.3-0.2-0.4-0.3c-5.1-4.4,3.8-14.8,8.2-14.4
				c1,0.1,2.6,0.7,4.6,1.6c13-15.6,29.9-42.7,41.5-64.4c-14.4,8.3-29.7,10.4-42.6-3.6c-6.3,10.3-19.1,30.6-33.4,49.5
				c0.9,3.7-3.4,13.5-9.3,13.5c-0.3,0-0.7-0.1-1.2-0.3c-6.2,7.4-12.4,14-18.3,19.1c-25,21.4-47.2,27.3-59.7,20.2
				c-5.3-3-10.9-6.5-15.2-10.6c0,0-40.4,26.8-61.3,22.6c-20.9-4.1-55.4-44.1-55-58.5c-0.5-0.8-0.9-1.4-1.2-2c0,0-3.3-4.9-9.9-4.9
				c-9,0.1-24.6,16.6-33.8,20.4c-9.2,3.7-22.3,8.7-23.6,16.9c-1.3,8.1,2.5,24.2,15.1,26.5c12.4-11.9,21.5-20.9,21.9-21.3
				c15.4,14.4,46,42.2,72,59.2c4.9,3.2,9.6,6,14,8.3c0,0-10.4,12.3-6.6,19.7c3.2,6.5,12,3.1,14.2,2.1c2.5-2.7,5-5,7.4-6.9
				c20,14.1,84.6,52.8,97.7,52.6c14-0.3,61.5-80.5,62.2-81.7C62.4,914.2,54.5,912.8,55.6,901.2z M-7.3,939.3
				c-1.5,3.5-2.5,5.8-3.1,6.2c-0.7,0.4-1.7,0.6-3,0.5c-0.3,0.2-0.5,0.5-0.8,0.7c0.3-0.2,0.5-0.5,0.8-0.7
				c-9.3-0.5-31.8-13.7-37.8-21.8c3.6-1.5,7.2-3.2,10.8-4.9c13.3-6.4,25.2-13.3,31.9-17.4c0,0,0,0,0,0c0.4,0.1,8.2,2.7,19.9,3.2
				c-8.4,9.2-14.7,25-18.5,33.9C-7.2,939-7.3,939.1-7.3,939.3c4.3-5.2,8.2-10.5,13.9-14.1C0.8,928.7-3,934.1-7.3,939.3z"/>
			<path class="st10" d="M118.5,729.3c1.5,0.2,3,0.3,4.4,0.3c6.9,0.1,11.1-0.9,12-2.9c0.7-1.6-1.1-9.8-3-14.7l0,0
				c-0.4-0.9-0.8-1.7-1.1-2.5c-1.6-3.4-3.3-6.1-6.4-6.5c-3.8-0.5-8,2.5-12,6.2c0,0,0,0,0,0c-0.4,0.6-8.8,11.6-7.7,15.4
				C105.2,726.5,112.2,728.5,118.5,729.3z"/>
			<path class="st10" d="M109.2,755.5L109.2,755.5c1.1,1.5,2.7,2.6,4.6,3.3c3.8,1.3,7.8,0.1,10.3-2.6c0.9-1,1.6-2.2,2.1-3.5
				c1.7-5.1-1-10.7-6.2-12.4c-5.1-1.7-10.7,1-12.4,6.2C106.5,749.6,107.2,753,109.2,755.5z"/>
			<path class="st10" d="M-41.9,786.9c11.1,1.4,23.5,2.3,36.6,2c14.9-0.4,30.6-2.3,46-6.9l0.5,0.4c3.5-4.4,6.7-9.6,9.4-16l0.1-0.6
				c-1.3-0.2-2.6-0.4-3.9-0.7c-12.1,1.9-49.2,7.1-75,6.1c-8.7-0.3-16.1-1.4-20.8-3.5c-15.2-6.9-14.7-17.1-14.7-17.1l0,0
				c-4.8-1.5-9-3.5-12.9-5.8c0,0-10.9,25.1-9.7,32.3C-86.2,777.2-68,783.6-41.9,786.9z"/>
		</g>
		<g>
			<path class="st11" d="M99.9,749.2c0-1.7,0.3-3.5,0.9-5.2c2.5-7.5,9.8-12.1,17.3-11.5c1.4,0.1,2.8,0.4,4.2,0.8
				c8.9,3,13.7,12.6,10.7,21.5c-0.1,0.2-0.1,0.4-0.2,0.6c4.8-0.6,9.1-1.4,12.9-2.6c10.7-3.2,18-8.2,22.9-13.5c2-2.1,3.6-4.3,4.9-6.4
				c4.9-7.7,5.5-14.3,5.5-14.3c-8.2,8.2-23.3,11.8-35,7.5c-7-2.6-9.8-8.8-12.2-14.1c1.9,4.9,3.7,13.1,3,14.7c-0.9,1.9-5.1,3-12,2.9
				c-1.3,0-2.8-0.2-4.4-0.3c-6.3-0.8-13.3-2.7-13.9-4.6c-1.2-3.8,7.3-14.9,7.7-15.4c-4.5,4.1-8.6,9-11.6,10.8
				c-5.7,3.4-24.2,7.2-34.2-6.7c-1.9-2.6-3.1-5.6-3.9-8.8c0,0-0.5,7.3,1.2,16c0.7,2.1,0.9,3.6,0.9,3.9c0,0,0,0,0,0
				c0.8,2.9,1.9,5.9,3.4,8.7c0.6,1.2,1.4,2.4,2.2,3.5c4.4,6.2,11.9,11.4,21.7,14.9C95.1,750.8,97.7,750,99.9,749.2z"/>
			<path class="st11" d="M179.4,678L179.4,678c0.3-16.6-6.9-31.9-6.9-31.9c-5.4,0-12.1-0.7-17.9-3.5c1.2,0.6,8,4.5,5.7,9.5
				c-2.6,5.6-11.4,6.9-24.9,4.3c-13.5-2.6-32.6-9.8-38.3-12.9c0,0-9.8,2.8-18.2,25.2c12.7-1.7,32.1,0.4,49.5,1.8
				C147.5,672.2,168.4,674.5,179.4,678z"/>
		</g>
		<path class="st1" d="M185.8,681c-0.5-0.4-1.2-0.8-2-1.2c-1.2-0.6-2.7-1.2-4.5-1.8c-11-3.5-31.9-5.8-51.1-7.4
			c-17.3-1.4-36.8-3.5-49.5-1.8c-2.4,0.3-4.5,0.8-6.3,1.3c-1.9,0.6-3.5,1.4-4.8,2.4c-2.4,2-8.3,18.4-5.1,32c0.7,3.2,2,6.2,3.9,8.8
			c10,13.9,28.5,10,34.2,6.7c3-1.8,7.2-6.7,11.6-10.8c0,0,0,0,0,0c4-3.7,8.2-6.7,12-6.2c3,0.4,4.7,3.1,6.4,6.5
			c0.4,0.7,0.8,1.5,1.1,2.5l0,0c2.4,5.3,5.3,11.5,12.2,14.1c11.7,4.3,26.8,0.7,35-7.5c0.9-0.9,1.8-1.9,2.5-2.9
			C188.9,705.5,189.2,683.8,185.8,681z M155,720.4c-17.2-1.9-21.7-21.8-32.1-23.6c-10.3-1.8-19.5,25.1-43,17.2
			c-14.9-5-9.1-36-3.9-37c24.5-4.5,95.2,3.2,99.4,7.2C182.7,691.2,181.2,723.3,155,720.4z"/>
		<path class="st12" d="M95.5,639.9c0.2,1.4,0.8,2.6,1.6,3.7l0,0c5.7,3.1,24.8,10.3,38.3,12.9c13.5,2.6,22.3,1.3,24.9-4.3
			c0.5-1.1,0.6-2.2,0.4-3.2C142.6,661.9,114.7,647.6,95.5,639.9z"/>
		<path class="st2" d="M201.9,623.7c-0.1-0.6-0.3-1.1-0.6-1.5c-3.1-3.7-11.8,0.8-19.3,3.8c-3.4,1.3-7.2,2.6-10.4,3.5
			c4.5-4.9,12.5-18.9,7.6-21.6c-5.4-3-16.1,6.6-22.2,11.2c-5.9,4.5-17.2,7-17.9,7.1c4.3-2,16.7-19.4,7.3-22
			c-4.5-1.3-11.5,5.7-21.8,11.6c-6.6,3.8-12.4,6.9-21.4,11c-9.1,4.1-11.7,10-11.7,10s-8.8-0.3-13.6,6.9c-4.7,7,3,6.7,3.4,6.7
			c-0.3,0.4-7.8,8.2-9.2,18.7l0.6,1c1.8-0.6,4-1,6.3-1.3c8.4-22.3,18.1-25.2,18.2-25.2c-0.8-1.1-1.4-2.3-1.6-3.7
			c19.2,7.7,47.1,22,65.2,9c-0.1-0.5-0.3-1-0.6-1.5c-1.9-1.3-3.5-2.8-5-4.6c-0.2-0.1-0.4-0.2-0.5-0.3c0.1,0.1,0.3,0.1,0.4,0.2
			c-1.6-1.9-3-3.9-4.4-6C169.4,643.1,189.5,638.7,201.9,623.7z"/>
		<path class="st2" d="M155.2,642.9c1.5,1.8,3.1,3.3,5,4.6C158.9,645.2,156.4,643.5,155.2,642.9z"/>
		<path class="st2" d="M183.3,645.2c-3.5,0.6-6.9,1.4-10.4,1.6c1.4,3.1,6.9,16.6,6.6,31.2l0,0c1.8,0.6,3.3,1.1,4.5,1.8
			C192.4,658,183.3,645.3,183.3,645.2z"/>
		<path class="st12" d="M183.2,645.2c12.1-3.9,19.5-16.3,18.6-21.5c-12.4,15-32.4,19.4-51.2,13.1c1.4,2.1,2.8,4.1,4.4,6
			c5.7,2.6,12.2,3.4,17.5,3.4c0,0,0.1,0.2,0.3,0.7C176.3,646.6,179.7,645.8,183.2,645.2L183.2,645.2z"/>
		<path class="st3" d="M122.9,696.8c10.3,1.8,14.8,21.6,32.1,23.6c26.3,2.9,27.7-29.1,20.5-36.1c-4.2-4-74.9-11.7-99.4-7.2
			c-5.3,1-11,32,3.9,37C103.4,721.9,112.6,695,122.9,696.8z"/>
		<path class="st4" d="M103.1,759.4c4.1-2.2,6.1-3.9,6.1-3.9l0,0c-3-0.4-5.9-0.9-8.7-1.5C101.1,755.9,101.9,757.7,103.1,759.4z"/>
		<path class="st4" d="M109.2,755.5c-1.9-2.5-2.7-5.9-1.6-9.1c0,0-2.9,1.3-7.7,2.9c0,1.6,0.2,3.2,0.6,4.7
			C103.3,754.6,106.2,755.1,109.2,755.5z"/>
		<path class="st4" d="M103.1,759.4c-1.2-1.6-2-3.5-2.6-5.4c-2.9-0.7-5.7-1.5-8.4-2.4c-8.3,2.2-19.1,4.2-30.2,3.8
			c-16.8-0.6-35.7-5.7-46.9-13c-4,1.6-8.1,3.2-12.5,4.6c9.8,8.7,26.4,15,44.4,18.3c1.3,0.2,2.6,0.5,3.9,0.7c2.1,0.3,4.2,0.6,6.3,0.9
			c13.7,1.6,24.7,0.1,33.1-2.3c-0.6-0.8-1.2-1.7-1.8-2.5c0.6,0.9,1.2,1.7,1.8,2.5c2.8-0.8,5.4-1.7,7.6-2.6
			C99.8,761.1,101.6,760.2,103.1,759.4z"/>
		<path class="st4" d="M99.9,749.2c-2.2,0.7-4.8,1.5-7.7,2.3c2.6,0.9,5.4,1.7,8.4,2.4C100.1,752.4,99.9,750.9,99.9,749.2z"/>
		<g>
			<path class="st13" d="M168.7,739.4c-5,5.3-12.2,10.3-22.9,13.5c-2.3,5.5-5.6,12.2-9.5,19.5c12.6-7.3,24.5-19.3,33.5-29.3
				C169.2,740.6,168.7,739.4,168.7,739.4z"/>
			<path class="st5" d="M170,770.4c-4,1.1-8.1,2-12.3,2.7C161.9,772.4,166,771.5,170,770.4c2.2-13.1,0.9-22.6-0.3-27.4
				c-9,10.1-20.9,22.1-33.5,29.3c-11.6,21.8-28.5,48.8-41.5,64.4c7.6,3.4,20.8,11.2,27.2,15c0-0.1,0-0.1,0-0.2c0,0.1,0,0.1,0,0.2
				c0.8,0.5,1.6,1,2.1,1.3c5.6-7.3,11.2-14.6,16.3-21.2c13.2-16.9,21-32.2,25.4-45.1C167.8,780.8,169.2,775.3,170,770.4z"/>
			<path class="st5" d="M107.3,864.7c-9.5-4.8-21.3-11.8-25-14.8c-14.2,15.2-24.9,32.8-26.6,51.3c-0.4,4.5,0.5,7.4,2.2,9.3
				C80.9,911.9,93,881.3,107.3,864.7z"/>
			<path class="st13" d="M110.9,866.5c-1.5,0.2-3.1,0.3-4.8,0.2C107.8,866.8,109.4,866.7,110.9,866.5c-1.1-0.5-2.3-1.1-3.6-1.7
				c-14.3,16.6-26.4,47.2-49.4,45.8c2.7,2.9,7.4,3.2,11.8,2.5c0,0,0,0,0,0c5.9-0.9,11.3-3.3,11.3-3.3s14.9-19.8,32.1-42.3
				C112.4,867.2,111.6,866.8,110.9,866.5z"/>
			<path class="st13" d="M90.2,764.5c-8.4,2.3-19.4,3.8-33.1,2.3c-2.1-0.2-4.2-0.5-6.3-0.9l-0.1,0.6c-0.5,1.3-1.1,2.5-1.7,3.7
				c13.5,4.5,29.1,1.6,42.5-4C91.1,765.7,90.6,765.1,90.2,764.5z"/>
			<path class="st5" d="M93.6,768.7c-0.7-0.8-1.4-1.6-2.1-2.5c-13.4,5.6-29,8.4-42.5,4c-2.3,4.7-4.9,8.8-7.7,12.3
				c-3.4,4.3-7.2,7.8-11.1,10.6c7.1,4.8,21.1,17.2,27.1,22.6c0.2-1.1,0.4-2.1,0.5-3.1c-0.1,0.9-0.3,2-0.5,3.1
				c1.8,1.6,2.8,2.6,2.8,2.6C74.5,799.4,87.3,779.1,93.6,768.7z"/>
			<path class="st5" d="M96.5,764c-1.6,0.8-3.3,1.5-5,2.2c0.7,0.9,1.4,1.7,2.1,2.5C94.8,766.8,95.8,765.2,96.5,764z"/>
			<path class="st5" d="M97.7,761.9c-2.2,0.9-4.7,1.8-7.6,2.6c0.4,0.6,0.9,1.2,1.3,1.7c1.7-0.7,3.4-1.5,5-2.2
				C97.2,762.8,97.6,762.1,97.7,761.9z"/>
			<path class="st5" d="M45.6,829c-9.3-6.3-26.6-21.4-30.1-25.8c-0.6-0.8-0.9-1.6-1-2.4c-15.6,4.8-29.3,1.8-29.9,1.7c0,0,0,0,0,0
				c-16.5,19.7-30.4,26.1-34.6,37.4c-0.4,1-0.7,2.1-0.8,3.1c0,0.1,0,0.2,0,0.3C-21.5,872.3,22.1,859.4,45.6,829z"/>
			<path class="st13" d="M45.6,829c-23.5,30.4-67.1,43.3-96.4,14.3c-0.9,6.4,2.4,12,7.5,16.7c4.3,4.1,9.9,7.6,15.2,10.6
				c12.5,7.1,34.7,1.2,59.7-20.2c5.9-5,12.1-11.7,18.3-19.1C48.7,831,47.3,830.2,45.6,829z"/>
		</g>
		<path class="st14" d="M40.8,782.1l0.5,0.4c-3.4,4.3-7.2,7.8-11.1,10.6c-1.3-0.9-2.4-1.5-3.2-1.7c-3.8-1.3-12.9,4.4-12.5,9.5
			c-15.6,4.8-29.3,1.8-29.9,1.7c3.3-3.9,6.7-8.4,10.1-13.6C9.7,788.6,25.4,786.6,40.8,782.1z"/>
		<g>
			<path class="st7" d="M121.9,851.8c-6.4-3.8-19.6-11.7-27.2-15c-2-0.9-3.7-1.5-4.6-1.6c-4.3-0.4-13.3,10-8.2,14.4
				c0.1,0.1,0.3,0.2,0.4,0.3c3.7,3,15.5,10,25,14.8c0.4-0.5,0.8-0.9,1.2-1.3c-0.4,0.4-0.8,0.9-1.2,1.3c1.2,0.6,2.4,1.2,3.6,1.7
				C118.3,865.3,122.5,859.9,121.9,851.8z"/>
			<path d="M125.5,854c0,0-0.5-0.3-1.5-0.9c-0.6-0.3-1.3-0.8-2.1-1.3c0.6,8-3.6,13.5-11,14.6c0.8,0.4,1.5,0.7,2.2,1
				c3.2,1.4,5.7,2.2,6.6,2C125.1,868.1,127.1,857.4,125.5,854z"/>
			<path class="st7" d="M45.7,828.8C45.7,828.8,45.7,828.8,45.7,828.8c0.9-1.1,1.7-2.1,2.4-3.2C47.4,826.6,46.6,827.7,45.7,828.8
				c7.6,1.3,10.5-6.7,11.7-13.1c-6-5.4-20-17.9-27.1-22.6c-1.3-0.9-2.4-1.5-3.2-1.7c-3.8-1.3-12.9,4.4-12.5,9.5c0,0.8,0.3,1.7,1,2.4
				c3.5,4.3,20.8,19.5,30.1,25.8C45.6,828.9,45.7,828.9,45.7,828.8C45.7,828.8,45.7,828.8,45.7,828.8z"/>
			<path d="M60.2,818.2c0,0-1.1-1-2.8-2.6c-1.2,6.4-4.1,14.5-11.6,13.1c-0.1,0.1-0.1,0.1-0.2,0.2c1.7,1.2,3.2,2,4.2,2.4
				c0.5,0.2,0.9,0.3,1.2,0.3C56.8,831.8,61.2,821.9,60.2,818.2z"/>
		</g>
		<path class="st4" d="M-6.5,726c3.7-21.7,25.4-21.9,43.5-13.6c-2.7,1.4-5.8,3.3-9,5.6l0,0c-0.5-0.1-16.9-3.8-21.9,6.8
			c-1.7,3.6-1.1,7.2,1.1,10.5c-2.8,2.6-5.6,5.3-8.4,8C-5.5,738.1-7.5,732.3-6.5,726z"/>
		<path class="st4" d="M15,742.3c-4,1.6-8.1,3.2-12.5,4.6c-1.4-1.2-2.6-2.4-3.7-3.7c2.9-2.8,5.7-5.5,8.4-8
			C9,737.7,11.7,740.1,15,742.3z"/>
		<g>
			<path class="st8" d="M64.8,724.4C64.8,724.4,64.8,724.4,64.8,724.4c-0.4-1.3-0.7-2.6-0.9-3.9c-1.8-5.5-7-14.3-21.2-10.4
				c-1.7,0.5-3.6,1.2-5.6,2.3c-2.7,1.4-5.8,3.3-9,5.6l0,0c-6.3,4.4-13.3,10.4-20.8,17.3c1.7,2.5,4.4,5,7.8,7.2
				c18.7-7.5,33.6-15.8,53.2-9.2l0,0C66.8,730.3,65.7,727.3,64.8,724.4z"/>
			<path class="st8" d="M2.5,746.9c-1.4-1.2-2.6-2.4-3.7-3.7c-2.1,2.1-4.3,4.2-6.4,6.4c0.6-0.1,1.3-0.3,2-0.5
				C-2.8,748.5-0.1,747.7,2.5,746.9z"/>
		</g>
		<g>
			<path class="st9" d="M70.4,736.6c-0.8-1.1-1.5-2.3-2.2-3.5l0,0c-19.6-6.6-34.6,1.7-53.2,9.2c11.2,7.3,30.1,12.5,46.9,13
				c11.1,0.4,21.9-1.6,30.2-3.8C82.3,748.1,74.8,742.8,70.4,736.6z"/>
			<path class="st9" d="M-7.3,939.3c-1.9,2.3-3.9,4.6-6.1,6.7c1.2,0.1,2.3-0.1,3-0.5C-9.8,945.1-8.8,942.7-7.3,939.3z"/>
			<path class="st9" d="M-48.9,767.8c4.7,2.1,12.1,3.2,20.8,3.5c25.7,1,62.8-4.2,75-6.1c-18-3.3-34.5-9.6-44.4-18.3
				c-2.6,0.8-5.3,1.6-8.1,2.2c-0.7,0.2-1.3,0.3-2,0.5c-25.9,5.9-43.1,5.1-56,1.1l0,0C-63.6,750.7-64.1,761-48.9,767.8z"/>
		</g>
		<g>
			<path class="st15" d="M136.2,772.3c3.9-7.3,7.2-14,9.5-19.5c-3.9,1.1-8.1,2-12.9,2.6c-3.2,8.5-12.6,13-21.3,10.1
				c-3.5-1.2-6.4-3.4-8.4-6.2c-1.5,0.8-3.3,1.7-5.4,2.6c-0.2,0.3-1.6,2.8-4.1,6.8C106.5,782.8,121.8,780.7,136.2,772.3z"/>
			<path class="st10" d="M55.6,901.2c1.8-18.5,12.4-36.1,26.6-51.3c-0.1-0.1-0.3-0.2-0.4-0.3c-5.1-4.4,3.8-14.8,8.2-14.4
				c1,0.1,2.6,0.7,4.6,1.6c13-15.6,29.9-42.7,41.5-64.4c-14.4,8.3-29.7,10.4-42.6-3.6c-6.3,10.3-19.1,30.6-33.4,49.5
				c0.9,3.7-3.4,13.5-9.3,13.5c-0.3,0-0.7-0.1-1.2-0.3c-6.2,7.4-12.4,14-18.3,19.1c-25,21.4-47.2,27.3-59.7,20.2
				c-5.3-3-10.9-6.5-15.2-10.6c0,0-40.4,26.8-61.3,22.6c-20.9-4.1-55.4-44.1-55-58.5c-0.5-0.8-0.9-1.4-1.2-2c0,0-3.3-4.9-9.9-4.9
				c-9,0.1-24.6,16.6-33.8,20.4c-9.2,3.7-22.3,8.7-23.6,16.9c-1.3,8.1,2.5,24.2,15.1,26.5c12.4-11.9,21.5-20.9,21.9-21.3
				c15.4,14.4,46,42.2,72,59.2c1.4,0.9,2.7,1.7,4,2.6c20.5,7,43,8.3,64,2.7c-0.1-0.1-0.1-0.1-0.2-0.2c3.6-1.5,7.2-3.2,10.8-4.9
				c13.3-6.4,25.2-13.3,31.9-17.4c0,0,0,0,0,0c0.4,0.1,7.9,2.6,19.2,3.1c3.7,0,7.5,0.1,11-0.4c-10.3,7.7-17,17.7-23.2,27.8
				c2.4-2.7,5-5.2,8.2-7.2c-3.2,1.9-5.8,4.5-8.2,7.2c-3.6,5.9-7,11.9-10.9,17.5l0.4-1.2l-0.4,1.2c3.9-5.6,7.3-11.6,10.9-17.5
				c-1.9,2.2-3.8,4.5-5.7,6.9c-1.5,3.5-2.5,5.8-3.1,6.2c-0.7,0.4-1.7,0.6-3,0.5c-0.3,0.2-0.5,0.5-0.8,0.7c0.3-0.2,0.5-0.5,0.8-0.7
				c-8.2-0.5-26.5-10.6-34.9-18.6c-19.3,10-41.2,12.2-62.6,9.2c-1.6,3.5-2.4,7.5-0.9,10.6c3.2,6.5,12,3.1,14.2,2.1
				c2.5-2.7,5-5,7.4-6.9c20,14.1,84.6,52.8,97.7,52.6c14-0.3,61.5-80.5,62.2-81.7C62.4,914.2,54.5,912.8,55.6,901.2z"/>
			<path class="st16" d="M21.6,904.6c-3.5,0.5-7.3,0.4-11,0.4c0.2,0,0.5,0,0.7,0c-8.4,9.2-14.7,25-18.5,33.9c0,0.1-0.1,0.2-0.1,0.3
				c1.9-2.3,3.7-4.7,5.7-6.9C4.6,922.2,11.3,912.2,21.6,904.6z"/>
			<path class="st10" d="M118.5,729.3c1.5,0.2,3,0.3,4.4,0.3c6.9,0.1,11.1-0.9,12-2.9c0.7-1.6-1.1-9.8-3-14.7l0,0
				c-0.4-0.9-0.8-1.7-1.1-2.5c-1.6-3.4-3.3-6.1-6.4-6.5c-3.8-0.5-8,2.5-12,6.2c0,0,0,0,0,0c-0.4,0.6-8.8,11.6-7.7,15.4
				C105.2,726.5,112.2,728.5,118.5,729.3z"/>
			<path class="st10" d="M109.2,755.5L109.2,755.5c1.1,1.5,2.7,2.6,4.6,3.3c3.8,1.3,7.8,0.1,10.3-2.6c0.9-1,1.6-2.2,2.1-3.5
				c1.7-5.1-1-10.7-6.2-12.4c-5.1-1.7-10.7,1-12.4,6.2C106.5,749.6,107.2,753,109.2,755.5z"/>
			<path class="st10" d="M-41.9,786.9c11.1,1.4,23.5,2.3,36.6,2c14.9-0.4,30.6-2.3,46-6.9l0.5,0.4c3.5-4.4,6.7-9.6,9.4-16l0.1-0.6
				c-1.3-0.2-2.6-0.4-3.9-0.7c-12.1,1.9-49.2,7.1-75,6.1c-8.7-0.3-16.1-1.4-20.8-3.5c-15.2-6.9-14.7-17.1-14.7-17.1l0,0
				c-4.8-1.5-9-3.5-12.9-5.8c0,0-10.9,25.1-9.7,32.3C-86.2,777.2-68,783.6-41.9,786.9z"/>
		</g>
		<g>
			<path class="st11" d="M99.9,749.2c0-1.7,0.3-3.5,0.9-5.2c2.5-7.5,9.8-12.1,17.3-11.5c1.4,0.1,2.8,0.4,4.2,0.8
				c8.9,3,13.7,12.6,10.7,21.5c-0.1,0.2-0.1,0.4-0.2,0.6c4.8-0.6,9.1-1.4,12.9-2.6c10.7-3.2,18-8.2,22.9-13.5c2-2.1,3.6-4.3,4.9-6.4
				c4.9-7.7,5.5-14.3,5.5-14.3c-8.2,8.2-23.3,11.8-35,7.5c-7-2.6-9.8-8.8-12.2-14.1c1.9,4.9,3.7,13.1,3,14.7c-0.9,1.9-5.1,3-12,2.9
				c-1.3,0-2.8-0.2-4.4-0.3c-6.3-0.8-13.3-2.7-13.9-4.6c-1.2-3.8,7.3-14.9,7.7-15.4c-4.5,4.1-8.6,9-11.6,10.8
				c-5.7,3.4-24.2,7.2-34.2-6.7c-1.9-2.6-3.1-5.6-3.9-8.8c0,0-0.5,7.3,1.2,16c0.7,2.1,0.9,3.6,0.9,3.9c0,0,0,0,0,0
				c0.8,2.9,1.9,5.9,3.4,8.7c0.6,1.2,1.4,2.4,2.2,3.5c4.4,6.2,11.9,11.4,21.7,14.9C95.1,750.8,97.7,750,99.9,749.2z"/>
			<path class="st11" d="M179.4,678L179.4,678c0.3-16.6-6.9-31.9-6.9-31.9c-5.4,0-12.1-0.7-17.9-3.5c1.2,0.6,8,4.5,5.7,9.5
				c-2.6,5.6-11.4,6.9-24.9,4.3c-13.5-2.6-32.6-9.8-38.3-12.9c0,0-9.8,2.8-18.2,25.2c12.7-1.7,32.1,0.4,49.5,1.8
				C147.5,672.2,168.4,674.5,179.4,678z"/>
		</g>
		<path class="st17" d="M-156,963"/>
		<line class="st17" x1="-189.3" y1="998.2" x2="-189.3" y2="998.3"/>
		<g>
			<path class="st18" d="M86.6,681.4c0,0-0.4,0.8-1.2,1.9c-0.8,1.1-1.9,2.4-3.2,3.6c-1.2,1.3-2.5,2.4-3.6,3.1
				c-1.1,0.8-1.9,1.2-1.9,1.2c-0.4,0.2-0.9,0-1-0.4c-0.1-0.2-0.1-0.5,0-0.7c0,0,0.4-0.8,1.2-1.9c0.8-1.1,2-2.3,3.3-3.5
				c1.3-1.2,2.7-2.3,3.8-3c1.1-0.8,1.9-1.2,1.9-1.2c0.3-0.1,0.6,0,0.8,0.3C86.7,681.1,86.7,681.3,86.6,681.4z"/>
		</g>
		<g>
			<path class="st18" d="M86.3,689.8c0,0-0.2,0.6-0.6,1.3c-0.4,0.7-1.1,1.6-1.8,2.3c-0.7,0.8-1.6,1.4-2.3,1.8
				c-0.7,0.4-1.3,0.5-1.3,0.5c-0.5,0.1-0.9-0.2-1-0.6c0-0.2,0-0.3,0-0.5c0,0,0.2-0.6,0.6-1.3c0.4-0.7,1.1-1.5,2-2.2
				c0.8-0.7,1.7-1.3,2.4-1.7c0.7-0.4,1.3-0.6,1.3-0.6c0.3-0.1,0.7,0.1,0.8,0.4C86.4,689.5,86.4,689.7,86.3,689.8z"/>
		</g>
		<g>
			<path class="st18" d="M117.9,708.1c0,0-0.4,0.8-1,1.9c-0.2,0.3-0.3,0.6-0.5,0.9c-0.2,0.3-0.4,0.7-0.5,1c-0.4,0.7-0.8,1.4-1.1,2.2
				c-0.2,0.4-0.4,0.8-0.6,1.1c-0.2,0.4-0.3,0.7-0.5,1.1c-0.2,0.4-0.3,0.7-0.5,1c-0.2,0.3-0.3,0.6-0.5,0.9c-0.5,1.2-1,1.9-1,1.9l0,0
				c-0.1,0.2-0.5,0.3-0.7,0.2c-0.2-0.1-0.2-0.3-0.2-0.5c0,0,0.1-0.9,0.4-2.2c0.1-0.7,0.4-1.4,0.7-2.2c0.2-0.4,0.3-0.8,0.5-1.2
				c0.2-0.4,0.4-0.8,0.6-1.2c0.2-0.4,0.4-0.8,0.7-1.1c0.2-0.4,0.5-0.7,0.7-1.1c0.2-0.3,0.5-0.7,0.7-1c0.2-0.3,0.5-0.6,0.7-0.8
				c0.4-0.5,0.8-0.9,1.1-1.2c0.3-0.3,0.5-0.4,0.5-0.4l0,0c0.2-0.1,0.4-0.1,0.5,0.1C117.9,707.8,118,708,117.9,708.1z"/>
		</g>
	</g>
</g>
<g id="Bubulle_5">
	<g>
		<path class="st20" d="M183.6,402c0,0,0-0.2,0-0.6c0-0.2,0-0.4-0.1-0.7c0-0.3-0.1-0.6-0.2-1c-0.2-0.7-0.5-1.5-1.1-2.4
			c-0.6-0.8-1.4-1.7-2.4-2.3c-1-0.7-2.3-1.1-3.7-1.2c-0.3,0-0.7,0-1.1,0c-0.4,0-0.8,0-1.1,0.1c-0.7,0.1-1.4,0.4-2.1,0.7
			c-1.4,0.7-2.6,1.7-3.4,3c-0.4,0.7-0.7,1.4-1,2.1c-0.2,0.7-0.3,1.6-0.3,2.3c0,0.9,0.1,1.6,0.3,2.4c0.2,0.7,0.6,1.5,1,2.1
			c0.8,1.3,2,2.4,3.4,3c1.4,0.6,2.8,0.9,4.3,0.8c1.4-0.1,2.7-0.6,3.7-1.2c1.1-0.7,1.8-1.5,2.4-2.3c0.6-0.8,0.9-1.7,1.1-2.4
			c0.1-0.4,0.2-0.7,0.2-1c0-0.3,0.1-0.5,0.1-0.7C183.6,402.2,183.6,402,183.6,402z M183.6,402c0,0,0,0.2,0,0.6c0,0.2,0,0.4-0.1,0.7
			c0,0.3-0.1,0.6-0.2,1c-0.2,0.7-0.5,1.5-1.1,2.4c-0.5,0.9-1.3,1.7-2.4,2.5c-1,0.7-2.3,1.3-3.8,1.5c-1.4,0.2-3.1,0-4.6-0.6
			c-0.8-0.3-1.5-0.7-2.1-1.3c-0.7-0.5-1.2-1.2-1.7-1.9c-0.5-0.7-0.9-1.5-1.1-2.4c-0.3-0.8-0.4-1.8-0.4-2.6c0-1.8,0.5-3.5,1.5-5
			c0.5-0.7,1.1-1.3,1.7-1.9c0.7-0.5,1.4-1,2.1-1.3c0.8-0.3,1.5-0.5,2.3-0.6c0.4-0.1,0.8-0.1,1.1-0.1c0.4,0,0.8,0,1.1,0.1
			c1.5,0.2,2.8,0.8,3.8,1.5c1,0.7,1.8,1.6,2.4,2.5c0.6,0.9,0.9,1.7,1.1,2.4c0.1,0.4,0.2,0.7,0.2,1c0,0.3,0.1,0.5,0.1,0.7
			C183.6,401.8,183.6,402,183.6,402z"/>
	</g>
</g>
<g id="Bubulle_4">
	<g>
		<path class="st20" d="M135.1,451.5c0,0,0-0.3-0.1-0.9c0-0.3-0.1-0.6-0.1-1c0-0.4-0.2-0.9-0.3-1.4c-0.3-1-0.8-2.3-1.6-3.5
			c-0.8-1.2-2-2.5-3.5-3.5c-1.5-1-3.4-1.7-5.5-1.9c-0.5,0-1-0.1-1.6,0c-0.5,0-1.1,0.1-1.6,0.2c-1.1,0.1-2.1,0.5-3.1,1
			c-2,0.9-3.8,2.5-5.1,4.4c-0.6,1-1.1,2-1.5,3.2c-0.3,1.1-0.5,2.3-0.5,3.5c0,1.3,0.2,2.4,0.5,3.5c0.4,1.1,0.8,2.2,1.5,3.2
			c1.3,1.9,3.1,3.5,5.1,4.4c2,0.9,4.2,1.3,6.3,1.1c2-0.2,3.9-0.9,5.5-1.9c1.5-1,2.7-2.2,3.5-3.5c0.8-1.2,1.3-2.5,1.6-3.5
			c0.1-0.5,0.3-1,0.3-1.4c0.1-0.4,0.1-0.8,0.1-1C135.1,451.8,135.1,451.5,135.1,451.5z M135.1,451.5c0,0,0,0.3,0,0.9
			c0,0.3,0,0.6-0.1,1c0,0.4-0.1,0.9-0.3,1.4c-0.3,1-0.7,2.3-1.6,3.5c-0.8,1.3-2,2.5-3.5,3.6c-1.5,1.1-3.4,1.9-5.6,2.1
			c-2.1,0.3-4.4,0-6.6-0.9c-1.1-0.4-2.1-1.1-3.1-1.8c-0.9-0.8-1.8-1.7-2.5-2.7c-0.7-1-1.2-2.2-1.6-3.4c-0.4-1.2-0.6-2.5-0.6-3.7
			c0-1.3,0.2-2.6,0.6-3.8c0.4-1.2,0.9-2.3,1.6-3.4c0.7-1,1.5-2,2.5-2.7c1-0.7,2-1.4,3.1-1.8c1.1-0.4,2.2-0.8,3.3-0.9
			c0.6-0.1,1.1-0.1,1.6-0.1c0.6,0,1.1,0.1,1.6,0.1c2.1,0.3,4,1.1,5.5,2.1c1.5,1.1,2.7,2.3,3.5,3.6c0.8,1.3,1.3,2.5,1.6,3.5
			c0.1,0.5,0.2,1,0.3,1.4c0.1,0.4,0.1,0.8,0.1,1C135.1,451.2,135.1,451.5,135.1,451.5z"/>
	</g>
</g>
<g id="Bubulle_3">
	<g>
		<path class="st20" d="M183.6,402c0,0,0-0.2,0-0.6c0-0.2,0-0.4-0.1-0.7c0-0.3-0.1-0.6-0.2-1c-0.2-0.7-0.5-1.5-1.1-2.4
			c-0.6-0.8-1.4-1.7-2.4-2.3c-1-0.7-2.3-1.1-3.7-1.2c-0.3,0-0.7,0-1.1,0c-0.4,0-0.8,0-1.1,0.1c-0.7,0.1-1.4,0.4-2.1,0.7
			c-1.4,0.7-2.6,1.7-3.4,3c-0.4,0.7-0.7,1.4-1,2.1c-0.2,0.7-0.3,1.6-0.3,2.3c0,0.9,0.1,1.6,0.3,2.4c0.2,0.7,0.6,1.5,1,2.1
			c0.8,1.3,2,2.4,3.4,3c1.4,0.6,2.8,0.9,4.3,0.8c1.4-0.1,2.7-0.6,3.7-1.2c1.1-0.7,1.8-1.5,2.4-2.3c0.6-0.8,0.9-1.7,1.1-2.4
			c0.1-0.4,0.2-0.7,0.2-1c0-0.3,0.1-0.5,0.1-0.7C183.6,402.2,183.6,402,183.6,402z M183.6,402c0,0,0,0.2,0,0.6c0,0.2,0,0.4-0.1,0.7
			c0,0.3-0.1,0.6-0.2,1c-0.2,0.7-0.5,1.5-1.1,2.4c-0.5,0.9-1.3,1.7-2.4,2.5c-1,0.7-2.3,1.3-3.8,1.5c-1.4,0.2-3.1,0-4.6-0.6
			c-0.8-0.3-1.5-0.7-2.1-1.3c-0.7-0.5-1.2-1.2-1.7-1.9c-0.5-0.7-0.9-1.5-1.1-2.4c-0.3-0.8-0.4-1.8-0.4-2.6c0-1.8,0.5-3.5,1.5-5
			c0.5-0.7,1.1-1.3,1.7-1.9c0.7-0.5,1.4-1,2.1-1.3c0.8-0.3,1.5-0.5,2.3-0.6c0.4-0.1,0.8-0.1,1.1-0.1c0.4,0,0.8,0,1.1,0.1
			c1.5,0.2,2.8,0.8,3.8,1.5c1,0.7,1.8,1.6,2.4,2.5c0.6,0.9,0.9,1.7,1.1,2.4c0.1,0.4,0.2,0.7,0.2,1c0,0.3,0.1,0.5,0.1,0.7
			C183.6,401.8,183.6,402,183.6,402z"/>
	</g>
</g>
<g id="Bubulle_2">
	<g>
		<path class="st20" d="M191.2,514.9c0,0,0-0.4-0.1-1.1c0-0.4-0.1-0.8-0.2-1.4c0-0.3-0.1-0.6-0.1-0.9c-0.1-0.3-0.2-0.6-0.3-0.9
			c-0.4-1.3-1-2.9-2.1-4.5c-1.1-1.6-2.6-3.2-4.5-4.5c-2-1.3-4.4-2.2-7.1-2.5c-0.7,0-1.4-0.1-2-0.1c-0.7,0.1-1.4,0.1-2.1,0.2
			c-1.4,0.2-2.8,0.7-4.1,1.2c-1.3,0.6-2.6,1.4-3.7,2.4c-1.1,1-2.1,2.1-3,3.4c-0.8,1.3-1.5,2.7-1.9,4.1c-0.4,1.5-0.6,3-0.6,4.5
			c0,1.6,0.2,3.1,0.6,4.5c0.5,1.5,1.1,2.9,1.9,4.1c0.9,1.3,1.8,2.4,3,3.4c1.1,0.9,2.4,1.8,3.7,2.4c2.6,1.2,5.5,1.6,8.2,1.4
			c2.7-0.3,5.1-1.2,7.1-2.5c2-1.3,3.5-2.9,4.5-4.5c1.1-1.6,1.7-3.2,2.1-4.5c0.1-0.3,0.2-0.7,0.3-0.9c0.1-0.3,0.1-0.6,0.1-0.9
			c0.1-0.5,0.2-1,0.2-1.4C191.2,515.3,191.2,514.9,191.2,514.9z M191.2,514.9c0,0,0,0.4-0.1,1.1c0,0.4-0.1,0.8-0.1,1.4
			c0,0.3-0.1,0.6-0.1,0.9c-0.1,0.3-0.2,0.6-0.2,1c-0.4,1.3-1,2.9-2,4.6c-1.1,1.6-2.5,3.3-4.5,4.6c-2,1.4-4.4,2.4-7.2,2.7
			c-2.7,0.3-5.7,0-8.5-1.2c-1.4-0.6-2.7-1.4-4-2.4c-1.2-1-2.3-2.2-3.2-3.5c-0.9-1.3-1.6-2.8-2.1-4.4c-0.5-1.6-0.7-3.2-0.7-4.8
			c0-1.6,0.3-3.3,0.7-4.8c0.5-1.5,1.2-3,2.1-4.4c0.9-1.3,2-2.5,3.2-3.5c1.2-1,2.5-1.8,4-2.4c1.4-0.6,2.8-1,4.3-1.2
			c0.7-0.1,1.4-0.1,2.1-0.1c0.7,0,1.4,0.1,2.1,0.1c2.7,0.4,5.2,1.4,7.2,2.7c2,1.4,3.5,3,4.5,4.6c1.1,1.6,1.7,3.2,2,4.6
			c0.1,0.3,0.2,0.7,0.2,1c0.1,0.3,0.1,0.6,0.1,0.9c0.1,0.5,0.1,1,0.1,1.4C191.2,514.5,191.2,514.9,191.2,514.9z"/>
	</g>
</g>
<g id="Bubulle_1">
	<g>
		<path class="st20" d="M135.1,451.5c0,0,0-0.3-0.1-0.9c0-0.3-0.1-0.6-0.1-1c0-0.4-0.2-0.9-0.3-1.4c-0.3-1-0.8-2.3-1.6-3.5
			c-0.8-1.2-2-2.5-3.5-3.5c-1.5-1-3.4-1.7-5.5-1.9c-0.5,0-1-0.1-1.6,0c-0.5,0-1.1,0.1-1.6,0.2c-1.1,0.1-2.1,0.5-3.1,1
			c-2,0.9-3.8,2.5-5.1,4.4c-0.6,1-1.1,2-1.5,3.2c-0.3,1.1-0.5,2.3-0.5,3.5c0,1.3,0.2,2.4,0.5,3.5c0.4,1.1,0.8,2.2,1.5,3.2
			c1.3,1.9,3.1,3.5,5.1,4.4c2,0.9,4.2,1.3,6.3,1.1c2-0.2,3.9-0.9,5.5-1.9c1.5-1,2.7-2.2,3.5-3.5c0.8-1.2,1.3-2.5,1.6-3.5
			c0.1-0.5,0.3-1,0.3-1.4c0.1-0.4,0.1-0.8,0.1-1C135.1,451.8,135.1,451.5,135.1,451.5z M135.1,451.5c0,0,0,0.3,0,0.9
			c0,0.3,0,0.6-0.1,1c0,0.4-0.1,0.9-0.3,1.4c-0.3,1-0.7,2.3-1.6,3.5c-0.8,1.3-2,2.5-3.5,3.6c-1.5,1.1-3.4,1.9-5.6,2.1
			c-2.1,0.3-4.4,0-6.6-0.9c-1.1-0.4-2.1-1.1-3.1-1.8c-0.9-0.8-1.8-1.7-2.5-2.7c-0.7-1-1.2-2.2-1.6-3.4c-0.4-1.2-0.6-2.5-0.6-3.7
			c0-1.3,0.2-2.6,0.6-3.8c0.4-1.2,0.9-2.3,1.6-3.4c0.7-1,1.5-2,2.5-2.7c1-0.7,2-1.4,3.1-1.8c1.1-0.4,2.2-0.8,3.3-0.9
			c0.6-0.1,1.1-0.1,1.6-0.1c0.6,0,1.1,0.1,1.6,0.1c2.1,0.3,4,1.1,5.5,2.1c1.5,1.1,2.7,2.3,3.5,3.6c0.8,1.3,1.3,2.5,1.6,3.5
			c0.1,0.5,0.2,1,0.3,1.4c0.1,0.4,0.1,0.8,0.1,1C135.1,451.2,135.1,451.5,135.1,451.5z"/>
	</g>
</g>
<g id="Masque">
	<path class="st9" d="M107.6,746.3c1.7-5.1,7.3-7.9,12.4-6.2c5.1,1.7,7.9,7.3,6.2,12.4c-0.5,1.3-1.2,2.5-2.1,3.5
		c-2.5,2.8-6.5,3.9-10.3,2.6c-1.9-0.6-3.5-1.8-4.6-3.2c0,0-2,1.7-6.1,3.9c2,2.8,4.9,5,8.4,6.2c8.7,2.9,18.1-1.6,21.3-10.1
		c0.1-0.2,0.1-0.4,0.2-0.6c3-8.9-1.8-18.5-10.7-21.5c-1.4-0.5-2.8-0.7-4.2-0.8c-7.6-0.5-14.8,4-17.3,11.5c-0.6,1.7-0.9,3.5-0.9,5.2
		C104.7,747.6,107.6,746.3,107.6,746.3z"/>
</g>
</svg>
